<svg width="286" height="99" viewBox="0 0 286 99" fill="none" xmlns="http://www.w3.org/2000/svg">
<path d="M94.0325 30.0051C94.9547 30.0035 95.8747 30.0955 96.778 30.2797C97.5289 30.4288 98.2625 30.653 98.9674 30.949C99.4909 31.1507 99.978 31.4346 100.41 31.7899C100.549 31.8811 100.667 31.9999 100.756 32.1388C100.846 32.2777 100.906 32.4336 100.931 32.5965C100.931 33.1113 100.931 33.7806 100.931 34.6043C100.931 35.4281 100.931 36.4234 100.775 37.5904H99.7841C99.7848 37.3902 99.7848 37.19 99.7841 36.9897C99.7751 36.498 99.711 36.0088 99.593 35.531C99.4883 35.0451 99.2875 34.5844 99.0022 34.1753C98.6942 33.7533 98.3321 33.3725 97.9248 33.0426C97.501 32.7166 97.0403 32.4402 96.5521 32.2189C96.0334 31.9911 95.4917 31.8185 94.936 31.7041C94.3634 31.5941 93.7817 31.5367 93.1984 31.5324C91.3771 31.4679 89.5976 32.0803 88.2113 33.2486C87.5295 33.7977 86.9426 34.4527 86.4736 35.1878C85.9879 35.962 85.586 36.7846 85.2746 37.6419C84.9576 38.5457 84.7249 39.4763 84.5796 40.422C84.4254 41.3985 84.3498 42.3855 84.3537 43.3738C84.3434 44.4847 84.4423 45.5939 84.6491 46.6859C84.8229 47.6678 85.1025 48.6286 85.4832 49.5518C85.8213 50.3874 86.265 51.1773 86.8038 51.9029C87.2906 52.5595 87.8767 53.1383 88.5414 53.6191C89.806 54.5955 91.3673 55.1216 92.9725 55.1121C93.5564 55.1037 94.1383 55.0404 94.7101 54.9233C95.3442 54.7972 95.962 54.6015 96.5521 54.3399C97.2203 54.0631 97.8604 53.7241 98.4635 53.3273C99.1376 52.8902 99.7766 52.4025 100.375 51.8686L100.583 51.9716L100.809 52.126L100.983 52.3148C101.006 52.3817 101.006 52.4539 100.983 52.5207C100.995 52.5832 100.995 52.6471 100.983 52.7095C100.301 53.4578 99.5441 54.1362 98.7241 54.7346C98.0195 55.2603 97.2556 55.7037 96.4478 56.056C95.7113 56.3915 94.9347 56.6336 94.1367 56.7768C93.3759 56.9275 92.6016 57.0022 91.8256 56.9999C90.8373 57.0052 89.8536 56.8664 88.9064 56.588C87.9878 56.3085 87.1156 55.898 86.3172 55.3695C85.5121 54.8443 84.7866 54.2087 84.1625 53.4818C83.4771 52.7235 82.8931 51.8814 82.4249 50.9762C81.9611 50.0123 81.6113 48.9988 81.3823 47.9559C81.1306 46.8286 81.0025 45.6779 81 44.5236C81.0075 43.3704 81.1298 42.2208 81.3649 41.0913C81.5958 39.9138 81.9511 38.7634 82.4249 37.659C82.8887 36.5916 83.4715 35.5786 84.1625 34.6386C84.876 33.7138 85.7185 32.8934 86.6648 32.2017C87.6515 31.5027 88.7417 30.9586 89.8968 30.5886C91.2315 30.1623 92.6303 29.965 94.0325 30.0051Z" fill="#FCE1E6"/>
<path d="M107.27 33.3095C107.149 34.285 107.028 35.2952 106.924 36.3403C106.82 37.3854 106.699 38.4131 106.595 39.4756C106.491 40.5382 106.405 41.6007 106.318 42.6632C106.232 43.7257 106.163 44.7882 106.093 45.8159C106.024 46.8436 105.99 47.8713 105.955 48.8641C105.92 49.857 105.955 50.8324 105.955 51.7381C105.955 52.313 105.955 52.8181 105.955 53.2187C105.955 53.6193 105.955 53.9851 105.955 54.2638C105.976 54.499 106.017 54.732 106.076 54.9606C106.124 55.1043 106.194 55.2396 106.284 55.3612C106.359 55.4509 106.463 55.5123 106.578 55.5354C106.704 55.5559 106.832 55.5559 106.958 55.5354C107.262 55.5347 107.565 55.4937 107.858 55.4134C108.188 55.3178 108.512 55.2015 108.827 55.0651L109 55.518C108.746 55.7036 108.48 55.8723 108.204 56.0231C107.893 56.1973 107.564 56.354 107.218 56.5108C106.886 56.6502 106.545 56.7666 106.197 56.8591C105.921 56.9409 105.637 56.9877 105.349 56.9985C105.08 57.0127 104.815 56.9258 104.606 56.7546C104.386 56.546 104.24 56.2707 104.19 55.9708C104.077 55.5086 104.014 55.0357 104 54.5599C104 53.9851 104 53.2884 104 52.4523C104 52.1562 104 51.7208 104 51.1634C104 50.606 104 49.9615 104 49.2125C104 48.4635 104 47.6623 104.104 46.7739C104.208 45.8856 104.104 45.0321 104.242 44.0393C104.381 43.0464 104.242 42.1407 104.381 41.1826C104.519 40.2246 104.484 39.3014 104.536 38.3957C104.588 37.4899 104.64 36.6539 104.692 35.87C104.744 35.0862 104.692 34.3721 104.813 33.7624C104.825 33.6327 104.866 33.5074 104.934 33.3966C105.007 33.2886 105.109 33.2039 105.228 33.1528C105.353 33.0856 105.487 33.0386 105.626 33.0134C105.776 32.9955 105.927 32.9955 106.076 33.0134C106.493 33.0071 106.904 33.1091 107.27 33.3095Z" fill="#FCE1E6"/>
<path d="M117.038 47.758C117.049 47.354 116.976 46.9522 116.822 46.5812C116.701 46.2607 116.507 45.9757 116.258 45.7504C116.028 45.5456 115.763 45.3872 115.477 45.2832C115.194 45.1826 114.897 45.13 114.598 45.1274C114.262 45.1165 113.926 45.1574 113.602 45.2485C113.357 45.3153 113.13 45.4396 112.938 45.612C112.775 45.7493 112.65 45.9281 112.573 46.1312C112.5 46.3481 112.46 46.5761 112.457 46.8061C112.458 47.0902 112.509 47.3716 112.606 47.6369C112.708 47.9303 112.853 48.2049 113.038 48.4503C112.743 48.6189 112.412 48.7081 112.075 48.7099C111.899 48.7122 111.724 48.6769 111.561 48.606C111.398 48.5583 111.25 48.4691 111.129 48.3465C111.012 48.2271 110.916 48.0863 110.847 47.9311C110.779 47.7491 110.745 47.5552 110.747 47.36C110.747 47.0274 110.827 46.7002 110.98 46.4081C111.142 46.0947 111.355 45.8135 111.61 45.5774C111.886 45.3251 112.186 45.1046 112.507 44.9197C113.18 44.5307 113.908 44.2561 114.664 44.1063C115.004 44.0407 115.348 44.0059 115.693 44.0025C116.201 43.9843 116.708 44.0665 117.187 44.2448C117.57 44.3837 117.912 44.6219 118.183 44.937C118.451 45.2621 118.644 45.6469 118.747 46.062C118.872 46.5472 118.934 47.0479 118.93 47.5503C118.93 47.9311 118.93 48.3464 118.93 48.7964C118.93 49.2637 118.93 49.731 118.83 50.2329L118.73 51.7732C118.73 52.3097 118.73 52.8289 118.73 53.3654C118.685 54.0222 118.842 54.677 119.179 55.2345C119.308 55.4305 119.481 55.59 119.684 55.6988C119.887 55.8075 120.112 55.8621 120.34 55.8575C120.849 55.8334 121.343 55.6659 121.768 55.373L122 55.7364C121.657 56.1118 121.245 56.4119 120.788 56.619C120.361 56.8221 119.897 56.9283 119.427 56.9305C119.087 56.9326 118.749 56.868 118.432 56.7402C118.13 56.6115 117.858 56.4168 117.635 56.1691C117.403 55.8919 117.228 55.5679 117.121 55.2172C116.995 54.7912 116.933 54.3475 116.938 53.9019C116.929 53.752 116.929 53.6018 116.938 53.4519C116.923 53.2908 116.923 53.1285 116.938 52.9673C116.696 53.4782 116.419 53.9698 116.108 54.4384C115.82 54.9098 115.474 55.3403 115.079 55.7191C114.733 56.0856 114.336 56.3949 113.901 56.6363C113.489 56.8731 113.027 56.9981 112.556 56.9998C112.198 57.0044 111.842 56.9337 111.511 56.7921C111.209 56.6635 110.937 56.4687 110.714 56.221C110.485 55.9714 110.304 55.6775 110.183 55.3556C110.061 55.0064 109.999 54.6372 110.001 54.2653C109.992 53.7893 110.083 53.317 110.266 52.8808C110.449 52.4676 110.702 52.0924 111.013 51.7732C111.346 51.4252 111.733 51.1385 112.158 50.9251C112.617 50.6686 113.101 50.4654 113.602 50.3194C114.145 50.1551 114.7 50.0393 115.262 49.9733C115.85 49.8893 116.444 49.8488 117.038 49.8521L117.137 48.7964C117.021 48.5368 117.038 48.1734 117.038 47.758ZM111.942 53.6942C111.917 53.9126 111.917 54.1334 111.942 54.3518C111.979 54.5439 112.053 54.7263 112.158 54.8884C112.258 55.0442 112.395 55.1696 112.556 55.2518C112.73 55.3484 112.924 55.3961 113.121 55.3903C113.385 55.3831 113.645 55.3183 113.884 55.1999C114.167 55.0752 114.43 54.9059 114.664 54.698C114.941 54.4759 115.192 54.2203 115.411 53.9365C115.895 53.3202 116.267 52.6162 116.506 51.8597C116.638 51.4686 116.722 51.0614 116.755 50.6482L115.544 50.7348C115.159 50.7812 114.776 50.8506 114.399 50.9425C114.049 51.0216 113.709 51.1436 113.386 51.3059C113.092 51.4412 112.823 51.6286 112.59 51.8597C112.356 52.0789 112.174 52.3514 112.059 52.6558C111.948 52.989 111.908 53.3434 111.942 53.6942Z" fill="#FCE1E6"/>
<path d="M124.496 57H124.358C124.358 56.4409 124.358 55.8468 124.479 55.2527C124.599 54.6587 124.479 53.9423 124.599 53.2608C124.72 52.5794 124.599 51.9154 124.599 51.269C124.599 50.6225 124.599 49.9934 124.599 49.4168C124.599 48.8402 124.599 48.3335 124.599 47.8792V46.7959C124.609 46.6097 124.609 46.4231 124.599 46.2368C124.59 46.1006 124.549 45.9687 124.479 45.8524C124.425 45.7417 124.333 45.6547 124.221 45.6078C124.066 45.5865 123.91 45.5865 123.756 45.6078H123.446H123.102H122.689L122.138 45.7476L122 45.1185C122.761 44.8323 123.537 44.5874 124.324 44.3847C124.712 44.2772 125.11 44.2071 125.512 44.175C125.665 44.1605 125.82 44.1829 125.964 44.2406C126.107 44.2983 126.236 44.3896 126.338 44.507C126.514 44.807 126.598 45.154 126.579 45.5029C126.579 45.5029 126.579 45.6602 126.579 45.8699C126.579 46.0795 126.579 46.3242 126.579 46.6387C126.579 46.9532 126.579 47.3201 126.579 47.7395C126.579 48.1588 126.579 48.6131 126.476 49.0849C126.372 49.5566 126.476 50.0633 126.355 50.5875L126.2 52.1426C126.476 50.9777 126.785 49.9119 127.13 48.9451C127.445 48.0556 127.836 47.1961 128.3 46.3766C128.673 45.7144 129.156 45.1231 129.729 44.6293C130.215 44.2254 130.822 44.0033 131.45 44.0003C131.661 43.9964 131.871 44.0319 132.07 44.1051C132.247 44.1727 132.411 44.2734 132.552 44.4022C132.69 44.5231 132.801 44.6719 132.879 44.839C132.964 45.0188 133.005 45.2164 132.999 45.4156C133.007 45.6881 132.947 45.9581 132.827 46.2019C132.707 46.4457 132.53 46.6557 132.311 46.8134C132.108 46.6239 131.875 46.4703 131.622 46.3591C131.409 46.2733 131.181 46.2317 130.951 46.2368C130.692 46.2308 130.434 46.2783 130.194 46.3766C129.95 46.4781 129.728 46.6265 129.54 46.8134C129.175 47.1577 128.867 47.5588 128.627 48.0016C128.322 48.5308 128.062 49.0862 127.853 49.6615C127.612 50.273 127.405 50.902 127.216 51.566C127.026 52.2299 126.871 52.8764 126.734 53.5055C126.596 54.1345 126.493 54.746 126.407 55.2527C126.321 55.7594 126.269 56.2836 126.235 56.668L124.496 57Z" fill="#FCE1E6"/>
<path d="M140.077 47.6195C140.081 47.2162 140.008 46.8161 139.862 46.4427C139.735 46.1256 139.543 45.8419 139.298 45.612C139.065 45.4035 138.795 45.2447 138.503 45.1447C138.221 45.0414 137.924 44.9887 137.624 44.9889C137.289 44.9802 136.954 45.021 136.63 45.1101C136.388 45.1851 136.163 45.3085 135.967 45.4735C135.804 45.6068 135.683 45.7875 135.619 45.9927C135.538 46.2074 135.498 46.4369 135.503 46.6677C135.504 46.9517 135.555 47.2332 135.652 47.4984C135.747 47.7912 135.887 48.0659 136.066 48.3118C135.785 48.53 135.453 48.6672 135.105 48.7099C134.924 48.7122 134.743 48.6769 134.575 48.606C134.418 48.5578 134.275 48.4684 134.16 48.3464C134.038 48.2319 133.941 48.0899 133.879 47.9311C133.797 47.753 133.757 47.5572 133.763 47.3599C133.761 47.0249 133.847 46.6957 134.011 46.4081C134.167 46.0954 134.375 45.8142 134.624 45.5774C134.902 45.321 135.208 45.1003 135.536 44.9197C135.874 44.7175 136.229 44.5495 136.597 44.4178C136.952 44.2815 137.318 44.1773 137.691 44.1063C138.03 44.0398 138.374 44.0051 138.718 44.0024C139.22 43.9844 139.721 44.0666 140.193 44.2447C140.578 44.3882 140.925 44.6255 141.204 44.937C141.466 45.2662 141.658 45.6496 141.768 46.0619C141.887 46.548 141.943 47.0487 141.934 47.5503C141.934 47.9311 141.934 48.3464 141.934 48.7964C141.934 49.2464 141.934 49.731 141.818 50.2329L141.718 51.7732C141.718 52.3097 141.718 52.8289 141.718 53.3654C141.673 54.0223 141.83 54.677 142.166 55.2345C142.295 55.4305 142.468 55.59 142.671 55.6988C142.873 55.8075 143.098 55.8621 143.326 55.8576C143.835 55.836 144.328 55.6683 144.751 55.373L145 55.7364C144.651 56.1044 144.241 56.4035 143.79 56.6191C143.358 56.8245 142.889 56.9308 142.414 56.9306C142.074 56.9326 141.737 56.868 141.42 56.7402C141.126 56.6068 140.861 56.4125 140.641 56.1691C140.403 55.8964 140.227 55.571 140.127 55.2172C139.993 54.7932 139.932 54.3481 139.945 53.9019V53.4519C139.945 53.2962 139.945 53.1404 139.945 52.9673C139.697 53.4746 139.42 53.9658 139.116 54.4384C138.818 54.9019 138.473 55.3312 138.089 55.7191C137.734 56.0822 137.332 56.391 136.895 56.6364C136.49 56.8731 136.034 56.9982 135.569 56.9998C135.211 57.0044 134.856 56.9338 134.525 56.7921C134.219 56.6647 133.943 56.4707 133.714 56.223C133.485 55.9753 133.31 55.6797 133.199 55.3557C133.063 55.0098 132.996 54.639 133 54.2653C132.997 53.788 133.093 53.3157 133.282 52.8808C133.453 52.4608 133.707 52.0833 134.028 51.7732C134.358 51.4294 134.738 51.1431 135.155 50.9251C135.615 50.6745 136.098 50.4716 136.597 50.3194C137.139 50.1576 137.694 50.0418 138.254 49.9733C138.842 49.8887 139.435 49.8482 140.028 49.8521C140.028 49.4887 140.028 49.1425 140.028 48.7964C140.064 48.4053 140.081 48.0125 140.077 47.6195ZM135.105 53.5558C135.08 53.7742 135.08 53.995 135.105 54.2134C135.148 54.4064 135.227 54.5888 135.337 54.7499C135.435 54.9011 135.565 55.0257 135.718 55.1134C135.892 55.2078 136.086 55.2554 136.282 55.2518C136.551 55.2446 136.816 55.1798 137.061 55.0614C137.342 54.9326 137.604 54.7637 137.84 54.5596C138.108 54.3328 138.352 54.0776 138.569 53.7981C138.813 53.4964 139.029 53.1719 139.216 52.8289C139.397 52.4725 139.552 52.1022 139.68 51.7213C139.796 51.3257 139.879 50.9203 139.928 50.5098L138.702 50.5963C138.304 50.5963 137.923 50.6655 137.558 50.804C137.209 50.8858 136.87 51.0077 136.547 51.1674C136.258 51.3109 135.99 51.4975 135.752 51.7213C135.524 51.9453 135.343 52.2164 135.221 52.5174C135.118 52.8524 135.079 53.2051 135.105 53.5558Z" fill="#FCE1E6"/>
<path d="M155.686 39.7314C155.714 39.5264 155.714 39.3184 155.686 39.1134C155.657 38.9546 155.587 38.8065 155.484 38.6843C155.371 38.5714 155.233 38.4888 155.081 38.444C154.858 38.4141 154.633 38.4141 154.41 38.444C153.938 38.4495 153.467 38.4896 153 38.5641V37.8088L154.678 37.4998L156.525 37.2252C157.163 37.1336 157.8 37.065 158.438 37.0192C159.076 37.0192 159.697 37.0192 160.301 37.0192C160.777 36.9936 161.253 36.9936 161.728 37.0192C162.177 37.0537 162.621 37.1342 163.054 37.2595C163.458 37.3699 163.847 37.5314 164.212 37.7402C164.554 37.9313 164.865 38.1744 165.135 38.4611C165.396 38.7706 165.601 39.1252 165.74 39.5082C165.887 39.9444 165.961 40.4029 165.958 40.8643C165.968 41.5429 165.836 42.2159 165.572 42.8383C165.313 43.3992 164.955 43.9056 164.514 44.3318C164.061 44.7687 163.546 45.1333 162.987 45.4132C162.402 45.7055 161.789 45.9356 161.157 46.0998C161.949 46.1471 162.732 46.2912 163.491 46.529C164.156 46.7277 164.782 47.0475 165.337 47.4731C165.85 47.8794 166.264 48.4025 166.545 49.0008C166.862 49.6688 167.017 50.4045 166.999 51.1465C167.006 51.7877 166.909 52.4257 166.713 53.0347C166.538 53.5726 166.277 54.0772 165.941 54.5281C165.613 54.9644 165.216 55.3415 164.766 55.6439C164.308 55.9552 163.819 56.2142 163.306 56.4164C162.762 56.6168 162.2 56.7606 161.627 56.8455C161.073 56.9433 160.512 56.995 159.949 57C159.478 56.9981 159.007 56.9695 158.539 56.9142L157.095 56.691L155.417 56.897H155.266C155.266 56.1417 155.4 55.3178 155.467 54.4423C155.534 53.5669 155.585 52.7258 155.618 51.6958C155.652 50.6659 155.618 49.7733 155.736 48.7605C155.853 47.7477 155.736 46.735 155.736 45.7222C155.736 44.7094 155.736 43.6795 155.736 42.6839C155.736 41.6883 155.686 40.6926 155.686 39.7314ZM157.247 55.6954C157.638 55.7999 158.036 55.8745 158.438 55.9186C158.824 55.9186 159.21 55.9186 159.596 55.9186C160.25 55.926 160.9 55.8335 161.527 55.6439C162.105 55.4893 162.643 55.2081 163.104 54.82C163.563 54.438 163.925 53.9495 164.162 53.3952C164.423 52.7242 164.549 52.0059 164.531 51.2838C164.549 50.5934 164.417 49.9075 164.145 49.2755C163.899 48.713 163.518 48.2231 163.037 47.8507C162.498 47.4343 161.881 47.1362 161.225 46.9753C160.422 46.7793 159.599 46.6871 158.774 46.7006H158.22H157.666C157.666 47.0439 157.666 47.4559 157.666 47.9194C157.666 48.3829 157.666 48.8978 157.666 49.4128C157.666 49.9278 157.666 50.4942 157.666 51.1294C157.666 51.7645 157.666 52.2623 157.666 52.8459C157.666 53.4296 157.666 53.9102 157.666 54.408C157.666 54.9058 157.23 55.3178 157.23 55.6954H157.247ZM157.868 37.9805C157.868 38.3581 157.868 38.8044 157.868 39.3537C157.868 39.903 157.868 40.4867 157.868 41.1733C157.868 41.8599 157.868 42.5637 157.868 43.3533C157.868 44.1429 157.868 45.0699 157.868 45.8595C158.351 45.8486 158.834 45.8027 159.311 45.7222C159.777 45.6575 160.238 45.5542 160.687 45.4132C161.102 45.2663 161.502 45.0765 161.879 44.8467C162.243 44.6185 162.572 44.3348 162.853 44.0056C163.127 43.6618 163.343 43.273 163.491 42.8555C163.647 42.3742 163.72 41.869 163.709 41.3621C163.731 40.7743 163.627 40.1887 163.407 39.6455C163.218 39.2151 162.923 38.8423 162.551 38.5641C162.176 38.2763 161.748 38.0716 161.292 37.9633C160.778 37.8516 160.255 37.7941 159.731 37.7916H158.908C158.557 37.8293 158.21 37.8924 157.868 37.9805Z" fill="#FCE1E6"/>
<path d="M170.5 57H170.362C170.362 56.4409 170.362 55.8468 170.483 55.2527C170.603 54.6587 170.483 53.9423 170.603 53.2608C170.724 52.5794 170.603 51.9154 170.603 51.269C170.603 50.6225 170.603 49.9934 170.603 49.4168C170.603 48.8402 170.603 48.3335 170.603 47.8792C170.603 47.4249 170.603 47.058 170.603 46.7959C170.613 46.6097 170.613 46.4231 170.603 46.2368C170.587 46.1022 170.546 45.9719 170.483 45.8524C170.419 45.7495 170.33 45.6652 170.224 45.6078C170.07 45.5865 169.913 45.5865 169.759 45.6078H169.448H169.103H168.672L168.138 45.7476L168 45.1185C168.761 44.8274 169.538 44.5824 170.327 44.3847C170.717 44.2772 171.115 44.2071 171.517 44.175C171.669 44.1574 171.822 44.1785 171.964 44.2365C172.106 44.2945 172.23 44.3875 172.327 44.507C172.513 44.8034 172.598 45.1532 172.569 45.5029C172.569 45.5029 172.569 45.6602 172.569 45.8699C172.569 46.0795 172.569 46.3242 172.569 46.6387C172.569 46.9532 172.569 47.3201 172.569 47.7395C172.569 48.1588 172.569 48.6131 172.465 49.0849C172.362 49.5566 172.465 50.0633 172.345 50.5875L172.189 52.1426C172.465 50.9777 172.776 49.9119 173.12 48.9451C173.429 48.0526 173.821 47.1924 174.293 46.3766C174.66 45.7103 175.145 45.1181 175.724 44.6293C176.207 44.2203 176.818 43.9975 177.448 44.0003C177.659 43.9964 177.87 44.0319 178.069 44.1051C178.246 44.1727 178.41 44.2734 178.551 44.4022C178.689 44.5231 178.801 44.6719 178.879 44.839C178.964 45.0188 179.005 45.2164 179 45.4156C179.002 45.6764 178.943 45.9339 178.827 46.1669C178.709 46.4215 178.531 46.6433 178.31 46.8134C178.104 46.6275 177.872 46.4743 177.62 46.3591C177.4 46.2749 177.166 46.2334 176.931 46.2368C176.677 46.2307 176.424 46.2783 176.189 46.3766C175.942 46.4821 175.715 46.6299 175.517 46.8134C175.157 47.1628 174.85 47.563 174.603 48.0016C174.31 48.5349 174.056 49.0897 173.845 49.6615C173.603 50.273 173.396 50.902 173.207 51.566C173.017 52.2299 172.862 52.8764 172.724 53.5055C172.586 54.1345 172.483 54.746 172.396 55.2527C172.31 55.7594 172.258 56.2836 172.224 56.668L170.5 57Z" fill="#FCE1E6"/>
<path d="M186.613 47.758C186.626 47.354 186.546 46.9522 186.38 46.5812C186.249 46.2607 186.04 45.9757 185.769 45.7504C185.523 45.5421 185.236 45.3832 184.925 45.2832C184.619 45.1811 184.298 45.1285 183.974 45.1274C183.61 45.1165 183.247 45.1574 182.896 45.2485C182.633 45.3195 182.388 45.4434 182.178 45.612C182.002 45.7493 181.866 45.9281 181.783 46.1312C181.704 46.3481 181.661 46.5761 181.657 46.8061C181.659 47.0902 181.714 47.3716 181.819 47.6369C181.936 47.927 182.093 48.2006 182.286 48.4503C181.967 48.6189 181.609 48.7081 181.245 48.7099C181.054 48.7108 180.865 48.6755 180.688 48.606C180.512 48.5583 180.352 48.4691 180.221 48.3465C180.094 48.2271 179.99 48.0863 179.916 47.9311C179.842 47.7491 179.806 47.5552 179.808 47.36C179.808 47.0274 179.894 46.7002 180.059 46.4081C180.234 46.0947 180.465 45.8135 180.742 45.5774C181.039 45.3251 181.364 45.1046 181.711 44.9197C182.079 44.7207 182.463 44.5528 182.861 44.4178C183.251 44.2798 183.654 44.1755 184.064 44.1063C184.425 44.04 184.791 44.0052 185.159 44.0025C185.709 43.9843 186.257 44.0665 186.775 44.2448C187.189 44.3837 187.56 44.6219 187.852 44.937C188.142 45.2621 188.351 45.6469 188.463 46.062C188.607 46.5455 188.674 47.0474 188.66 47.5503C188.66 47.9311 188.66 48.3464 188.66 48.7964C188.66 49.2637 188.66 49.731 188.552 50.2329L188.445 51.7732C188.445 52.3097 188.445 52.8289 188.445 53.3654C188.396 54.0222 188.566 54.677 188.93 55.2345C189.069 55.4305 189.257 55.59 189.477 55.6988C189.696 55.8075 189.94 55.8621 190.186 55.8575C190.737 55.8334 191.271 55.6659 191.731 55.373L192 55.7364C191.622 56.1044 191.178 56.4035 190.689 56.619C190.221 56.8245 189.713 56.9307 189.199 56.9305C188.831 56.9326 188.465 56.868 188.122 56.7402C187.798 56.6071 187.505 56.4129 187.26 56.1691C187.015 55.8876 186.826 55.5649 186.703 55.2172C186.567 54.7912 186.5 54.3475 186.506 53.9019C186.506 53.7461 186.506 53.5904 186.506 53.4519V52.9673C186.243 53.4744 185.95 53.9656 185.626 54.4384C185.302 54.9019 184.929 55.3312 184.512 55.7191C184.129 56.0822 183.693 56.391 183.22 56.6363C182.78 56.871 182.286 56.9959 181.783 56.9998C181.395 57.0044 181.011 56.9337 180.652 56.7921C180.32 56.6637 180.02 56.4691 179.772 56.221C179.524 55.9714 179.329 55.6775 179.198 55.3556C179.065 55.0064 178.998 54.6372 179 54.2653C179 53.7901 179.098 53.3195 179.287 52.8808C179.485 52.4676 179.759 52.0924 180.095 51.7732C180.456 51.4252 180.875 51.1385 181.334 50.9251C181.833 50.6745 182.356 50.4716 182.896 50.3194C183.484 50.1551 184.084 50.0393 184.692 49.9733C185.329 49.8893 185.971 49.8488 186.613 49.8521C186.613 49.4887 186.703 49.1425 186.721 48.7964C186.739 48.4503 186.613 48.1734 186.613 47.758ZM181.119 53.6942C181.091 53.9126 181.091 54.1334 181.119 54.3518C181.167 54.5414 181.246 54.7225 181.352 54.8884C181.46 55.0442 181.609 55.1696 181.783 55.2518C181.972 55.3462 182.181 55.3938 182.394 55.3903C182.68 55.3831 182.961 55.3183 183.22 55.1999C183.53 55.0724 183.82 54.9035 184.082 54.698C184.372 54.4712 184.636 54.216 184.872 53.9365C185.394 53.3163 185.801 52.6137 186.075 51.8597C186.203 51.4657 186.287 51.0595 186.326 50.6482L185.015 50.7348C184.599 50.7827 184.185 50.8521 183.776 50.9425C183.398 51.0242 183.031 51.1461 182.681 51.3059C182.363 51.4412 182.071 51.6286 181.819 51.8597C181.572 52.0838 181.377 52.3549 181.245 52.6558C181.125 52.989 181.082 53.3434 181.119 53.6942Z" fill="#FCE1E6"/>
<path d="M191 56.434C191.122 56.2041 191.332 55.9034 191.595 55.5143L192.556 54.2585L193.728 52.7728L195.04 51.181L196.386 49.5891L197.663 48.1388C198.065 47.6789 198.415 47.2721 198.747 46.9184C199.079 46.5646 199.342 46.2816 199.534 46.0871L198.747 46.2109H197.908H196.771L195.792 46.1048H194.987H194.48C194.248 46.0998 194.018 46.1357 193.798 46.2109C193.592 46.2839 193.406 46.4051 193.256 46.5646C193.084 46.7639 192.959 46.9996 192.889 47.2544C192.777 47.5975 192.712 47.9546 192.696 48.3157H192.032C192.032 47.9973 192.032 47.6612 192.032 47.3429C192.014 47.0248 192.014 46.7059 192.032 46.3878C192.081 46.0999 192.151 45.8162 192.242 45.5388C192.325 45.2843 192.449 45.0453 192.609 44.8313C192.782 44.6322 192.997 44.4751 193.238 44.3714C193.537 44.2435 193.859 44.1831 194.183 44.1945C194.526 44.1705 194.871 44.1705 195.215 44.1945L196.421 44.3184L197.715 44.4599H199.009C199.443 44.4618 199.876 44.4263 200.303 44.3537C200.671 44.298 201.026 44.1783 201.353 44L201.842 44.4068C201.681 44.7302 201.5 45.0433 201.3 45.3442C201.073 45.7156 200.776 46.1224 200.461 46.5646C200.146 47.0068 199.779 47.4844 199.377 47.9796L198.17 49.5007L196.876 51.0395L195.617 52.5075L194.445 53.8163L193.466 54.8776L193.85 54.7538C193.991 54.6995 194.138 54.6638 194.288 54.6476H194.742H195.319C195.686 54.6212 196.054 54.6212 196.421 54.6476L197.47 54.8422L198.45 55.0191C198.744 55.0731 199.042 55.1026 199.342 55.1075C199.59 55.1095 199.838 55.0738 200.076 55.0014C200.306 54.9301 200.512 54.7954 200.671 54.6123C200.865 54.4043 201.014 54.1572 201.108 53.8871C201.241 53.5108 201.323 53.1182 201.353 52.7197H202C202.005 53.4269 201.935 54.1326 201.79 54.8245C201.704 55.292 201.525 55.7372 201.265 56.1333C201.064 56.4287 200.786 56.6614 200.461 56.8054C200.138 56.9342 199.794 57.0002 199.447 57C199.034 56.9972 198.623 56.9437 198.222 56.8408L196.876 56.5225C196.398 56.4046 195.926 56.2984 195.459 56.2041C194.994 56.1045 194.519 56.0571 194.043 56.0626C193.617 56.0582 193.192 56.1178 192.784 56.2395C192.354 56.3596 191.955 56.5706 191.612 56.8585L191 56.434Z" fill="#FCE1E6"/>
<path d="M89 71.1457H85.6805V80H84.3195V71.1457H81V70H89V71.1457Z" fill="#FCE1E6"/>
<path d="M94.85 78.9945C94.6746 79.1798 94.4648 79.3388 94.229 79.4652C93.9848 79.5937 93.7281 79.704 93.4619 79.7948C93.1873 79.874 92.9066 79.9369 92.6218 79.983C92.3363 80.0057 92.0489 80.0057 91.7634 79.983C91.2453 79.9881 90.7308 79.9083 90.2476 79.7477C89.7937 79.5942 89.3874 79.3525 89.0604 79.0416C88.7087 78.717 88.441 78.3319 88.2751 77.9119C88.0811 77.4059 87.9885 76.8754 88.0011 76.3428C87.991 75.8937 88.0777 75.4468 88.2568 75.0248C88.4087 74.6283 88.6579 74.2645 88.9874 73.9578C89.3071 73.6539 89.6997 73.4131 90.138 73.2518C90.6233 73.0768 91.1459 72.9913 91.6721 73.0007C92.1217 72.9941 92.5685 73.0634 92.9871 73.2047C93.3795 73.3301 93.735 73.5283 94.0281 73.7852C94.3315 74.0553 94.5676 74.3756 94.7221 74.7267C94.8971 75.1442 94.9837 75.5852 94.9778 76.029C95.0074 76.1479 95.0074 76.2709 94.9778 76.3899C94.9438 76.4228 94.9014 76.4485 94.8538 76.4649C94.8062 76.4812 94.7549 76.4878 94.7038 76.484H89.3709C89.3727 76.8619 89.4404 77.2374 89.5718 77.5981C89.6785 77.8914 89.8524 78.1635 90.0832 78.3983C90.296 78.6082 90.5657 78.7699 90.8685 78.869C91.1874 78.9796 91.5292 79.033 91.873 79.0259C92.175 79.0306 92.4762 78.9989 92.7679 78.9318L93.4254 78.6964C93.5839 78.6334 93.7366 78.56 93.882 78.4768C93.9728 78.4205 94.0806 78.3878 94.1925 78.3826C94.245 78.3807 94.2973 78.3897 94.345 78.4089C94.3927 78.428 94.4343 78.4566 94.4664 78.4924L94.85 78.9945ZM93.7176 75.8564C93.7252 75.6009 93.682 75.3462 93.5898 75.1032C93.5089 74.8814 93.3717 74.6777 93.188 74.507C93.0183 74.3375 92.8059 74.2034 92.567 74.1147C92.295 74.0182 92.0029 73.9702 91.7086 73.9735C91.421 73.962 91.1335 74.0005 90.8636 74.0868C90.5937 74.173 90.3469 74.3053 90.138 74.4756C89.7315 74.8584 89.4759 75.3416 89.4074 75.8564H93.7176Z" fill="#FCE1E6"/>
<path d="M97.1639 74.4841C97.3527 74.0692 97.6323 73.6983 97.9836 73.3966C98.2122 73.2242 98.4783 73.1035 98.7621 73.0434C99.0459 72.9834 99.3402 72.9856 99.623 73.0499C99.7556 73.0779 99.8828 73.1258 100 73.1918L99.9016 74.0901C99.8996 74.1129 99.8929 74.135 99.8818 74.1553C99.8708 74.1756 99.8557 74.1936 99.8374 74.2082C99.8191 74.2229 99.798 74.2339 99.7753 74.2407C99.7525 74.2475 99.7286 74.2498 99.7049 74.2477H99.4098C99.2684 74.2298 99.1251 74.2298 98.9836 74.2477C98.7825 74.2441 98.5825 74.2762 98.3934 74.3422C98.2154 74.4023 98.0531 74.4992 97.918 74.6259C97.7725 74.7581 97.6506 74.9125 97.5574 75.0829C97.4373 75.2798 97.3332 75.4853 97.2459 75.6976V80H96V73.1918H96.7213C96.8114 73.1605 96.91 73.1605 97 73.1918C97.0575 73.2649 97.0917 73.3525 97.0984 73.4439L97.1639 74.4841Z" fill="#FCE1E6"/>
<path d="M100.371 74.0586C100.763 73.7209 101.224 73.4518 101.73 73.2653C102.245 73.0797 102.797 72.9897 103.353 73.0009C103.74 72.9951 104.124 73.0586 104.482 73.1876C104.8 73.2996 105.084 73.4753 105.312 73.7008C105.549 73.9268 105.725 74.1983 105.823 74.4941C105.946 74.8306 106.005 75.1826 106 75.5361V79.8289H105.417C105.314 79.8557 105.203 79.8557 105.1 79.8289C105.058 79.8041 105.022 79.7719 104.995 79.7345C104.968 79.697 104.949 79.6551 104.941 79.6112L104.8 78.9735C104.61 79.1286 104.409 79.274 104.2 79.4089C104.017 79.5362 103.815 79.6409 103.6 79.72C103.388 79.8128 103.162 79.8807 102.93 79.9222C102.669 79.9745 102.403 80.0006 102.136 80C101.855 79.9965 101.576 79.9599 101.306 79.8911C101.056 79.8202 100.823 79.7094 100.618 79.5645C100.427 79.4049 100.271 79.2149 100.16 79.0045C100.046 78.7523 99.9924 78.4825 100.001 78.2113C100.007 77.9427 100.092 77.6802 100.248 77.4492C100.44 77.1719 100.715 76.9461 101.042 76.796C101.504 76.5833 101.997 76.4264 102.506 76.3294C103.226 76.1952 103.959 76.1274 104.694 76.1272V75.5984C104.734 75.1757 104.596 74.7549 104.306 74.4163C104.168 74.2782 103.996 74.1699 103.804 74.0998C103.611 74.0297 103.402 73.9996 103.194 74.0119C102.913 74.0015 102.631 74.0384 102.365 74.1208C102.161 74.1849 101.966 74.2683 101.783 74.3696L101.359 74.6185C101.255 74.6821 101.133 74.7197 101.007 74.7274C100.925 74.7261 100.846 74.7051 100.778 74.6666C100.709 74.6282 100.654 74.5739 100.618 74.5096L100.371 74.0586ZM104.694 76.8115C104.168 76.8219 103.643 76.8635 103.124 76.936C102.759 76.9811 102.403 77.0701 102.065 77.2004C101.832 77.284 101.625 77.4177 101.465 77.5892C101.347 77.7397 101.285 77.9193 101.289 78.1025C101.279 78.2568 101.309 78.4111 101.377 78.5535C101.44 78.672 101.53 78.7778 101.642 78.8646C101.761 78.9509 101.899 79.0145 102.047 79.0512C102.212 79.0673 102.377 79.0673 102.542 79.0512C102.752 79.0759 102.966 79.0759 103.177 79.0512C103.374 79.0202 103.564 78.9625 103.741 78.8801C103.916 78.7961 104.082 78.6971 104.235 78.5846C104.4 78.4724 104.554 78.3475 104.694 78.2113V76.8115Z" fill="#FCE1E6"/>
<path d="M109.341 74.2554C109.664 73.8887 110.056 73.5787 110.498 73.3403C110.958 73.1034 111.478 72.9862 112.005 73.0013C112.429 72.9893 112.851 73.0706 113.235 73.2386C113.611 73.4012 113.939 73.6454 114.19 73.9503C114.465 74.3047 114.67 74.7003 114.797 75.1197C114.942 75.6742 115.01 76.2438 114.999 76.8144C115.007 77.3257 114.926 77.8349 114.76 78.3226C114.629 78.7605 114.404 79.1697 114.099 79.5259C113.803 79.8637 113.434 80.1408 113.015 80.3393C112.567 80.5336 112.077 80.6321 111.582 80.6274C111.151 80.6383 110.724 80.5571 110.333 80.3902C109.979 80.2478 109.665 80.0335 109.414 79.7631V83H108V73.2047H108.845C108.932 73.1995 109.018 73.2244 109.086 73.2746C109.154 73.3247 109.199 73.3965 109.212 73.4758L109.341 74.2554ZM109.341 78.6785C109.55 78.9656 109.834 79.1989 110.168 79.3564C110.493 79.4817 110.843 79.5451 111.196 79.5428C111.522 79.5615 111.847 79.5046 112.142 79.3773C112.437 79.25 112.693 79.0564 112.886 78.8141C113.329 78.1988 113.542 77.4668 113.492 76.7296C113.497 76.3189 113.448 75.9092 113.345 75.5095C113.272 75.2082 113.142 74.9213 112.96 74.6621C112.795 74.4543 112.573 74.2906 112.317 74.1876C112.05 74.0819 111.762 74.0298 111.472 74.0351C111.053 74.027 110.639 74.1268 110.278 74.3232C109.91 74.534 109.591 74.8106 109.341 75.1366V78.6785Z" fill="#FCE1E6"/>
<path d="M121.871 78.9945C121.721 79.1798 121.541 79.3388 121.339 79.4652C121.13 79.5937 120.91 79.704 120.682 79.7948C120.446 79.874 120.206 79.9369 119.962 79.983C119.717 80.0057 119.471 80.0057 119.226 79.983C118.782 79.9881 118.341 79.9083 117.926 79.7477C117.537 79.5942 117.189 79.3525 116.909 79.0416C116.607 78.717 116.378 78.3319 116.236 77.9119C116.07 77.4059 115.99 76.8754 116.001 76.3428C115.992 75.8937 116.067 75.4468 116.22 75.0248C116.351 74.6322 116.559 74.2696 116.831 73.9578C117.115 73.6587 117.455 73.4187 117.833 73.2518C118.249 73.0768 118.697 72.9913 119.148 73.0007C119.533 72.9941 119.916 73.0634 120.275 73.2047C120.611 73.3301 120.916 73.5283 121.167 73.7852C121.427 74.0553 121.629 74.3756 121.762 74.7267C121.912 75.1442 121.986 75.5852 121.981 76.029C122.006 76.1479 122.006 76.2709 121.981 76.3899C121.952 76.4228 121.915 76.4485 121.875 76.4649C121.834 76.4812 121.79 76.4878 121.746 76.484H117.175C117.177 76.8619 117.235 77.2374 117.347 77.5981C117.439 77.8914 117.588 78.1635 117.786 78.3983C117.968 78.6082 118.199 78.7699 118.459 78.869C118.732 78.981 119.025 79.0344 119.32 79.0259C119.579 79.0306 119.837 78.9989 120.087 78.9318L120.65 78.6964C120.786 78.6334 120.917 78.56 121.042 78.4768C121.12 78.4205 121.212 78.3878 121.308 78.3826C121.351 78.3789 121.394 78.3872 121.433 78.4066C121.472 78.426 121.504 78.4557 121.527 78.4924L121.871 78.9945ZM120.901 75.8564C120.907 75.6009 120.87 75.3462 120.791 75.1032C120.722 74.8814 120.604 74.6777 120.447 74.507C120.299 74.3338 120.111 74.1992 119.899 74.1147C119.672 74.0168 119.426 73.9687 119.179 73.9735C118.932 73.962 118.686 74.0005 118.455 74.0868C118.223 74.173 118.012 74.3053 117.833 74.4756C117.478 74.854 117.257 75.3395 117.206 75.8564H120.901Z" fill="#FCE1E6"/>
<path d="M130 73V79.888H129.248C129.167 79.8934 129.087 79.8705 129.022 79.8235C128.957 79.7766 128.913 79.7088 128.897 79.6329L128.797 78.8994C128.496 79.2207 128.14 79.4903 127.744 79.6967C127.33 79.8993 126.872 80.0032 126.407 79.9996C126.051 80.0057 125.698 79.9406 125.371 79.8083C125.079 79.6851 124.818 79.506 124.602 79.2821C124.39 79.0406 124.236 78.7575 124.151 78.453C124.047 78.1111 123.996 77.7566 124 77.4007V73H125.27V77.4007C125.241 77.8281 125.372 78.2517 125.638 78.5965C125.781 78.7454 125.958 78.8614 126.155 78.936C126.351 79.0106 126.563 79.0417 126.774 79.027C127.134 79.0405 127.492 78.9635 127.811 78.8038C128.158 78.6311 128.466 78.3923 128.713 78.1022V73.0319L130 73Z" fill="#FCE1E6"/>
<path d="M134.093 79.9823C133.833 80.0006 133.572 79.9649 133.327 79.8775C133.083 79.7902 132.861 79.6533 132.676 79.4761C132.495 79.283 132.357 79.0566 132.269 78.8106C132.182 78.5645 132.147 78.304 132.168 78.0447V73.4365H131.223C131.158 73.4536 131.089 73.4536 131.023 73.4365C130.992 73.3639 130.992 73.2823 131.023 73.2096V72.686L132.313 72.5289L132.622 70.2073C132.636 70.1337 132.674 70.0664 132.731 70.0153C132.802 69.9949 132.878 69.9949 132.949 70.0153H133.639V72.6161H135.909V73.4365H133.548V77.9575C133.535 78.0832 133.549 78.2103 133.589 78.3305C133.63 78.4508 133.696 78.5615 133.784 78.6557C133.864 78.735 133.96 78.7977 134.066 78.8397C134.173 78.8818 134.287 78.9023 134.402 78.9001C134.528 78.9199 134.657 78.9199 134.783 78.9001C134.88 78.8736 134.972 78.8323 135.056 78.7779L135.255 78.6557C135.303 78.641 135.353 78.641 135.401 78.6557C135.401 78.6557 135.528 78.6557 135.582 78.7779L136 79.4063C135.752 79.6344 135.454 79.8072 135.128 79.9125C134.791 79.9968 134.44 80.0205 134.093 79.9823Z" fill="#FCE1E6"/>
<path d="M136.371 74.0586C136.76 73.7176 137.222 73.448 137.73 73.2654C138.238 73.0796 138.785 72.9896 139.335 73.001C139.728 72.9939 140.118 73.0574 140.482 73.1876C140.798 73.3034 141.081 73.4786 141.312 73.7009C141.549 73.9268 141.725 74.1983 141.823 74.4941C141.946 74.8307 142.005 75.1826 142 75.5362V79.8289H141.4C141.302 79.8553 141.198 79.8553 141.1 79.8289C141.058 79.8041 141.022 79.7719 140.995 79.7345C140.968 79.697 140.949 79.6551 140.941 79.6112L140.782 78.9735C140.602 79.132 140.407 79.2776 140.2 79.409C140.015 79.5331 139.813 79.6375 139.6 79.72C139.386 79.8104 139.161 79.8783 138.93 79.9222C138.669 79.9728 138.403 79.9989 138.136 80C137.855 79.9977 137.576 79.9611 137.306 79.8911C137.056 79.8202 136.823 79.7095 136.618 79.5645C136.42 79.4105 136.263 79.2191 136.16 79.0046C136.046 78.7523 135.992 78.4825 136.001 78.2113C135.997 77.9415 136.083 77.6766 136.248 77.4492C136.44 77.1719 136.715 76.9461 137.042 76.796C137.498 76.5833 137.985 76.4263 138.489 76.3294C139.214 76.1959 139.953 76.1281 140.694 76.1272V75.5984C140.734 75.1757 140.596 74.7549 140.306 74.4163C140.167 74.28 139.994 74.173 139.802 74.103C139.61 74.033 139.402 74.0019 139.194 74.0119C138.913 74.0015 138.631 74.0385 138.365 74.1208C138.161 74.1849 137.966 74.2683 137.783 74.3696L137.359 74.6185C137.255 74.6821 137.133 74.7197 137.007 74.7274C136.931 74.7452 136.852 74.7452 136.777 74.7274L136.601 74.5718L136.371 74.0586ZM140.694 76.8115C140.162 76.8228 139.632 76.8644 139.106 76.936C138.742 76.9856 138.387 77.0744 138.047 77.2004C137.821 77.2878 137.622 77.4211 137.465 77.5892C137.341 77.7383 137.274 77.9177 137.271 78.1025C137.267 78.258 137.303 78.4124 137.377 78.5535C137.44 78.672 137.53 78.7778 137.642 78.8646C137.759 78.9539 137.898 79.0179 138.047 79.0512C138.206 79.0673 138.366 79.0673 138.524 79.0512C138.741 79.0767 138.96 79.0767 139.177 79.0512C139.368 79.0212 139.553 78.9634 139.724 78.8802C139.905 78.7963 140.076 78.6973 140.235 78.5846L140.694 78.2113V76.8115Z" fill="#FCE1E6"/>
<path d="M154 71.1457H150.68V80H149.32V71.1457H146V70H153.934L154 71.1457Z" fill="#FCE1E6"/>
<path d="M155.18 74.493C155.368 74.0704 155.654 73.6957 156.016 73.3979C156.345 73.1272 156.766 72.9856 157.197 73.0012H157.639C157.766 73.0322 157.887 73.0803 158 73.144L157.902 74.0486C157.9 74.0716 157.893 74.0939 157.882 74.1143C157.871 74.1348 157.856 74.1529 157.837 74.1676C157.819 74.1824 157.798 74.1935 157.775 74.2003C157.753 74.2071 157.729 74.2095 157.705 74.2073H157.41C157.268 74.1894 157.125 74.1894 156.984 74.2073C156.783 74.2037 156.582 74.236 156.393 74.3025C156.217 74.3668 156.056 74.4638 155.918 74.5882C155.772 74.7213 155.651 74.8769 155.557 75.0484C155.436 75.2439 155.337 75.4514 155.262 75.6674V80H154V73.144H154.721C154.811 73.1125 154.91 73.1125 155 73.144C155.058 73.2176 155.092 73.3058 155.098 73.3979L155.18 74.493Z" fill="#FCE1E6"/>
<path d="M158.371 74.0586C158.763 73.7209 159.224 73.4518 159.73 73.2653C160.245 73.0797 160.797 72.9897 161.353 73.0009C161.74 72.9951 162.124 73.0586 162.482 73.1876C162.8 73.2996 163.084 73.4753 163.312 73.7008C163.549 73.9268 163.725 74.1983 163.823 74.4941C163.946 74.8306 164.005 75.1826 164 75.5361V79.8289H163.417C163.32 79.8574 163.215 79.8574 163.117 79.8289C163.073 79.8049 163.034 79.7733 163.004 79.7358C162.974 79.6984 162.952 79.656 162.941 79.6112L162.8 78.9735C162.61 79.1286 162.409 79.274 162.2 79.4089C162.017 79.5362 161.815 79.6409 161.6 79.72C161.388 79.8128 161.162 79.8807 160.93 79.9222C160.669 79.9745 160.403 80.0006 160.136 80C159.855 79.9954 159.576 79.9588 159.306 79.8911C159.056 79.8202 158.823 79.7094 158.618 79.5645C158.432 79.4009 158.277 79.2118 158.16 79.0045C158.046 78.7523 157.992 78.4825 158.001 78.2113C158.007 77.9427 158.092 77.6802 158.248 77.4492C158.44 77.1719 158.715 76.9461 159.042 76.796C159.504 76.5833 159.997 76.4264 160.506 76.3294C161.226 76.1952 161.959 76.1274 162.694 76.1272V75.5984C162.734 75.1757 162.596 74.7549 162.306 74.4163C162.168 74.2782 161.996 74.1699 161.804 74.0998C161.611 74.0297 161.402 73.9996 161.194 74.0119C160.946 73.9916 160.696 74.0073 160.453 74.0586C160.25 74.1227 160.054 74.2061 159.871 74.3074L159.448 74.5563C159.345 74.6221 159.222 74.66 159.095 74.6651C159.014 74.6639 158.934 74.6428 158.866 74.6044C158.797 74.566 158.742 74.5117 158.707 74.4474L158.371 74.0586ZM162.694 76.8115C162.168 76.8219 161.643 76.8635 161.124 76.936C160.759 76.9811 160.403 77.0701 160.065 77.2004C159.832 77.284 159.625 77.4177 159.465 77.5892C159.347 77.7397 159.285 77.9193 159.289 78.1025C159.259 78.2517 159.259 78.4043 159.289 78.5535C159.352 78.672 159.442 78.7778 159.553 78.8646C159.673 78.9509 159.811 79.0145 159.959 79.0512C160.123 79.0673 160.289 79.0673 160.453 79.0512C160.664 79.0759 160.878 79.0759 161.088 79.0512C161.286 79.0202 161.476 78.9625 161.653 78.8801C161.828 78.7961 161.994 78.6971 162.147 78.5846C162.312 78.4724 162.466 78.3475 162.606 78.2113L162.694 76.8115Z" fill="#FCE1E6"/>
<path d="M167.213 74.0549C167.363 73.885 167.53 73.7301 167.712 73.5926C167.885 73.463 168.069 73.3458 168.26 73.242C168.464 73.1511 168.675 73.0765 168.892 73.0189C169.124 72.9937 169.358 72.9937 169.59 73.0189C169.948 73.0064 170.305 73.0661 170.637 73.1942C170.924 73.3132 171.18 73.493 171.385 73.7201C171.588 73.9688 171.746 74.2491 171.85 74.549C171.953 74.8962 172.004 75.2558 172 75.6168V80H170.737V75.6168C170.763 75.1824 170.628 74.753 170.354 74.4055C170.213 74.2557 170.037 74.1391 169.841 74.0645C169.646 73.9899 169.434 73.9593 169.224 73.9752C168.863 73.9707 168.508 74.0587 168.194 74.2302C167.854 74.4118 167.55 74.6492 167.296 74.9315V80H166V73.1145H166.765C166.843 73.1096 166.921 73.133 166.982 73.1802C167.044 73.2274 167.085 73.2949 167.097 73.3695L167.213 74.0549Z" fill="#FCE1E6"/>
<path d="M177.608 74.0936C177.586 74.142 177.549 74.1829 177.503 74.2111C177.456 74.2393 177.402 74.2535 177.348 74.2519C177.273 74.2694 177.195 74.2694 177.12 74.2519L176.794 74.0936C176.649 74.0207 176.496 73.9623 176.338 73.9194C176.133 73.8932 175.925 73.8932 175.719 73.9194C175.53 73.893 175.338 73.893 175.149 73.9194C174.994 73.964 174.85 74.0395 174.726 74.1411C174.613 74.2213 174.519 74.3238 174.449 74.4419C174.384 74.5643 174.351 74.7001 174.352 74.8378C174.353 74.9992 174.41 75.1556 174.514 75.2811C174.633 75.4016 174.77 75.5032 174.921 75.582C175.112 75.668 175.308 75.7421 175.508 75.8037L176.175 76.0095L176.843 76.2629C177.056 76.3413 177.254 76.4537 177.429 76.5954C177.603 76.7292 177.747 76.8963 177.852 77.0863C177.957 77.3095 178.008 77.5534 177.999 77.7988C178.005 78.0967 177.949 78.3928 177.836 78.6697C177.716 78.9356 177.538 79.1731 177.315 79.3664C177.07 79.5685 176.789 79.7243 176.485 79.8256C176.117 79.9448 175.732 80.0037 175.345 79.9998C174.888 80.0049 174.435 79.9242 174.01 79.7622C173.638 79.6234 173.296 79.4194 173 79.1606L173.293 78.7013L173.423 78.5747C173.487 78.5562 173.555 78.5562 173.619 78.5747C173.713 78.5802 173.804 78.6133 173.879 78.6697L174.221 78.8755C174.371 78.9595 174.529 79.0285 174.693 79.0814C174.926 79.1494 175.167 79.1814 175.41 79.1764C175.626 79.1808 175.841 79.1487 176.045 79.0814C176.208 79.035 176.358 78.9539 176.485 78.8439C176.604 78.7447 176.699 78.6201 176.761 78.4797C176.788 78.3383 176.788 78.1935 176.761 78.0522C176.77 77.8797 176.712 77.7104 176.599 77.5771C176.484 77.4482 176.346 77.3409 176.192 77.2604C176.004 77.169 175.807 77.0948 175.605 77.0387L174.938 76.8329L174.254 76.5795C174.041 76.4943 173.843 76.3767 173.668 76.2312C173.498 76.0911 173.359 75.9187 173.261 75.7245C173.152 75.4908 173.096 75.2369 173.098 74.9803C173.101 74.7174 173.162 74.4582 173.277 74.2202C173.389 73.9765 173.556 73.7602 173.765 73.5869C173.998 73.401 174.263 73.2562 174.547 73.1593C174.887 73.0455 175.246 72.9919 175.605 73.001C176.028 72.9909 176.448 73.0608 176.843 73.2068C177.2 73.3391 177.526 73.5381 177.804 73.7927L177.608 74.0936Z" fill="#FCE1E6"/>
<path d="M181.149 74.2553C181.426 73.8886 181.762 73.5786 182.141 73.3402C182.529 73.1039 182.97 72.9866 183.416 73.0012C183.785 72.9897 184.152 73.071 184.487 73.2385C184.806 73.4059 185.086 73.6493 185.305 73.9503C185.541 74.3018 185.712 74.6987 185.809 75.1196C185.948 75.6717 186.012 76.2425 185.998 76.8143C186.005 77.3256 185.936 77.8349 185.794 78.3226C185.677 78.7618 185.479 79.1711 185.211 79.5258C184.963 79.8633 184.652 80.1405 184.298 80.3393C183.908 80.5323 183.483 80.6306 183.054 80.6274C182.705 80.637 182.358 80.5647 182.037 80.4155C181.716 80.2662 181.429 80.0436 181.196 79.7631V83H180V73.2046H180.724C180.798 73.203 180.87 73.2292 180.927 73.2788C180.985 73.3283 181.024 73.398 181.039 73.4757L181.149 74.2553ZM181.149 78.6785C181.333 78.9668 181.583 79.2 181.873 79.3564C182.147 79.4817 182.442 79.5451 182.739 79.5428C183.021 79.5628 183.302 79.5067 183.558 79.3794C183.813 79.252 184.036 79.0577 184.203 78.8141C184.583 78.1987 184.765 77.4668 184.723 76.7296C184.727 76.3189 184.685 75.9092 184.597 75.5094C184.534 75.2081 184.422 74.9212 184.266 74.662C184.125 74.4542 183.935 74.2905 183.715 74.1875C183.487 74.0818 183.24 74.0298 182.991 74.035C182.632 74.0269 182.278 74.1267 181.968 74.3231C181.651 74.5379 181.373 74.8137 181.149 75.1366V78.6785Z" fill="#FCE1E6"/>
<path d="M193.87 78.9941C193.694 79.1793 193.483 79.3384 193.247 79.4648C193.002 79.5932 192.745 79.7035 192.478 79.7943C192.202 79.8735 191.921 79.9364 191.635 79.9825C191.343 80.0058 191.048 80.0058 190.756 79.9825C190.242 79.9864 189.733 79.9065 189.254 79.7472C188.799 79.5937 188.391 79.3521 188.063 79.0412C187.703 78.7212 187.434 78.3347 187.276 77.9115C187.081 77.4056 186.988 76.8751 187.001 76.3426C186.994 75.8949 187.074 75.4494 187.239 75.0246C187.406 74.6338 187.654 74.2723 187.972 73.9578C188.305 73.6586 188.703 73.4187 189.144 73.2517C189.631 73.0768 190.155 72.9913 190.683 73.0007C191.134 72.9941 191.582 73.0634 192.001 73.2047C192.395 73.3301 192.752 73.5283 193.046 73.7852C193.35 74.0552 193.587 74.3755 193.742 74.7266C193.911 75.145 193.991 75.586 193.98 76.0288C194.007 76.1479 194.007 76.2705 193.98 76.3896C193.946 76.4226 193.903 76.4482 193.855 76.4646C193.808 76.4809 193.756 76.4875 193.705 76.4838H188.375C188.368 76.8622 188.436 77.2389 188.576 77.5977C188.683 77.891 188.858 78.1631 189.089 78.3979C189.299 78.6039 189.563 78.7651 189.858 78.8686C190.185 78.9792 190.533 79.0325 190.884 79.0255C191.187 79.0301 191.489 78.9985 191.782 78.9313L192.441 78.696C192.597 78.6368 192.744 78.5631 192.881 78.4763C192.979 78.4216 193.093 78.3892 193.21 78.3822C193.261 78.3785 193.311 78.3868 193.357 78.4062C193.402 78.4256 193.44 78.4553 193.467 78.492L193.87 78.9941ZM192.734 75.8562C192.742 75.6007 192.698 75.346 192.606 75.1031C192.52 74.883 192.383 74.6802 192.203 74.5069C192.029 74.3337 191.809 74.1991 191.562 74.1147C191.296 74.0168 191.009 73.9686 190.719 73.9734C190.431 73.9619 190.143 74.0004 189.872 74.0867C189.601 74.173 189.354 74.3052 189.144 74.4755C188.723 74.8504 188.464 75.3377 188.412 75.8562H192.734Z" fill="#FCE1E6"/>
<path d="M199.594 74.2189C199.577 74.2662 199.543 74.3068 199.499 74.3347C199.455 74.3625 199.403 74.376 199.351 74.3731C199.271 74.3927 199.187 74.3927 199.107 74.3731L198.782 74.2189C198.637 74.148 198.485 74.0912 198.328 74.0493C198.123 74.0227 197.916 74.0227 197.711 74.0493C197.522 74.0248 197.331 74.0248 197.143 74.0493C196.99 74.0964 196.847 74.1696 196.721 74.2652C196.609 74.3395 196.519 74.4405 196.461 74.5581C196.396 74.6773 196.363 74.8096 196.364 74.9436C196.36 75.099 196.411 75.2511 196.51 75.3754C196.634 75.4924 196.777 75.5911 196.932 75.6683C197.119 75.7574 197.315 75.8296 197.516 75.8842L198.182 76.0847L198.847 76.3314C199.056 76.415 199.252 76.5238 199.432 76.6552C199.599 76.7871 199.737 76.9496 199.838 77.1332C199.948 77.3493 200.003 77.5869 200 77.8271C200 78.1182 199.94 78.4065 199.821 78.6751C199.707 78.9372 199.529 79.1697 199.302 79.3536C199.058 79.5504 198.777 79.7021 198.474 79.8007C197.681 80.0664 196.816 80.0664 196.023 79.8007C195.647 79.6672 195.3 79.4685 195 79.2148L195.292 78.7676L195.422 78.6443C195.486 78.6263 195.553 78.6263 195.617 78.6443C195.712 78.6476 195.803 78.6801 195.877 78.7368L196.217 78.9373C196.371 79.0217 196.535 79.0889 196.704 79.1377C196.93 79.2052 197.166 79.2365 197.403 79.2302C197.618 79.2346 197.832 79.2032 198.036 79.1377C198.247 79.0493 198.431 78.9114 198.571 78.7368C198.686 78.6397 198.775 78.5182 198.831 78.3822C198.865 78.2452 198.865 78.1027 198.831 77.9658C198.837 77.8006 198.786 77.6381 198.685 77.5032C198.561 77.3812 198.419 77.2772 198.263 77.1949C198.076 77.1058 197.88 77.0336 197.678 76.979L197.013 76.7785L196.347 76.5318C196.131 76.456 195.933 76.3408 195.763 76.1926C195.573 76.0492 195.422 75.864 195.325 75.6529C195.222 75.424 195.172 75.1769 195.179 74.9282C195.176 74.6733 195.231 74.4209 195.341 74.1881C195.459 73.9539 195.624 73.7442 195.828 73.5713C196.06 73.3903 196.324 73.2494 196.607 73.155C196.947 73.0454 197.304 72.9932 197.662 73.0008C198.089 72.9917 198.513 73.0597 198.912 73.2013C199.263 73.3304 199.583 73.5243 199.854 73.7718L199.594 74.2189Z" fill="#FCE1E6"/>
<path d="M205.608 74.0936C205.586 74.142 205.549 74.1829 205.503 74.2111C205.456 74.2393 205.402 74.2535 205.348 74.2519C205.273 74.2694 205.195 74.2694 205.12 74.2519L204.794 74.0936C204.649 74.0207 204.496 73.9623 204.338 73.9194C204.133 73.8932 203.925 73.8932 203.719 73.9194C203.53 73.893 203.338 73.893 203.149 73.9194C202.994 73.964 202.85 74.0395 202.726 74.1411C202.613 74.2213 202.519 74.3238 202.449 74.4419C202.384 74.5643 202.351 74.7001 202.352 74.8378C202.353 74.9992 202.41 75.1556 202.514 75.2811C202.633 75.4016 202.77 75.5032 202.921 75.582C203.112 75.668 203.308 75.7421 203.508 75.8037L204.175 76.0095L204.843 76.2629C205.056 76.3413 205.254 76.4537 205.429 76.5954C205.603 76.7292 205.747 76.8963 205.852 77.0863C205.957 77.3095 206.008 77.5534 205.999 77.7988C206.005 78.0967 205.949 78.3928 205.836 78.6697C205.716 78.9356 205.538 79.1731 205.315 79.3664C205.07 79.5685 204.789 79.7243 204.485 79.8256C204.117 79.9448 203.732 80.0037 203.345 79.9998C202.888 80.0049 202.435 79.9242 202.01 79.7622C201.638 79.6234 201.296 79.4194 201 79.1606L201.293 78.7013L201.423 78.5747C201.487 78.5562 201.555 78.5562 201.619 78.5747C201.713 78.5802 201.804 78.6133 201.879 78.6697L202.221 78.8755C202.371 78.9595 202.529 79.0285 202.693 79.0814C202.926 79.1494 203.167 79.1814 203.41 79.1764C203.626 79.1808 203.841 79.1487 204.045 79.0814C204.208 79.035 204.358 78.9539 204.485 78.8439C204.604 78.7447 204.699 78.6201 204.762 78.4797C204.788 78.3383 204.788 78.1935 204.762 78.0522C204.77 77.8797 204.712 77.7104 204.599 77.5771C204.484 77.4482 204.346 77.3409 204.192 77.2604C204.004 77.169 203.807 77.0948 203.605 77.0387L202.938 76.8329L202.254 76.5795C202.041 76.4943 201.843 76.3767 201.668 76.2312C201.498 76.0911 201.359 75.9187 201.261 75.7245C201.152 75.4908 201.096 75.2369 201.098 74.9803C201.101 74.7174 201.162 74.4582 201.277 74.2202C201.389 73.9765 201.556 73.7602 201.765 73.5869C201.998 73.401 202.263 73.2562 202.547 73.1593C202.887 73.0455 203.246 72.9919 203.605 73.001C204.028 72.9909 204.448 73.0608 204.843 73.2068C205.2 73.3391 205.526 73.5381 205.804 73.7927L205.608 74.0936Z" fill="#FCE1E6"/>
<path d="M210.508 73.0005C211.002 72.9925 211.494 73.0728 211.955 73.237C212.381 73.3988 212.763 73.6449 213.075 73.9581C213.387 74.2712 213.621 74.6438 213.76 75.0497C213.93 75.5166 214.011 76.0073 213.999 76.4998C214.012 76.9924 213.931 77.4834 213.76 77.95C213.611 78.358 213.374 78.7336 213.062 79.0533C212.755 79.3595 212.376 79.5968 211.955 79.7469C211.497 79.9239 211.004 80.0098 210.508 79.9991C210.006 80.0084 209.508 79.9225 209.044 79.7469C208.625 79.5925 208.247 79.3559 207.937 79.0533C207.629 78.7306 207.392 78.3559 207.239 77.95C207.076 77.4816 206.995 76.9919 207 76.4998C206.998 76.0079 207.078 75.5186 207.239 75.0497C207.387 74.6416 207.625 74.2661 207.937 73.9463C208.251 73.644 208.627 73.4029 209.044 73.237C209.511 73.0742 210.008 72.994 210.508 73.0005ZM210.508 79.0691C210.817 79.0874 211.126 79.0352 211.408 78.917C211.69 78.7988 211.936 78.6183 212.125 78.3913C212.483 77.8157 212.67 77.1636 212.67 76.4998C212.67 75.8361 212.483 75.1839 212.125 74.6083C211.936 74.3813 211.69 74.2008 211.408 74.0826C211.126 73.9644 210.817 73.9122 210.508 73.9305C210.18 73.9252 209.855 73.9843 209.554 74.1039C209.286 74.2174 209.052 74.3907 208.873 74.6083C208.674 74.8506 208.534 75.1304 208.465 75.428C208.364 75.7774 208.318 76.1383 208.328 76.4998C208.281 77.1686 208.473 77.8331 208.873 78.3913C209.066 78.6185 209.315 78.7989 209.6 78.917C209.885 79.0351 210.196 79.0873 210.508 79.0691Z" fill="#FCE1E6"/>
<path d="M215.371 74.0588C215.76 73.7178 216.222 73.4482 216.73 73.2656C217.244 73.0782 217.797 72.9882 218.353 73.0012C218.74 72.9954 219.124 73.0589 219.482 73.1879C219.798 73.3037 220.081 73.4788 220.312 73.7011C220.549 73.927 220.725 74.1986 220.823 74.4943C220.946 74.8309 221.005 75.1828 221 75.5363V79.8289H220.4C220.302 79.8553 220.198 79.8553 220.1 79.8289C220.058 79.8041 220.022 79.7719 219.995 79.7345C219.968 79.697 219.949 79.6551 219.941 79.6112L219.782 78.9735C219.602 79.132 219.407 79.2776 219.2 79.409C219.015 79.5331 218.813 79.6375 218.6 79.72C218.386 79.8104 218.161 79.8783 217.93 79.9222C217.669 79.9728 217.403 79.9989 217.136 80C216.855 79.9977 216.576 79.9611 216.306 79.8911C216.056 79.8202 215.823 79.7095 215.618 79.5645C215.42 79.4105 215.263 79.2192 215.16 79.0046C215.046 78.7524 214.992 78.4826 215.001 78.2114C214.997 77.9416 215.083 77.6767 215.248 77.4493C215.44 77.172 215.715 76.9462 216.042 76.7961C216.498 76.5834 216.985 76.4264 217.489 76.3295C218.214 76.196 218.953 76.1283 219.694 76.1273V75.5986C219.734 75.1759 219.596 74.7551 219.306 74.4165C219.167 74.2803 218.994 74.1732 218.802 74.1033C218.61 74.0333 218.402 74.0022 218.194 74.0122C217.913 74.0018 217.631 74.0387 217.365 74.121C217.161 74.1851 216.966 74.2686 216.783 74.3699L216.359 74.6187C216.255 74.6823 216.133 74.7199 216.007 74.7276C215.931 74.7434 215.853 74.7434 215.777 74.7276L215.601 74.5721L215.371 74.0588ZM219.694 76.8117C219.168 76.8221 218.643 76.8636 218.124 76.9361C217.754 76.9838 217.392 77.0727 217.047 77.2005C216.821 77.288 216.622 77.4212 216.465 77.5893C216.341 77.7384 216.274 77.9178 216.271 78.1026C216.267 78.2581 216.303 78.4124 216.377 78.5536C216.44 78.672 216.53 78.7779 216.642 78.8646C216.759 78.954 216.898 79.0179 217.047 79.0513C217.212 79.0683 217.377 79.0683 217.541 79.0513C217.752 79.0759 217.966 79.0759 218.177 79.0513C218.368 79.0213 218.553 78.9634 218.724 78.8802C218.905 78.7964 219.076 78.6974 219.235 78.5847L219.694 78.2114V76.8117Z" fill="#FCE1E6"/>
<path d="M224 69V80H223V69H224Z" fill="#FCE1E6"/>
<path d="M235.411 71.6197L235.251 71.7653C235.223 71.776 235.193 71.7815 235.163 71.7815C235.132 71.7815 235.102 71.776 235.074 71.7653C234.961 71.7539 234.855 71.7084 234.773 71.6359L234.33 71.3771L233.711 71.1183C233.423 71.0433 233.125 71.0052 232.825 71.005C232.53 71.0019 232.236 71.0457 231.957 71.1344C231.723 71.2007 231.506 71.3109 231.32 71.4579C231.157 71.5917 231.03 71.7577 230.948 71.9432C230.861 72.1325 230.819 72.3365 230.824 72.5418C230.816 72.788 230.89 73.0306 231.037 73.2374C231.205 73.4213 231.409 73.5749 231.639 73.6903C231.897 73.8289 232.17 73.9428 232.453 74.03L233.41 74.3212L234.366 74.6609C234.666 74.788 234.946 74.9512 235.198 75.1462C235.469 75.3619 235.682 75.6317 235.82 75.9347C235.958 76.2377 236.018 76.5657 235.995 76.8932C236 77.3071 235.922 77.7182 235.765 78.1065C235.605 78.4761 235.364 78.8119 235.057 79.0933C234.729 79.3785 234.344 79.6036 233.923 79.7565C233.43 79.9233 232.908 80.0056 232.382 79.9992C231.724 80.0114 231.071 79.8899 230.47 79.6433C229.914 79.4262 229.414 79.1068 229 78.705L229.407 78.0741L229.567 77.9447C229.63 77.9281 229.698 77.9281 229.761 77.9447C229.831 77.9259 229.905 77.9259 229.974 77.9447L230.257 78.1388L230.629 78.3653C230.767 78.4684 230.923 78.5504 231.09 78.608C231.276 78.692 231.472 78.757 231.674 78.8021C231.921 78.8276 232.171 78.8276 232.418 78.8021C232.737 78.8668 233.067 78.8832 233.392 78.8506C233.648 78.7721 233.883 78.6454 234.083 78.4786C234.274 78.3257 234.421 78.1309 234.508 77.9124C234.618 77.6775 234.672 77.4238 234.667 77.1683C234.68 76.9091 234.599 76.6533 234.437 76.4403C234.29 76.2399 234.089 76.0781 233.852 75.9712C233.59 75.8298 233.311 75.7158 233.02 75.6315L232.081 75.3565C231.763 75.2594 231.444 75.1624 231.125 75.033C230.823 74.9097 230.542 74.7461 230.293 74.5477C230.047 74.3366 229.849 74.0838 229.708 73.8036C229.555 73.4542 229.483 73.0797 229.496 72.7035C229.496 72.3599 229.568 72.0195 229.708 71.7006C229.866 71.3751 230.088 71.079 230.364 70.8271C230.667 70.5689 231.022 70.3658 231.408 70.2285C231.864 70.0631 232.353 69.986 232.843 70.0021C233.405 69.9929 233.964 70.0807 234.49 70.2609C234.978 70.4323 235.423 70.6907 235.8 71.0212L235.411 71.6197Z" fill="#FCE1E6"/>
<path d="M238.976 69.9719C239.003 70.0945 239.003 70.2207 238.976 70.3433C238.93 70.457 238.856 70.5599 238.759 70.644C238.656 70.7291 238.536 70.7953 238.404 70.8385C238.276 70.8961 238.134 70.9261 237.99 70.9261C237.846 70.9261 237.705 70.8961 237.576 70.8385C237.453 70.7906 237.34 70.7249 237.241 70.644C237.157 70.5506 237.085 70.4499 237.024 70.3433C236.996 70.2208 236.996 70.0944 237.024 69.9719C236.992 69.8498 236.992 69.7226 237.024 69.6005C237.08 69.4861 237.153 69.379 237.241 69.2821C237.335 69.1953 237.449 69.1288 237.576 69.0876C237.705 69.03 237.846 69 237.99 69C238.134 69 238.276 69.03 238.404 69.0876C238.538 69.1263 238.66 69.1931 238.759 69.2822C238.858 69.3714 238.933 69.4805 238.976 69.6005C239.008 69.7226 239.008 69.8498 238.976 69.9719ZM238.661 72.3596V80H237.162V72.3596H238.661Z" fill="#FCE1E6"/>
<path d="M244.608 74.1855C244.588 74.2346 244.551 74.2761 244.505 74.3041C244.458 74.3321 244.403 74.3452 244.348 74.3414C244.273 74.3586 244.195 74.3586 244.12 74.3414L243.794 74.1855C243.649 74.1138 243.496 74.0563 243.338 74.014C243.133 73.9871 242.925 73.9871 242.719 74.014C242.53 73.9892 242.339 73.9892 242.149 74.014C241.994 74.058 241.85 74.1323 241.726 74.2323C241.614 74.3074 241.524 74.4095 241.466 74.5284C241.401 74.6489 241.367 74.7826 241.368 74.9181C241.364 75.0752 241.416 75.2289 241.514 75.3546C241.639 75.4728 241.782 75.5726 241.938 75.6507C242.126 75.7407 242.322 75.8138 242.524 75.8689L243.192 76.0716L243.859 76.321C244.069 76.4055 244.266 76.5155 244.445 76.6483C244.611 76.7844 244.749 76.9481 244.853 77.1316C244.957 77.3513 245.008 77.5915 244.999 77.833C245.005 78.1263 244.949 78.4177 244.836 78.6903C244.722 78.9553 244.543 79.1903 244.315 79.3762C244.07 79.5752 243.789 79.7285 243.485 79.8282C243.118 79.9468 242.732 80.0048 242.345 79.9997C241.888 80.0047 241.435 79.9253 241.01 79.7659C240.638 79.6291 240.296 79.4284 240 79.1735L240.293 78.7215C240.328 78.6724 240.372 78.6301 240.423 78.5968C240.487 78.5786 240.555 78.5786 240.619 78.5968C240.714 78.6001 240.805 78.633 240.879 78.6903L241.221 78.893C241.375 78.9783 241.539 79.0463 241.71 79.0956C241.936 79.1638 242.173 79.1955 242.41 79.1891C242.626 79.1935 242.841 79.1619 243.045 79.0956C243.227 79.0157 243.388 78.8987 243.517 78.7527C243.627 78.6504 243.716 78.5287 243.778 78.3942C243.812 78.2558 243.812 78.1117 243.778 77.9733C243.784 77.8063 243.732 77.642 243.631 77.5057C243.507 77.3822 243.364 77.2772 243.208 77.1939C243.02 77.1039 242.824 77.0309 242.622 76.9757L241.954 76.773L241.286 76.5236C241.07 76.447 240.87 76.3305 240.7 76.1807C240.521 76.0473 240.377 75.8767 240.277 75.6819C240.174 75.4505 240.124 75.2007 240.13 74.9493C240.128 74.6916 240.183 74.4364 240.293 74.2011C240.411 73.9643 240.577 73.7523 240.782 73.5776C241.014 73.3945 241.279 73.2521 241.563 73.1567C241.904 73.0459 242.262 72.9932 242.622 73.0008C243.049 72.9916 243.475 73.0604 243.875 73.2035C244.227 73.334 244.548 73.53 244.82 73.7802L244.608 74.1855Z" fill="#FCE1E6"/>
<path d="M249.045 79.9733C248.788 79.9865 248.531 79.9484 248.29 79.8615C248.048 79.7746 247.828 79.6406 247.641 79.4675C247.296 79.071 247.123 78.5574 247.161 78.0374V73.4333H246.236C246.166 73.4503 246.093 73.4503 246.023 73.4333C245.992 73.3607 245.992 73.2791 246.023 73.2065V72.6834L247.267 72.5264L247.587 70.2069C247.601 70.1334 247.638 70.0661 247.694 70.015C247.757 69.995 247.826 69.995 247.889 70.015H248.583V72.6136H250.822V73.4333H248.618V77.9502C248.605 78.0759 248.619 78.2028 248.659 78.323C248.698 78.4431 248.763 78.5537 248.849 78.6478C248.927 78.7271 249.021 78.7897 249.125 78.8317C249.229 78.8737 249.341 78.8942 249.454 78.892C249.577 78.9118 249.703 78.9118 249.827 78.892L250.093 78.7699L250.289 78.6478C250.335 78.6332 250.385 78.6332 250.431 78.6478C250.469 78.6523 250.505 78.6658 250.536 78.6871C250.567 78.7084 250.592 78.7368 250.609 78.7699L251 79.3977C250.761 79.6218 250.476 79.7941 250.165 79.9035C249.8 80.0014 249.419 80.0251 249.045 79.9733Z" fill="#FCE1E6"/>
<path d="M257.87 78.9661C257.694 79.1565 257.483 79.3199 257.247 79.4499C257.002 79.5819 256.745 79.6952 256.478 79.7885C256.202 79.87 255.921 79.9347 255.635 79.982C255.343 80.006 255.048 80.006 254.756 79.982C254.242 79.986 253.733 79.9039 253.254 79.7401C252.799 79.5824 252.391 79.334 252.063 79.0145C251.711 78.6808 251.442 78.2851 251.276 77.8534C251.081 77.3334 250.988 76.7881 251.001 76.2408C250.991 75.7792 251.078 75.3199 251.258 74.8862C251.411 74.4828 251.654 74.1101 251.972 73.7896C252.305 73.4822 252.703 73.2356 253.144 73.064C253.631 72.8842 254.155 72.7963 254.683 72.8059C255.134 72.7991 255.582 72.8703 256.001 73.0156C256.395 73.1445 256.752 73.3482 257.046 73.6122C257.35 73.8898 257.587 74.219 257.742 74.5798C257.911 75.0099 257.991 75.4632 257.98 75.9183C258.007 76.0407 258.007 76.1667 257.98 76.2892C257.946 76.323 257.903 76.3494 257.855 76.3662C257.808 76.383 257.756 76.3898 257.705 76.3859H252.43C252.432 76.7743 252.5 77.1602 252.631 77.5309C252.738 77.8324 252.913 78.112 253.144 78.3533C253.354 78.5651 253.618 78.7308 253.913 78.8371C254.24 78.9508 254.588 79.0056 254.939 78.9983C255.242 79.0032 255.544 78.9706 255.837 78.9016L256.496 78.6597C256.655 78.5949 256.808 78.5195 256.954 78.4339C257.045 78.3761 257.153 78.3425 257.265 78.3372C257.316 78.3334 257.366 78.3419 257.412 78.3618C257.457 78.3818 257.495 78.4123 257.522 78.4501L257.87 78.9661ZM257.1 71.919H256.185H256.001C255.933 71.8989 255.871 71.8659 255.818 71.8223L254.866 70.9192L254.738 70.7902L253.767 71.6932C253.673 71.7723 253.549 71.8182 253.419 71.8223H252.466L254.206 70H255.489L257.1 71.919ZM256.734 75.7086C256.742 75.4461 256.698 75.1843 256.606 74.9346C256.525 74.7066 256.387 74.4973 256.203 74.3218C256.029 74.1438 255.809 74.0054 255.562 73.9186C255.296 73.818 255.009 73.7685 254.719 73.7735C254.431 73.7616 254.143 73.8012 253.872 73.8899C253.601 73.9786 253.354 74.1145 253.144 74.2895C252.723 74.6749 252.464 75.1757 252.412 75.7086H256.734Z" fill="#FCE1E6"/>
<path d="M259 79.921V73.0967H259.793C259.874 73.0952 259.952 73.1196 260.015 73.1658C260.078 73.212 260.122 73.277 260.138 73.3494V74.0445C260.406 73.751 260.719 73.4954 261.069 73.2862C261.429 73.0925 261.841 72.994 262.259 73.0019C262.699 72.9822 263.131 73.1179 263.465 73.381C263.79 73.6585 264.023 74.0144 264.138 74.4078C264.247 74.1826 264.386 73.9704 264.552 73.7759C264.716 73.6031 264.908 73.4539 265.12 73.3336C265.328 73.2161 265.555 73.1308 265.793 73.0809C266.033 73.05 266.277 73.05 266.517 73.0809C266.875 73.0727 267.232 73.1263 267.569 73.2388C267.866 73.3513 268.131 73.5241 268.345 73.7443C268.571 73.9781 268.741 74.2525 268.845 74.55C268.952 74.9101 269.005 75.2824 269 75.6558V80H267.758V75.6558C267.794 75.2219 267.659 74.7908 267.379 74.4394C267.24 74.3007 267.068 74.1919 266.878 74.1209C266.687 74.0498 266.481 74.0184 266.276 74.0287C266.063 74.027 265.852 74.0646 265.655 74.1393C265.463 74.1993 265.292 74.3025 265.155 74.4394C265.001 74.5828 264.883 74.7553 264.81 74.9449C264.717 75.1721 264.67 75.4131 264.672 75.6558V80H263.362V75.6558C263.399 75.2241 263.271 74.794 263 74.4394C262.872 74.3007 262.71 74.1914 262.527 74.1201C262.344 74.0488 262.146 74.0175 261.948 74.0287C261.631 74.0307 261.321 74.1127 261.052 74.2657C260.762 74.4426 260.506 74.6613 260.293 74.9133V80L259 79.921Z" fill="#FCE1E6"/>
<path d="M273 69.9113C272.996 70.0405 272.963 70.1676 272.905 70.2849C272.846 70.3964 272.769 70.4985 272.677 70.5874C272.585 70.6726 272.475 70.7392 272.354 70.7831C272.228 70.8376 272.093 70.8679 271.955 70.8721C271.816 70.8725 271.679 70.842 271.555 70.7831C271.434 70.7403 271.324 70.6737 271.232 70.5878C271.14 70.5019 271.069 70.3986 271.023 70.2849C270.996 70.1617 270.996 70.0345 271.023 69.9113C270.992 69.7884 270.992 69.6605 271.023 69.5376C271.07 69.419 271.141 69.3102 271.232 69.2173C271.323 69.13 271.433 69.063 271.555 69.0216C271.687 68.9928 271.823 68.9928 271.955 69.0216C272.086 68.9972 272.222 68.9972 272.354 69.0216C272.478 69.0591 272.589 69.1266 272.677 69.2173C272.774 69.3095 272.851 69.4182 272.905 69.5376C272.968 69.6533 273 69.7814 273 69.9113ZM272.696 72.3134V80H271.251V72.3134H272.696Z" fill="#FCE1E6"/>
<path d="M279.571 74.3393C279.541 74.3835 279.5 74.421 279.451 74.4493C279.402 74.4677 279.347 74.4677 279.297 74.4493C279.219 74.4687 279.136 74.4687 279.057 74.4493L278.732 74.2607L278.252 74.0721C278.028 74.0177 277.797 73.9913 277.566 73.9935C277.231 73.9901 276.898 74.049 276.589 74.1664C276.317 74.2846 276.081 74.4628 275.903 74.6851C275.707 74.9252 275.561 75.1972 275.475 75.4867C275.382 75.8365 275.336 76.1954 275.338 76.5555C275.333 76.9271 275.385 77.2974 275.492 77.6558C275.578 77.9453 275.724 78.2172 275.92 78.4574C276.105 78.6661 276.34 78.8328 276.606 78.9446C276.886 79.0607 277.19 79.1197 277.497 79.1175C277.76 79.1271 278.022 79.0898 278.269 79.0075C278.449 78.9531 278.622 78.8792 278.783 78.7875L279.126 78.5517C279.197 78.494 279.288 78.4606 279.383 78.4574C279.432 78.4555 279.481 78.4646 279.526 78.4837C279.571 78.5028 279.61 78.5316 279.64 78.5674L280 78.9918C279.848 79.1763 279.662 79.3358 279.451 79.4633C279.24 79.5919 279.016 79.7024 278.783 79.7934C278.546 79.8821 278.299 79.9454 278.046 79.982C277.784 80.006 277.52 80.006 277.257 79.982C276.816 79.986 276.378 79.9057 275.972 79.7463C275.579 79.5928 275.228 79.362 274.943 79.0704C274.632 78.7523 274.399 78.3773 274.258 77.9701C274.08 77.4949 273.993 76.9951 274 76.4926C273.998 76.0175 274.079 75.5452 274.24 75.0937C274.383 74.686 274.61 74.3071 274.909 73.9778C275.208 73.6684 275.576 73.4218 275.989 73.2547C276.461 73.0766 276.969 72.9909 277.48 73.0033C277.931 72.9837 278.381 73.0521 278.8 73.2039C279.22 73.3556 279.6 73.5872 279.914 73.8835L279.571 74.3393Z" fill="#FCE1E6"/>
<path d="M280.371 74.0586C280.76 73.7175 281.222 73.4479 281.73 73.2653C282.245 73.0797 282.797 72.9897 283.353 73.0009C283.74 72.9951 284.124 73.0586 284.482 73.1876C284.798 73.3034 285.081 73.4786 285.312 73.7008C285.549 73.9268 285.725 74.1983 285.823 74.4941C285.946 74.8307 286.005 75.1826 286 75.5361V79.8289H285.4C285.302 79.8553 285.198 79.8553 285.1 79.8289C285.058 79.8041 285.022 79.7719 284.995 79.7345C284.968 79.697 284.949 79.6551 284.941 79.6112L284.782 78.9735C284.602 79.132 284.407 79.2776 284.2 79.409C284.015 79.5331 283.813 79.6375 283.6 79.72C283.386 79.8104 283.161 79.8783 282.93 79.9222C282.669 79.9738 282.403 79.9999 282.136 80C281.855 79.9965 281.576 79.9599 281.306 79.8911C281.056 79.8202 280.823 79.7095 280.618 79.5645C280.427 79.4049 280.271 79.2149 280.16 79.0046C280.046 78.7523 279.992 78.4825 280.001 78.2113C279.997 77.9415 280.083 77.6766 280.248 77.4492C280.44 77.1719 280.715 76.9461 281.042 76.796C281.498 76.5832 281.985 76.4263 282.489 76.3294C283.214 76.1959 283.953 76.1281 284.694 76.1272V75.5984C284.734 75.1757 284.596 74.7549 284.306 74.4163C284.168 74.2782 283.996 74.1699 283.804 74.0998C283.611 74.0297 283.402 73.9996 283.194 74.0119C282.913 74.0015 282.631 74.0384 282.365 74.1208C282.161 74.1849 281.966 74.2683 281.783 74.3696L281.359 74.6185C281.255 74.6821 281.133 74.7197 281.007 74.7274C280.925 74.7261 280.846 74.7051 280.778 74.6666C280.709 74.6282 280.654 74.5739 280.618 74.5096L280.371 74.0586ZM284.694 76.8115C284.168 76.8219 283.643 76.8635 283.124 76.936C282.759 76.9811 282.403 77.0701 282.065 77.2004C281.832 77.2841 281.625 77.4177 281.465 77.5892C281.347 77.7397 281.285 77.9193 281.289 78.1025C281.25 78.2509 281.25 78.4051 281.289 78.5535C281.352 78.672 281.442 78.7778 281.553 78.8646C281.673 78.9509 281.811 79.0145 281.959 79.0512C282.123 79.0682 282.289 79.0682 282.453 79.0512C282.664 79.0759 282.878 79.0759 283.088 79.0512C283.285 79.0178 283.475 78.9602 283.653 78.8801C283.826 78.7924 283.991 78.6936 284.147 78.5846C284.309 78.4687 284.462 78.344 284.606 78.2113L284.694 76.8115Z" fill="#FCE1E6"/>
<path d="M87.1191 96.9006C86.5947 96.9259 86.0811 96.7514 85.6904 96.4152C85.3418 96.0129 85.167 95.498 85.2021 94.9761V90.399H84.2255C84.194 90.4118 84.1602 90.4185 84.126 90.4185C84.0918 90.4185 84.058 90.4118 84.0265 90.399C84.0091 90.3668 84 90.3312 84 90.2949C84 90.2587 84.0091 90.223 84.0265 90.1909V89.6534L85.3106 89.4974L85.618 87.1915C85.6318 87.1232 85.6702 87.0618 85.7266 87.0181C85.7905 86.994 85.8616 86.994 85.9255 87.0181H86.6308V89.5841H88.8915V90.5377H86.5766V95.0281C86.565 95.1556 86.5797 95.284 86.6201 95.406C86.6604 95.528 86.7256 95.6412 86.8117 95.739C86.9789 95.887 87.199 95.9677 87.4266 95.9644C87.5524 95.9838 87.6806 95.9838 87.8064 95.9644L88.0777 95.843L88.2766 95.7216C88.2994 95.7121 88.324 95.7072 88.3489 95.7072C88.3738 95.7072 88.3985 95.7121 88.4213 95.7216C88.4213 95.7216 88.5479 95.7216 88.6021 95.8603L89 96.4845C88.7546 96.7049 88.4656 96.8759 88.15 96.9873C87.8037 97.0196 87.4542 96.9902 87.1191 96.9006Z" fill="#FCE1E6"/>
<path d="M99.8488 95.0102C99.668 95.1864 99.459 95.3396 99.228 95.4652C98.9919 95.6059 98.7337 95.7169 98.4611 95.7948C98.1864 95.874 97.9058 95.9369 97.6211 95.983C97.3356 96.0057 97.0483 96.0057 96.7628 95.983C96.2448 95.9881 95.7304 95.9083 95.2472 95.7477C94.7981 95.594 94.3931 95.3585 94.0603 95.0573C93.7151 94.7284 93.4484 94.3446 93.2751 93.9276C93.0811 93.4216 92.9885 92.8911 93.0011 92.3585C92.9908 91.9042 93.0775 91.4522 93.2568 91.0248C93.4126 90.6299 93.6613 90.2667 93.9872 89.9578C94.3069 89.6539 94.6994 89.4131 95.1376 89.2518C95.6229 89.0768 96.1454 88.9913 96.6715 89.0007C97.1211 88.9941 97.5678 89.0634 97.9863 89.2047C98.3752 89.336 98.7292 89.5335 99.0271 89.7852C99.3309 90.061 99.567 90.3865 99.721 90.7424C99.8962 91.1544 99.9828 91.5904 99.9767 92.029C100.008 92.1531 100.008 92.2815 99.9767 92.4056C99.9427 92.4385 99.9003 92.4642 99.8527 92.4805C99.8051 92.4969 99.7538 92.5034 99.7028 92.4997H94.3707C94.3738 92.8775 94.4415 93.2529 94.5716 93.6138C94.6782 93.9024 94.8521 94.1694 95.0828 94.3983C95.2945 94.613 95.5641 94.78 95.8681 94.8847C96.1893 94.9879 96.5294 95.041 96.8724 95.0416C97.1752 95.0416 97.4765 95.0046 97.7671 94.9318C97.9937 94.8762 98.2138 94.8027 98.4245 94.7121L98.881 94.4768C98.9719 94.4205 99.0796 94.3878 99.1915 94.3826C99.2417 94.3789 99.2922 94.3872 99.3373 94.4066C99.3824 94.426 99.4204 94.4557 99.4471 94.4924L99.8488 95.0102ZM98.7167 91.8721C98.7216 91.6168 98.6784 91.3624 98.5889 91.1189C98.508 90.8971 98.3708 90.6934 98.1871 90.5227C98.0175 90.3532 97.8052 90.2191 97.5663 90.1304C97.2907 90.0467 97.0004 90.0043 96.708 90.0049C96.4216 89.9904 96.1347 90.026 95.8647 90.1096C95.5948 90.1932 95.3474 90.3231 95.1376 90.4913C94.7269 90.8717 94.4706 91.3561 94.4072 91.8721H98.7167Z" fill="#FCE1E6"/>
<path d="M106.176 90.5044C106.372 90.0884 106.649 89.7139 106.992 89.4021C107.22 89.2272 107.485 89.1049 107.767 89.044C108.05 88.9832 108.343 88.9854 108.624 89.0506C108.757 89.079 108.883 89.1275 109 89.1944L108.902 90.105C108.898 90.153 108.875 90.1978 108.839 90.2303C108.803 90.2629 108.755 90.2809 108.706 90.2807H108.412C108.271 90.2637 108.129 90.2637 107.988 90.2807C107.787 90.2771 107.588 90.3096 107.4 90.3766C107.224 90.4319 107.062 90.5246 106.927 90.6482C106.785 90.789 106.659 90.9443 106.551 91.1115C106.453 91.3032 106.355 91.5108 106.257 91.7505V96H105V89.1305H105.718C105.808 89.0988 105.906 89.0988 105.996 89.1305C106.056 89.209 106.09 89.3038 106.094 89.4021L106.176 90.5044Z" fill="#FCE1E6"/>
<path d="M113.421 90.0856C113.804 89.7316 114.264 89.4525 114.773 89.2659C115.281 89.0793 115.827 88.9891 116.377 89.0011C116.76 88.9939 117.141 89.0581 117.496 89.1897C117.814 89.3065 118.1 89.4834 118.335 89.7084C118.559 89.9506 118.731 90.2276 118.842 90.5257C118.951 90.8628 119.004 91.2123 119 91.5632V95.8857H118.37C118.272 95.9065 118.171 95.9065 118.073 95.8857C117.987 95.8266 117.926 95.7437 117.898 95.65L117.758 95.0055L117.181 95.4456C116.987 95.5705 116.783 95.6808 116.569 95.7757C116.355 95.8626 116.133 95.931 115.904 95.98C115.643 96.0067 115.379 96.0067 115.117 95.98C114.839 95.9831 114.561 95.946 114.296 95.87C114.051 95.802 113.825 95.6896 113.631 95.5399C113.428 95.3893 113.272 95.1945 113.176 94.9741C113.05 94.7227 112.99 94.4482 113.001 94.1724C113.008 93.901 113.092 93.6356 113.246 93.4022C113.444 93.1219 113.722 92.894 114.051 92.742C114.501 92.5245 114.984 92.3657 115.485 92.2705C116.198 92.1349 116.924 92.0664 117.653 92.0662V91.5317C117.685 91.1076 117.556 90.6862 117.286 90.3371C117.144 90.1991 116.971 90.0908 116.777 90.0202C116.584 89.9495 116.375 89.9182 116.167 89.9285C115.888 89.9269 115.611 89.964 115.345 90.0385C115.143 90.1032 114.949 90.1876 114.768 90.29L114.348 90.5415C114.249 90.6139 114.126 90.6529 113.998 90.6515C113.925 90.6742 113.845 90.6742 113.771 90.6515C113.71 90.6068 113.656 90.5538 113.614 90.4943L113.421 90.0856ZM117.706 92.8521C117.184 92.8634 116.664 92.9054 116.149 92.9778C115.789 93.031 115.437 93.1206 115.1 93.2451C114.867 93.3346 114.663 93.4751 114.505 93.6537C114.386 93.7989 114.324 93.9761 114.331 94.1567C114.33 94.3121 114.359 94.4664 114.418 94.6125C114.48 94.737 114.57 94.8492 114.68 94.9426C114.799 95.0251 114.936 95.084 115.083 95.1155C115.245 95.1396 115.41 95.1396 115.572 95.1155C115.787 95.1326 116.004 95.1326 116.219 95.1155C116.595 95.0226 116.946 94.8622 117.251 94.644C117.419 94.5297 117.572 94.3978 117.706 94.251V92.8521Z" fill="#FCE1E6"/>
<path d="M126.34 90.2718C126.657 89.8954 127.05 89.5789 127.497 89.3397C127.919 89.1352 128.385 89.02 128.862 89.0024C129.338 88.9848 129.813 89.0653 130.251 89.238C130.617 89.4071 130.937 89.6504 131.187 89.9498C131.465 90.3085 131.67 90.7104 131.793 91.1361C131.951 91.6887 132.019 92.2599 131.995 92.8309C131.998 93.3407 131.924 93.8484 131.775 94.3393C131.627 94.7743 131.397 95.1816 131.096 95.5426C130.799 95.8754 130.43 96.1468 130.012 96.3392C129.565 96.5335 129.075 96.632 128.58 96.6273C128.171 96.648 127.763 96.5807 127.387 96.4307C127.011 96.2807 126.678 96.0521 126.414 95.7629V99H125V89.1363H125.845C125.93 89.1265 126.015 89.1475 126.084 89.195C126.152 89.2424 126.198 89.3125 126.212 89.3905L126.34 90.2718ZM126.34 94.6783C126.535 94.96 126.809 95.1886 127.131 95.3405C127.454 95.4924 127.815 95.5622 128.176 95.5426C128.504 95.5581 128.83 95.4999 129.128 95.373C129.425 95.246 129.685 95.0541 129.884 94.8139C130.316 94.2012 130.522 93.4759 130.471 92.7462C130.472 92.3309 130.429 91.9166 130.343 91.509C130.264 91.2118 130.127 90.9303 129.939 90.6785C129.779 90.4621 129.556 90.2917 129.296 90.1871C129.03 90.0813 128.742 90.0293 128.452 90.0345C128.033 90.0291 127.621 90.1287 127.258 90.3226C126.89 90.5403 126.572 90.8224 126.322 91.1531L126.34 94.6783Z" fill="#FCE1E6"/>
<path d="M138.853 86.8298C138.881 86.9418 138.881 87.0579 138.853 87.17C138.797 87.2715 138.723 87.3645 138.633 87.4454C138.538 87.5283 138.426 87.5943 138.303 87.6399C138.176 87.6583 138.046 87.6583 137.919 87.6399C137.791 87.6552 137.662 87.6552 137.534 87.6399C137.422 87.594 137.322 87.5277 137.241 87.4454C137.151 87.3645 137.077 87.2715 137.021 87.17C136.993 87.0579 136.993 86.9418 137.021 86.8298C137.017 86.7146 137.042 86.6001 137.092 86.494C137.143 86.3878 137.218 86.2924 137.314 86.2141C137.395 86.1318 137.495 86.0656 137.607 86.0197C137.734 85.9965 137.865 85.9965 137.992 86.0197C138.118 85.9934 138.25 85.9934 138.377 86.0197C138.5 86.0653 138.612 86.1313 138.707 86.2141C138.802 86.2924 138.878 86.3878 138.928 86.494C138.979 86.6001 139.003 86.7146 139 86.8298H138.853ZM138.56 89.0332V96H137.167V89.0332H138.56Z" fill="#FCE1E6"/>
<path d="M144.371 90.0853C144.76 89.7358 145.221 89.458 145.73 89.2677C146.246 89.0857 146.798 88.9949 147.353 89.0004C147.74 88.9945 148.124 89.0587 148.482 89.1891C148.804 89.3074 149.092 89.489 149.324 89.7205C149.557 89.9519 149.727 90.2271 149.823 90.5255C149.947 90.8602 150.006 91.211 149.999 91.5632V95.8871H149.4C149.301 95.9063 149.198 95.9063 149.1 95.8871C149.019 95.8264 148.963 95.7434 148.941 95.6513L148.782 95.0066C148.601 95.1669 148.407 95.3141 148.2 95.4469C148.011 95.5717 147.81 95.6821 147.6 95.777C147.383 95.8615 147.159 95.9299 146.93 95.9814C146.666 96.0062 146.4 96.0062 146.136 95.9814C145.854 95.9868 145.574 95.9496 145.306 95.8714C145.056 95.7997 144.823 95.6877 144.618 95.5412C144.42 95.3855 144.263 95.1921 144.16 94.9752C144.046 94.7202 143.992 94.4474 144.001 94.1733C143.997 93.9005 144.083 93.6327 144.248 93.4028C144.44 93.1225 144.715 92.8942 145.042 92.7425C145.498 92.5274 145.984 92.3687 146.489 92.2708C147.214 92.1358 147.953 92.0673 148.694 92.0664V91.5318C148.73 91.1048 148.592 90.6805 148.306 90.3368C148.166 90.1991 147.994 90.0909 147.802 90.0201C147.61 89.9494 147.402 89.9179 147.194 89.9281C146.913 89.9252 146.633 89.9624 146.365 90.0381C146.161 90.1029 145.966 90.1872 145.783 90.2897L145.359 90.5413C145.259 90.6126 145.135 90.6514 145.007 90.6513C144.932 90.6741 144.851 90.6741 144.777 90.6513L144.601 90.4941L144.371 90.0853ZM148.694 92.8526C148.168 92.8631 147.643 92.9051 147.124 92.9783C146.756 93.034 146.395 93.1236 146.047 93.2456C145.82 93.3396 145.621 93.4796 145.465 93.6544C145.339 93.7982 145.271 93.9752 145.271 94.1575C145.267 94.3148 145.303 94.4708 145.377 94.6135C145.44 94.738 145.53 94.8502 145.642 94.9437C145.76 95.0289 145.899 95.0881 146.047 95.1167C146.211 95.1419 146.378 95.1419 146.541 95.1167C146.753 95.1337 146.965 95.1337 147.177 95.1167C147.371 95.0703 147.56 95.0071 147.741 94.928C147.914 94.8449 148.079 94.7503 148.235 94.645C148.401 94.5265 148.555 94.395 148.694 94.2519V92.8526Z" fill="#FCE1E6"/>
<path d="M159.589 89.3039C159.567 89.3545 159.532 89.3968 159.488 89.4257C159.445 89.4546 159.394 89.4689 159.343 89.4668C159.254 89.4681 159.168 89.4362 159.097 89.3763L158.77 89.1953C158.626 89.1195 158.478 89.053 158.327 88.9963C158.119 88.9348 157.904 88.9044 157.688 88.9058C157.499 88.9052 157.311 88.9357 157.131 88.9963C156.972 89.0553 156.823 89.1407 156.688 89.2496C156.575 89.3448 156.485 89.469 156.426 89.6115C156.359 89.7443 156.325 89.8941 156.328 90.0459C156.321 90.2317 156.38 90.4132 156.491 90.5525C156.603 90.699 156.743 90.8164 156.901 90.8964C157.092 90.9978 157.289 91.0825 157.491 91.1497L158.163 91.385L158.835 91.6745C159.043 91.7795 159.24 91.9068 159.425 92.0545C159.596 92.2146 159.736 92.4117 159.835 92.6336C159.952 92.8785 160.009 93.1532 159.999 93.4299C159.999 93.7716 159.938 94.1099 159.819 94.4252C159.704 94.7282 159.53 94.9999 159.311 95.2214C159.079 95.4778 158.799 95.6754 158.491 95.8005C158.127 95.9368 157.745 96.0041 157.36 95.9996C156.9 96.0072 156.444 95.915 156.016 95.7281C155.642 95.5791 155.297 95.3518 155 95.0585L155.295 94.5338C155.32 94.4645 155.367 94.407 155.426 94.3709C155.49 94.3498 155.559 94.3498 155.623 94.3709C155.718 94.3772 155.81 94.415 155.885 94.4795C155.987 94.5701 156.097 94.6489 156.213 94.7147C156.367 94.8203 156.532 94.9054 156.705 94.9681C156.934 95.0393 157.172 95.0698 157.409 95.0585C157.626 95.0691 157.842 95.0385 158.049 94.9681C158.217 94.9048 158.373 94.8065 158.507 94.6785C158.623 94.5711 158.713 94.4345 158.77 94.2804C158.835 94.1213 158.869 93.9485 158.868 93.7737C158.869 93.5832 158.812 93.398 158.704 93.2489C158.594 93.0954 158.454 92.9716 158.294 92.887C158.106 92.7748 157.909 92.6839 157.704 92.6155L157.016 92.3803C156.787 92.3058 156.562 92.2152 156.344 92.1088C156.129 92.0131 155.929 91.8785 155.754 91.7107C155.577 91.5495 155.437 91.345 155.344 91.1135C155.228 90.8489 155.172 90.557 155.18 90.263C155.177 89.9696 155.233 89.6792 155.344 89.4125C155.455 89.132 155.623 88.8841 155.836 88.6886C156.065 88.4638 156.333 88.2915 156.623 88.1819C156.965 88.0533 157.326 87.9921 157.688 88.0009C158.118 87.9903 158.547 88.0701 158.95 88.2362C159.305 88.3952 159.633 88.6219 159.917 88.9058L159.589 89.3039Z" fill="#FCE1E6"/>
<path d="M175 86.8711C174.998 86.9885 174.965 87.1041 174.905 87.2098C174.846 87.3109 174.769 87.4034 174.677 87.484C174.589 87.57 174.478 87.6365 174.353 87.6775C174.097 87.7638 173.811 87.7638 173.554 87.6775C173.435 87.6279 173.326 87.5626 173.231 87.484C173.15 87.3988 173.08 87.307 173.022 87.2098C172.993 87.0982 172.993 86.9827 173.022 86.8711C172.994 86.7594 172.994 86.6441 173.022 86.5324C173.076 86.433 173.146 86.3407 173.231 86.2582C173.326 86.1796 173.435 86.1143 173.554 86.0647C173.811 85.9784 174.097 85.9784 174.353 86.0647C174.478 86.1058 174.589 86.1722 174.677 86.2582C174.774 86.3357 174.851 86.4289 174.905 86.5324C174.963 86.6387 174.996 86.7539 175 86.8711ZM174.696 89.0646V96H173.25V89.0646H174.696Z" fill="#FCE1E6"/>
<path d="M181.384 90.1055C181.569 89.9475 181.765 89.7978 181.969 89.6569C182.173 89.5193 182.396 89.4011 182.632 89.3046C182.861 89.2065 183.103 89.1312 183.354 89.0803C184.034 88.9432 184.749 88.9824 185.401 89.1924C185.749 89.3045 186.057 89.4862 186.298 89.721C186.545 89.9637 186.725 90.248 186.824 90.554C186.945 90.8974 187.004 91.2536 187 91.6111V96H185.518V91.5951C185.551 91.1607 185.4 90.7303 185.089 90.3778C184.922 90.2282 184.716 90.1116 184.486 90.0367C184.257 89.9618 184.009 89.9305 183.763 89.9453C183.334 89.9466 182.912 90.0346 182.535 90.2016C182.144 90.3937 181.79 90.6311 181.482 90.9064V96H180V89.1123H180.936C181.026 89.1031 181.117 89.123 181.19 89.1678C181.263 89.2126 181.311 89.2789 181.326 89.3526L181.384 90.1055Z" fill="#FCE1E6"/>
<path d="M194.488 96.9021C194.279 96.9156 194.07 96.8796 193.873 96.7963C193.676 96.713 193.494 96.584 193.339 96.4167C193.059 96.0145 192.918 95.4996 192.946 94.9778V90.4009H192.19C192.134 90.4279 192.072 90.4279 192.016 90.4009C191.995 90.3338 191.995 90.2599 192.016 90.1929V89.6554L193.048 89.4994L193.31 87.1936C193.3 87.1664 193.294 87.1368 193.294 87.1069C193.294 87.077 193.3 87.0474 193.31 87.0202C193.366 86.9933 193.429 86.9933 193.484 87.0202H194.037V89.5861H195.855V90.5396H194.037V95.0298C194.03 95.1584 194.044 95.2876 194.079 95.4096C194.114 95.5316 194.169 95.6442 194.241 95.7406C194.374 95.8902 194.552 95.9711 194.735 95.9659C194.831 95.9853 194.93 95.9853 195.026 95.9659L195.244 95.8446L195.404 95.7232C195.441 95.7074 195.483 95.7074 195.52 95.7232C195.555 95.7282 195.587 95.7436 195.615 95.7679C195.643 95.7922 195.666 95.8245 195.68 95.8619L196 96.4861C195.8 96.703 195.569 96.8735 195.317 96.9888C195.038 97.0184 194.758 96.9891 194.488 96.9021Z" fill="#FCE1E6"/>
<path d="M206.865 95.0094C206.72 95.1889 206.545 95.3427 206.349 95.4643C206.147 95.605 205.926 95.716 205.692 95.7938C205.452 95.8731 205.206 95.936 204.957 95.9821C204.713 96.006 204.467 96.006 204.222 95.9821C203.784 95.9871 203.349 95.9072 202.94 95.7467C202.556 95.5931 202.209 95.3576 201.924 95.0564C201.623 94.7318 201.394 94.3468 201.251 93.9269C201.073 93.4237 200.988 92.8919 201.001 92.358C201 91.9044 201.074 91.4538 201.22 91.0245C201.36 90.6326 201.572 90.2707 201.846 89.9577C202.125 89.6535 202.467 89.4128 202.846 89.2517C203.262 89.0768 203.709 88.9913 204.16 89.0007C204.545 88.9941 204.927 89.0634 205.286 89.2047C205.619 89.336 205.922 89.5334 206.177 89.7851C206.432 90.0617 206.629 90.3872 206.756 90.7421C206.913 91.1521 206.987 91.5894 206.975 92.0286C207.008 92.1518 207.008 92.2819 206.975 92.4051C206.975 92.4051 206.865 92.4992 206.756 92.4992H202.174C202.181 92.8778 202.245 93.2532 202.362 93.6131C202.447 93.9044 202.596 94.1726 202.8 94.3975C202.975 94.6116 203.201 94.7786 203.456 94.8839C203.737 94.9869 204.033 95.04 204.332 95.0407C204.591 95.0407 204.849 95.0038 205.098 94.9309C205.287 94.8752 205.47 94.8016 205.645 94.7113C205.784 94.647 205.915 94.5681 206.036 94.476C206.121 94.4212 206.218 94.3888 206.318 94.3818C206.361 94.3781 206.404 94.3864 206.443 94.4058C206.481 94.4252 206.514 94.4549 206.537 94.4917L206.865 95.0094ZM205.911 91.8717C205.908 91.6169 205.871 91.3637 205.802 91.1186C205.725 90.9002 205.608 90.6981 205.458 90.5225C205.306 90.3535 205.119 90.2196 204.91 90.1303C204.68 90.0465 204.436 90.004 204.191 90.0048C203.943 89.989 203.695 90.0239 203.461 90.1076C203.227 90.1912 203.013 90.3217 202.831 90.4911C202.485 90.8735 202.271 91.3577 202.221 91.8717H205.911Z" fill="#FCE1E6"/>
<path d="M219 89.5381V90.0086C219 90.1654 218.894 90.2663 218.683 90.3111L217.822 90.4119C217.997 90.7333 218.088 91.0911 218.085 91.4537C218.091 91.7913 218.013 92.1254 217.857 92.4284C217.716 92.7088 217.519 92.9601 217.276 93.1678C217.011 93.377 216.707 93.5366 216.38 93.6383C216.009 93.747 215.624 93.8036 215.236 93.8063C214.897 93.8053 214.56 93.76 214.234 93.6719C214.091 93.7559 213.966 93.8641 213.865 93.9912C213.783 94.0792 213.739 94.1931 213.741 94.3104C213.738 94.3869 213.756 94.4628 213.793 94.5306C213.83 94.5985 213.885 94.6558 213.952 94.6969C214.133 94.7905 214.33 94.853 214.533 94.8818C214.808 94.901 215.084 94.901 215.359 94.8818H216.309L217.241 94.9994C217.529 95.0401 217.808 95.1253 218.068 95.2515C218.307 95.3635 218.509 95.5384 218.648 95.7556C218.815 95.9934 218.895 96.2767 218.877 96.5622C218.875 96.8795 218.79 97.1913 218.631 97.4696C218.456 97.772 218.216 98.0355 217.927 98.2426C217.587 98.4869 217.207 98.6744 216.802 98.7971C216.317 98.9382 215.813 99.0062 215.307 98.9988C214.82 99.0093 214.334 98.9527 213.865 98.8307C213.495 98.7518 213.143 98.6095 212.827 98.4106C212.571 98.2623 212.359 98.0541 212.211 97.8057C212.075 97.5871 212.002 97.3376 212 97.0831C211.993 96.7439 212.118 96.4143 212.352 96.1589C212.625 95.897 212.955 95.6962 213.319 95.5708C213.11 95.4898 212.928 95.3563 212.792 95.1842C212.642 95.0033 212.567 94.7761 212.581 94.5457C212.556 94.4349 212.556 94.3204 212.581 94.2096C212.629 94.0927 212.687 93.9803 212.757 93.8735L213.056 93.5542C213.183 93.4515 213.325 93.3667 213.478 93.3022C213.117 93.1104 212.814 92.8325 212.598 92.4956C212.397 92.1398 212.294 91.7407 212.299 91.3361C212.294 91.0058 212.366 90.6786 212.51 90.3783C212.647 90.0911 212.852 89.8381 213.108 89.6389C213.374 89.4297 213.678 89.2701 214.005 89.1684C214.381 89.0583 214.773 89.0017 215.166 89.0004C215.481 88.9958 215.795 89.0354 216.098 89.118C216.371 89.1807 216.632 89.2827 216.872 89.4205L219 89.5381ZM217.646 96.8983C217.664 96.7507 217.627 96.6016 217.54 96.4782C217.424 96.3621 217.278 96.2755 217.118 96.2261C216.921 96.1521 216.714 96.1067 216.503 96.0917H215.746H214.955H214.181C213.924 96.2065 213.691 96.366 213.495 96.5622C213.324 96.7477 213.23 96.9869 213.231 97.2343C213.23 97.3933 213.273 97.5497 213.355 97.6881C213.458 97.8344 213.597 97.9553 213.759 98.0409C213.965 98.1605 214.191 98.2458 214.427 98.293C214.749 98.3301 215.073 98.3301 215.395 98.293C215.716 98.3213 216.04 98.3213 216.362 98.293C216.616 98.2403 216.859 98.1495 217.083 98.0241C217.263 97.921 217.418 97.7838 217.54 97.6208C217.67 97.4015 217.708 97.1432 217.646 96.8983ZM215.236 92.9493C215.481 92.9525 215.724 92.9184 215.957 92.8485C216.148 92.7844 216.323 92.6811 216.467 92.546C216.604 92.417 216.712 92.2626 216.784 92.0923C216.858 91.8985 216.893 91.6935 216.89 91.4874C216.898 91.2927 216.866 91.0984 216.793 90.9163C216.72 90.7343 216.61 90.5683 216.467 90.4287C216.124 90.1548 215.683 90.0166 215.236 90.0422C214.789 90.0166 214.349 90.1548 214.005 90.4287C213.863 90.5683 213.752 90.7343 213.68 90.9163C213.607 91.0984 213.574 91.2927 213.583 91.4874C213.579 91.6935 213.615 91.8985 213.689 92.0923C213.761 92.2626 213.868 92.417 214.005 92.546C214.154 92.6852 214.334 92.7888 214.533 92.8485C214.76 92.9199 214.998 92.954 215.236 92.9493Z" fill="#FCE1E6"/>
<path d="M225.109 90.5044C225.299 90.0817 225.586 89.705 225.95 89.4021C226.184 89.2272 226.457 89.1049 226.748 89.044C227.039 88.9832 227.34 88.9854 227.63 89.0506C227.761 89.079 227.886 89.1276 228 89.1944V90.105C227.992 90.1544 227.965 90.1993 227.925 90.2316C227.885 90.2639 227.834 90.2813 227.782 90.2807H227.479C227.334 90.2626 227.187 90.2626 227.042 90.2807C226.836 90.2771 226.631 90.3096 226.437 90.3766C226.26 90.432 226.1 90.5249 225.966 90.6482C225.816 90.7848 225.686 90.9408 225.58 91.1115C225.456 91.3138 225.354 91.528 225.277 91.7505V96H224V89.1305H224.723C224.815 89.0988 224.916 89.0988 225.008 89.1305C225.071 89.209 225.106 89.3038 225.109 89.4021V90.5044Z" fill="#FCE1E6"/>
<path d="M233.324 90.0853C233.644 89.7325 234.028 89.4542 234.452 89.2677C234.877 89.0873 235.33 88.9966 235.786 89.0004C236.113 88.9945 236.437 89.0587 236.739 89.1891C236.999 89.3103 237.234 89.4868 237.428 89.7079C237.621 89.9462 237.766 90.2245 237.853 90.5255C237.949 90.8618 237.999 91.2115 238 91.5632V95.8871H237.502C237.419 95.9063 237.334 95.9063 237.252 95.8871C237.185 95.8264 237.139 95.7434 237.12 95.6513L236.989 95.0066C236.838 95.1669 236.677 95.3141 236.505 95.4469C236.348 95.5717 236.181 95.6821 236.006 95.777C235.826 95.8615 235.64 95.9299 235.449 95.9814C235.23 96.0062 235.009 96.0062 234.79 95.9814C234.551 95.9857 234.313 95.9485 234.086 95.8714C233.884 95.7962 233.696 95.6845 233.529 95.5412C233.359 95.3906 233.228 95.1957 233.148 94.9752C233.042 94.7237 232.991 94.4492 233.001 94.1733C233.006 93.9018 233.077 93.6363 233.206 93.4028C233.376 93.1257 233.608 92.8986 233.881 92.7425C234.259 92.5248 234.663 92.366 235.083 92.2708C235.68 92.1351 236.29 92.0666 236.901 92.0664V91.5318C236.928 91.1075 236.819 90.6861 236.593 90.3368C236.474 90.1987 236.328 90.0905 236.166 90.0198C236.004 89.9491 235.829 89.9178 235.655 89.928C235.421 89.928 235.189 89.9651 234.966 90.0381C234.799 90.1093 234.637 90.1934 234.482 90.2897L234.145 90.5412C234.06 90.6095 233.957 90.648 233.851 90.6513C233.79 90.6768 233.722 90.6768 233.661 90.6513L233.514 90.4941L233.324 90.0853ZM236.901 92.8526C236.464 92.8646 236.028 92.9066 235.596 92.9783C235.295 93.0359 235.001 93.1254 234.716 93.2456C234.526 93.3437 234.356 93.4829 234.218 93.6544C234.124 93.803 234.073 93.978 234.071 94.1575C234.068 94.3148 234.098 94.4708 234.159 94.6135C234.201 94.7443 234.277 94.859 234.379 94.9437C234.474 95.0258 234.584 95.0849 234.702 95.1167C234.838 95.1407 234.976 95.1407 235.112 95.1167C235.293 95.1346 235.474 95.1346 235.655 95.1167C235.97 95.0237 236.264 94.8633 236.519 94.645C236.661 94.5306 236.789 94.3987 236.901 94.2519V92.8526Z" fill="#FCE1E6"/>
<path d="M250.622 96.7559H249.318V90.4128H245.491V94.8771C245.482 95.0051 245.499 95.1334 245.54 95.2548C245.582 95.3761 245.647 95.488 245.731 95.5839C245.889 95.7326 246.099 95.8131 246.315 95.8079C246.428 95.8286 246.545 95.8286 246.658 95.8079L246.933 95.6873L247.104 95.5666C247.149 95.5508 247.197 95.5508 247.242 95.5666C247.282 95.5716 247.321 95.5868 247.354 95.611C247.387 95.6351 247.413 95.6673 247.43 95.7045L247.808 96.325C247.572 96.5407 247.299 96.7102 247.001 96.8249C246.688 96.9405 246.357 96.9989 246.023 96.9973C245.777 97.0106 245.53 96.9749 245.297 96.8921C245.065 96.8092 244.851 96.681 244.667 96.5146C244.337 96.1148 244.171 95.6028 244.204 95.084V90.5334H243.277C243.24 90.5393 243.202 90.5363 243.166 90.5245C243.13 90.5127 243.097 90.4926 243.07 90.4657C243.044 90.4388 243.024 90.4059 243.012 90.3698C243 90.3336 242.997 90.2952 243.003 90.2576V89.7233L244.204 89.5682L244.513 87.2757C244.501 87.2486 244.494 87.2192 244.494 87.1895C244.494 87.1597 244.501 87.1303 244.513 87.1033C244.579 87.0765 244.653 87.0765 244.719 87.1033H245.371V89.6544H250.519L250.622 96.7559ZM250.931 86.931C250.957 87.0502 250.957 87.1737 250.931 87.2929C250.878 87.4009 250.809 87.4998 250.725 87.5859L250.433 87.7755C250.202 87.8677 249.944 87.8677 249.713 87.7755L249.421 87.5859C249.348 87.4949 249.285 87.3967 249.232 87.2929C249.206 87.1737 249.206 87.0502 249.232 86.931C249.208 86.8115 249.208 86.6884 249.232 86.569C249.281 86.4627 249.344 86.3641 249.421 86.2759C249.507 86.1919 249.605 86.1221 249.713 86.0691C249.944 85.977 250.202 85.977 250.433 86.0691C250.541 86.1221 250.639 86.1919 250.725 86.2759C250.815 86.3592 250.885 86.4608 250.933 86.5737C250.98 86.6866 251.003 86.8084 251 86.931H250.931Z" fill="#FCE1E6"/>
<path d="M263 89.0375L260.067 96H258.933L256 89.0213H257.017C257.103 88.9929 257.197 88.9929 257.283 89.0213C257.342 89.0691 257.388 89.1303 257.417 89.1994L259.233 93.7008C259.296 93.8641 259.347 94.0319 259.383 94.2027C259.383 94.3646 259.467 94.5265 259.517 94.6885C259.517 94.5265 259.517 94.3646 259.633 94.2027C259.67 94.0319 259.72 93.8641 259.783 93.7008L261.633 89.1994C261.662 89.1303 261.708 89.0691 261.767 89.0213C261.843 88.9977 261.924 88.9977 262 89.0213L263 89.0375Z" fill="#FCE1E6"/>
<path d="M268.309 90.0853C268.633 89.7358 269.018 89.458 269.442 89.2677C269.872 89.0857 270.331 88.9949 270.794 89.0004C271.117 88.9945 271.437 89.0587 271.735 89.1891C272.004 89.3074 272.243 89.489 272.437 89.7205C272.63 89.9519 272.772 90.2271 272.853 90.5255C272.956 90.8602 273.005 91.211 273 91.5632V95.8871H272.5C272.417 95.9063 272.332 95.9063 272.25 95.8871C272.182 95.8264 272.136 95.7434 272.117 95.6513L271.985 95.0066C271.835 95.1669 271.672 95.3141 271.5 95.4469C271.342 95.5717 271.175 95.6821 271 95.777C270.819 95.8615 270.633 95.9299 270.441 95.9814C270.221 96.0062 270 96.0062 269.78 95.9814C269.545 95.9868 269.312 95.9496 269.089 95.8714C268.88 95.7997 268.686 95.6877 268.515 95.5412C268.345 95.3906 268.213 95.1957 268.133 94.9752C268.039 94.7202 267.994 94.4474 268.001 94.1733C267.998 93.9005 268.069 93.6327 268.207 93.4028C268.367 93.1225 268.596 92.8942 268.868 92.7425C269.248 92.5274 269.654 92.3687 270.074 92.2708C270.678 92.1358 271.294 92.0673 271.912 92.0664V91.5318C271.942 91.1048 271.827 90.6805 271.588 90.3368C271.472 90.1991 271.329 90.0909 271.168 90.0201C271.008 89.9494 270.835 89.9179 270.662 89.9281C270.428 89.9252 270.194 89.9624 269.971 90.0381C269.801 90.1029 269.638 90.1872 269.486 90.2897L269.133 90.5413C269.049 90.6126 268.946 90.6514 268.839 90.6513C268.777 90.6741 268.71 90.6741 268.648 90.6513C268.591 90.6071 268.542 90.5541 268.501 90.4941L268.309 90.0853ZM271.912 92.8526C271.473 92.8631 271.036 92.9051 270.603 92.9783C270.296 93.034 269.996 93.1236 269.706 93.2456C269.517 93.3396 269.351 93.4796 269.221 93.6544C269.116 93.7982 269.059 93.9752 269.059 94.1575C269.055 94.3148 269.086 94.4708 269.148 94.6135C269.2 94.738 269.275 94.8502 269.368 94.9437C269.467 95.0289 269.582 95.0881 269.706 95.1167C269.842 95.1419 269.982 95.1419 270.118 95.1167C270.294 95.1337 270.471 95.1337 270.647 95.1167C270.805 95.0729 270.958 95.0096 271.103 94.928C271.253 94.8487 271.396 94.754 271.529 94.645C271.664 94.5225 271.792 94.3912 271.912 94.2519V92.8526Z" fill="#FCE1E6"/>
<path d="M283.594 89.2919C283.572 89.3428 283.537 89.3853 283.494 89.4143C283.451 89.4434 283.401 89.4577 283.351 89.4556C283.262 89.4585 283.176 89.4262 283.107 89.3647L282.782 89.1829L282.328 88.9828C282.127 88.9198 281.919 88.8892 281.711 88.8919C281.524 88.8914 281.338 88.922 281.159 88.9828C281.002 89.0422 280.854 89.128 280.721 89.2374C280.609 89.333 280.52 89.4579 280.461 89.601C280.395 89.7345 280.361 89.8849 280.364 90.0374C280.357 90.2242 280.415 90.4065 280.526 90.5466C280.637 90.6938 280.775 90.8117 280.932 90.892C281.119 90.997 281.315 91.0822 281.516 91.1466L282.182 91.383L282.847 91.6739C283.053 91.7794 283.249 91.9072 283.432 92.0557C283.61 92.2264 283.753 92.4384 283.851 92.6769C283.949 92.9155 284 93.175 284 93.4376C284 93.781 283.94 94.1209 283.821 94.4377C283.707 94.7467 283.529 95.0209 283.302 95.2377C283.067 95.4834 282.783 95.664 282.474 95.765C281.681 96.0783 280.816 96.0783 280.023 95.765C279.649 95.6108 279.302 95.383 279 95.0923L279.292 94.5649C279.327 94.5026 279.371 94.4473 279.422 94.4013C279.486 94.3849 279.553 94.3849 279.617 94.4013C279.717 94.4039 279.814 94.4421 279.893 94.5104C279.994 94.6015 280.102 94.6807 280.218 94.7468C280.37 94.8529 280.534 94.9384 280.705 95.0013C280.931 95.0738 281.167 95.1045 281.403 95.0923C281.617 95.1029 281.831 95.0721 282.036 95.0013C282.202 94.9377 282.357 94.839 282.49 94.7104C282.604 94.6025 282.694 94.4653 282.75 94.3104C282.783 94.1426 282.783 93.969 282.75 93.8013C282.756 93.612 282.704 93.4262 282.604 93.274C282.495 93.1197 282.356 92.9953 282.198 92.9103C282.012 92.7976 281.816 92.7063 281.614 92.6376L280.932 92.4012C280.704 92.3294 280.482 92.2382 280.266 92.1285C280.053 92.0322 279.856 91.8971 279.682 91.7284C279.507 91.5665 279.368 91.361 279.276 91.1284C279.161 90.8625 279.105 90.5692 279.114 90.2738C279.111 89.979 279.166 89.6872 279.276 89.4192C279.385 89.1374 279.552 88.8883 279.763 88.6919C279.99 88.466 280.255 88.2929 280.542 88.1828C280.882 88.0536 281.239 87.992 281.597 88.001C282.024 87.9902 282.448 88.0704 282.847 88.2373C283.195 88.3963 283.514 88.6242 283.789 88.9101L283.594 89.2919Z" fill="#FCE1E6"/>
<path d="M19.3308 86.3119L15.0014 84.4118L17.8203 90.5088C16.6309 89.8715 15.6912 89.4025 14.7754 88.8613C6.44941 83.8466 1.81065 76.2464 0.193035 66.698C-0.568195 62.2605 1.0018 58.4484 3.49959 54.9128C5.3432 52.3153 7.21062 49.7178 8.88771 47.012C9.59283 45.8759 10.0619 44.6066 10.2664 43.2814C10.4709 41.9562 10.4065 40.6028 10.0771 39.3035C10.0589 39.0553 10.0589 38.8061 10.0771 38.5579C12.84 40.6813 14.8776 43.6244 15.9053 46.9759C16.2145 45.9657 16.4524 45.2562 16.6546 44.5708C17.9442 39.389 19.9164 34.4059 22.5184 29.7552C24.6611 25.7317 27.9858 22.4796 32.0338 20.4473C34.6411 19.2568 37.5144 18.7879 40.3598 19.0884C39.9911 19.6416 39.6461 20.1106 39.3369 20.6036C37.2435 24.067 37.7669 27.4943 39.8246 30.6571C41.1191 32.7344 42.6967 34.6169 44.5109 36.249C48.5685 39.7019 51.3794 44.4174 52.5038 49.6576C55.2989 46.1341 57.4518 42.2618 61.2817 39.7244C61.2351 40.3496 61.1556 40.9718 61.0438 41.5884C60.7671 43.0264 60.7924 44.5071 61.1182 45.9345C61.444 47.3619 62.063 48.7042 62.9351 49.8741C64.3267 51.9666 65.861 53.9748 67.205 56.1034C68.5846 58.2678 69.4812 60.7101 69.8325 63.2604C70.1837 65.8107 69.9812 68.4078 69.239 70.8709C67.883 75.9457 65.8848 80.6959 61.9716 84.3878C58.7729 87.3569 55.0147 89.6432 50.9218 91.1101C50.1725 91.3987 49.4113 91.6513 48.4479 92C54.1809 85.6264 56.298 78.5553 53.8954 70.1494L47.4607 75.2963C49.5303 68.4537 48.5312 62.5491 43.3215 57.5585C42.9647 60.7092 42.7862 63.9682 39.2774 65.6277C38.1713 58.9294 33.6871 54.071 30.2735 48.443C28.5261 50.5221 27.3019 52.9976 26.7052 55.6584C25.2834 61.6777 25.3079 67.9537 26.7766 73.9615C27.2568 75.3185 27.8455 76.6336 28.5369 77.8939L18.296 72.7108C18.6053 77.3407 18.189 81.7902 19.3308 86.3119Z" fill="#FCE1E6"/>
<path d="M30 4.61539C31.4691 4.61539 32.5926 4.55302 33.7037 4.61539C33.8424 4.65223 33.9874 4.65811 34.1285 4.63262C34.2697 4.60713 34.4037 4.55088 34.5212 4.46779C34.6387 4.38469 34.7369 4.27674 34.8089 4.15144C34.8809 4.02614 34.925 3.88649 34.9383 3.7422C35.2469 2.59459 35.5802 1.47193 36.0123 0C36.4321 1.45946 36.8148 2.4948 37.0617 3.7422C37.0701 3.89268 37.1098 4.03969 37.1782 4.17364C37.2465 4.3076 37.3421 4.42549 37.4585 4.51964C37.575 4.61379 37.7098 4.68209 37.8541 4.72008C37.9985 4.75807 38.1492 4.7649 38.2963 4.74012C39.4445 4.66528 40.5926 4.74012 42 4.74012C40.7654 5.53846 39.9506 6.23701 38.9877 6.77339C38.0247 7.30977 38.0988 7.73389 38.4321 8.5447C38.7654 9.35551 39.1728 10.5655 39.6667 12L35.8272 9.01871L32.0988 11.8753C32.642 10.3659 33.1111 9.24324 33.4198 8.13306C33.4466 7.90767 33.424 7.67907 33.3536 7.46349C33.2832 7.24791 33.1667 7.05063 33.0123 6.88566C32.1728 6.06237 31.2099 5.46362 30 4.61539Z" fill="#FCE1E6"/>
<path d="M43.6982 97.7775C37.5902 98.1609 31.4943 98.5326 25.3863 98.9392C20.7992 99.2529 17.4435 98.37 14.5222 95.8722C18.3045 97.4114 22.5398 97.5724 26.4365 96.3253C23.4428 94.6872 20.9079 93.2467 18.3247 91.899C15.7555 90.7572 13.2531 89.4813 10.8285 88.0769C8.94706 86.6442 7.31683 84.9301 6 83C13.8342 89.4826 23.3221 91.992 33.0394 94.1064C36.7573 94.908 40.3545 96.3137 44 97.4406L43.6982 97.7775Z" fill="#FCE1E6"/>
<path d="M26.2897 97.7775C32.3253 98.1609 38.4937 98.5326 44.6017 98.9392C49.1887 99.2529 52.5445 98.37 55.4657 95.8722C51.6869 97.4085 47.4566 97.5695 43.5636 96.3253C46.5572 94.6872 49.08 93.2467 51.6633 91.899C54.2376 90.7597 56.7442 89.4837 59.1715 88.0769C61.0529 86.6442 62.6832 84.9301 64 83C56.1658 89.4826 46.6779 91.992 36.9606 94.1064C33.2306 94.908 29.6455 96.3137 26 97.4406L26.2897 97.7775Z" fill="#FCE1E6"/>
</svg>
