<svg width="70" height="99" viewBox="0 0 70 99" fill="none" xmlns="http://www.w3.org/2000/svg">
<path d="M19.3308 86.3119L15.0014 84.4118L17.8203 90.5088C16.6309 89.8715 15.6912 89.4025 14.7754 88.8613C6.44941 83.8466 1.81065 76.2464 0.193035 66.698C-0.568195 62.2605 1.0018 58.4484 3.49959 54.9128C5.3432 52.3153 7.21062 49.7178 8.88771 47.012C9.59283 45.8759 10.0619 44.6066 10.2664 43.2814C10.4709 41.9562 10.4065 40.6028 10.0771 39.3035C10.0589 39.0553 10.0589 38.8061 10.0771 38.5579C12.84 40.6813 14.8776 43.6244 15.9053 46.9759C16.2145 45.9657 16.4524 45.2562 16.6546 44.5708C17.9442 39.389 19.9164 34.4059 22.5184 29.7552C24.6611 25.7317 27.9858 22.4796 32.0338 20.4473C34.6411 19.2568 37.5144 18.7879 40.3598 19.0884C39.9911 19.6416 39.6461 20.1106 39.3369 20.6036C37.2435 24.067 37.7669 27.4943 39.8246 30.6571C41.1191 32.7344 42.6967 34.6169 44.5109 36.249C48.5685 39.7019 51.3794 44.4174 52.5038 49.6576C55.2989 46.1341 57.4518 42.2618 61.2817 39.7244C61.2351 40.3496 61.1556 40.9718 61.0438 41.5884C60.7671 43.0264 60.7924 44.5071 61.1182 45.9345C61.444 47.3619 62.063 48.7042 62.9351 49.8741C64.3267 51.9666 65.861 53.9748 67.205 56.1034C68.5846 58.2678 69.4812 60.7101 69.8325 63.2604C70.1837 65.8107 69.9812 68.4078 69.239 70.8709C67.883 75.9457 65.8848 80.6959 61.9716 84.3878C58.7729 87.3569 55.0147 89.6432 50.9218 91.1101C50.1725 91.3987 49.4113 91.6513 48.4479 92C54.1809 85.6264 56.298 78.5553 53.8954 70.1494L47.4607 75.2963C49.5303 68.4537 48.5312 62.5491 43.3215 57.5585C42.9647 60.7092 42.7862 63.9682 39.2774 65.6277C38.1713 58.9294 33.6871 54.071 30.2735 48.443C28.5261 50.5221 27.3019 52.9976 26.7052 55.6584C25.2834 61.6777 25.3079 67.9537 26.7766 73.9615C27.2568 75.3185 27.8455 76.6336 28.5369 77.8939L18.296 72.7108C18.6053 77.3407 18.189 81.7902 19.3308 86.3119Z" fill="#FCE1E6"/>
<path d="M30 4.61539C31.4691 4.61539 32.5926 4.55302 33.7037 4.61539C33.8424 4.65223 33.9874 4.65811 34.1285 4.63262C34.2697 4.60713 34.4037 4.55088 34.5212 4.46779C34.6387 4.38469 34.7369 4.27674 34.8089 4.15144C34.8809 4.02614 34.925 3.88649 34.9383 3.7422C35.2469 2.59459 35.5802 1.47193 36.0123 0C36.4321 1.45946 36.8148 2.4948 37.0617 3.7422C37.0701 3.89268 37.1098 4.03969 37.1782 4.17364C37.2465 4.3076 37.3421 4.42549 37.4585 4.51964C37.575 4.61379 37.7098 4.68209 37.8541 4.72008C37.9985 4.75807 38.1492 4.7649 38.2963 4.74012C39.4445 4.66528 40.5926 4.74012 42 4.74012C40.7654 5.53846 39.9506 6.23701 38.9877 6.77339C38.0247 7.30977 38.0988 7.73389 38.4321 8.5447C38.7654 9.35551 39.1728 10.5655 39.6667 12L35.8272 9.01871L32.0988 11.8753C32.642 10.3659 33.1111 9.24324 33.4198 8.13306C33.4466 7.90767 33.424 7.67907 33.3536 7.46349C33.2832 7.24791 33.1667 7.05063 33.0123 6.88566C32.1728 6.06237 31.2099 5.46362 30 4.61539Z" fill="#FCE1E6"/>
<path d="M43.6982 97.7775C37.5902 98.1609 31.4943 98.5326 25.3863 98.9392C20.7992 99.2529 17.4435 98.37 14.5222 95.8722C18.3045 97.4114 22.5398 97.5724 26.4365 96.3253C23.4428 94.6872 20.9079 93.2467 18.3247 91.899C15.7555 90.7572 13.2531 89.4813 10.8285 88.0769C8.94706 86.6442 7.31683 84.9301 6 83C13.8342 89.4826 23.3221 91.992 33.0394 94.1064C36.7573 94.908 40.3545 96.3137 44 97.4406L43.6982 97.7775Z" fill="#FCE1E6"/>
<path d="M26.2897 97.7775C32.3253 98.1609 38.4937 98.5326 44.6017 98.9392C49.1887 99.2529 52.5445 98.37 55.4657 95.8722C51.6869 97.4085 47.4566 97.5695 43.5636 96.3253C46.5572 94.6872 49.08 93.2467 51.6633 91.899C54.2376 90.7597 56.7442 89.4837 59.1715 88.0769C61.0529 86.6442 62.6832 84.9301 64 83C56.1658 89.4826 46.6779 91.992 36.9606 94.1064C33.2306 94.908 29.6455 96.3137 26 97.4406L26.2897 97.7775Z" fill="#FCE1E6"/>
</svg>
