<svg width="257" height="52" viewBox="0 0 257 52" fill="none" xmlns="http://www.w3.org/2000/svg">
<path d="M27.7655 0.00962027C29.7281 0.00666591 31.6859 0.18068 33.608 0.528897C35.206 0.810836 36.7671 1.23493 38.2672 1.7946C39.3812 2.17604 40.4176 2.71305 41.3363 3.38485C41.632 3.55737 41.8834 3.78214 42.0744 4.04479C42.2654 4.30744 42.3919 4.6022 42.4457 4.91019C42.4457 5.88382 42.4457 7.14952 42.4457 8.70732C42.4457 10.2651 42.4457 12.1474 42.1129 14.3543H40.0051C40.0065 13.9757 40.0065 13.5971 40.0051 13.2184C39.986 12.2885 39.8496 11.3634 39.5984 10.4598C39.3756 9.54094 38.9483 8.66967 38.3412 7.89596C37.6859 7.09785 36.9152 6.37785 36.0485 5.75401C35.1466 5.1374 34.1664 4.61464 33.1273 4.1962C32.0236 3.76541 30.8708 3.43902 29.6884 3.22257C28.4698 3.01466 27.2319 2.90603 25.9906 2.89803C22.1149 2.776 18.3281 3.93405 15.378 6.14344C13.927 7.18187 12.6782 8.42048 11.6802 9.81077C10.6465 11.2749 9.79127 12.8304 9.12875 14.4517C8.45409 16.1609 7.95898 17.9208 7.64963 19.7092C7.32148 21.5559 7.16075 23.4224 7.16893 25.2914C7.14698 27.3922 7.3575 29.4899 7.79754 31.555C8.16744 33.412 8.76246 35.2289 9.57247 36.9748C10.292 38.5549 11.2362 40.0488 12.3828 41.421C13.4187 42.6626 14.6659 43.7572 16.0805 44.6664C18.7715 46.513 22.0941 47.508 25.5099 47.49C26.7526 47.4739 27.9907 47.3544 29.2077 47.133C30.5569 46.8943 31.8716 46.5243 33.1273 46.0295C34.5494 45.5062 35.9114 44.865 37.1948 44.1147C38.6293 43.2881 39.9891 42.3658 41.2624 41.3561L41.7061 41.5509L42.1868 41.8429L42.5566 42.1999C42.6046 42.3263 42.6046 42.463 42.5566 42.5894C42.5809 42.7074 42.5809 42.8283 42.5566 42.9464C41.1049 44.3614 39.4944 45.6445 37.7495 46.776C36.25 47.7701 34.6245 48.6087 32.9054 49.2749C31.3381 49.9093 29.6856 50.3673 27.9874 50.638C26.3683 50.923 24.7207 51.0643 23.0693 51.0599C20.9662 51.0699 18.8729 50.8075 16.8571 50.281C14.9025 49.7525 13.0463 48.9762 11.3474 47.9767C9.63398 46.9835 8.09013 45.7815 6.76217 44.4068C5.30361 42.9728 4.06086 41.3803 3.0644 39.6685C2.07747 37.8456 1.333 35.929 0.845727 33.9566C0.310179 31.8249 0.0374497 29.6487 0.0322266 27.4658C0.0482713 25.2851 0.308361 23.111 0.808756 20.975C1.30013 18.7481 2.05615 16.5726 3.0644 14.4841C4.0514 12.4655 5.29164 10.5497 6.76217 8.77221C8.28048 7.02326 10.0732 5.47172 12.087 4.16374C14.1868 2.84183 16.5068 1.81279 18.9648 1.11307C21.8051 0.306982 24.7817 -0.0662381 27.7655 0.00962027Z" fill="white"/>
<path d="M55.7577 6.0763C55.5 7.89612 55.2423 9.78092 55.0214 11.7307C54.8005 13.6805 54.5428 15.5978 54.3219 17.5801C54.101 19.5624 53.9169 21.5448 53.7328 23.5271C53.5487 25.5093 53.4014 27.4916 53.2542 29.4089C53.1069 31.3263 53.0333 33.2436 52.9596 35.0959C52.886 36.9482 52.9596 38.768 52.9596 40.4578C52.9596 41.5302 52.9596 42.4726 52.9596 43.2201C52.9596 43.9675 52.9596 44.6499 52.9596 45.1699C53.005 45.6087 53.0912 46.0434 53.2173 46.4697C53.3187 46.738 53.4679 46.9903 53.6591 47.2171C53.8203 47.3846 54.0409 47.4992 54.285 47.5421C54.5533 47.5804 54.8268 47.5804 55.095 47.5421C55.7417 47.5408 56.3854 47.4643 57.0095 47.3146C57.7115 47.1363 58.4001 46.9192 59.0712 46.6647L59.4394 47.5096C58.8987 47.856 58.333 48.1708 57.7458 48.452C57.0831 48.777 56.3836 49.0695 55.6473 49.3619C54.9408 49.622 54.2151 49.8392 53.4751 50.0119C52.8883 50.1643 52.2823 50.2517 51.671 50.2718C51.0977 50.2983 50.5336 50.1362 50.0879 49.8169C49.6205 49.4276 49.3102 48.914 49.2043 48.3545C48.9641 47.4923 48.8284 46.6099 48.7993 45.7223C48.7993 44.6499 48.7993 43.35 48.7993 41.7902C48.7993 41.2377 48.7993 40.4254 48.7993 39.3855C48.7993 38.3456 48.7993 37.1432 48.7993 35.7458C48.7993 34.3484 48.7993 32.8536 49.0202 31.1963C49.2411 29.5389 49.0202 27.9466 49.3148 26.0943C49.6093 24.242 49.3148 22.5522 49.6093 20.7648C49.9038 18.9775 49.8302 17.2552 49.9406 15.5653C50.0511 13.8755 50.1615 12.3157 50.272 10.8533C50.3824 9.39097 50.272 8.05861 50.5297 6.92122C50.5542 6.67913 50.6425 6.44544 50.7874 6.23879C50.9422 6.03722 51.1595 5.87927 51.4133 5.78384C51.6784 5.65859 51.9641 5.57085 52.2601 5.52386C52.578 5.49046 52.8994 5.49046 53.2173 5.52386C54.1039 5.51209 54.9788 5.70236 55.7577 6.0763Z" fill="white"/>
<path d="M76.8127 32.9624C76.839 32.2055 76.6756 31.4529 76.3344 30.7579C76.0664 30.1577 75.6372 29.6237 75.0836 29.2018C74.5737 28.8181 73.9874 28.5213 73.3544 28.3265C72.7263 28.1382 72.068 28.0397 71.4046 28.0347C70.6601 28.0144 69.9163 28.0908 69.1972 28.2616C68.6541 28.3867 68.1508 28.6196 67.7256 28.9424C67.365 29.1996 67.0862 29.5347 66.9162 29.915C66.7534 30.3214 66.6664 30.7484 66.6587 31.1794C66.6616 31.7114 66.7738 32.2386 66.9898 32.7355C67.2144 33.2851 67.5373 33.7995 67.9463 34.2592C67.292 34.575 66.5586 34.7422 65.8125 34.7455C65.4213 34.7498 65.0332 34.6836 64.672 34.5509C64.3122 34.4616 63.9834 34.2945 63.7155 34.0647C63.4549 33.8411 63.2429 33.5774 63.0901 33.2866C62.9393 32.9458 62.8644 32.5826 62.8693 32.2168C62.8693 31.5938 63.0463 30.9808 63.3844 30.4337C63.743 29.8466 64.2162 29.3199 64.7824 28.8776C65.3922 28.405 66.0583 27.992 66.769 27.6457C68.2612 26.9169 69.8757 26.4025 71.5517 26.122C72.3042 25.999 73.0674 25.9339 73.8327 25.9275C74.959 25.8935 76.0824 26.0475 77.1438 26.3813C77.9925 26.6416 78.7521 27.0879 79.3512 27.6781C79.9455 28.287 80.3734 29.0079 80.602 29.7853C80.8794 30.6943 81.0155 31.6322 81.0067 32.5734C81.0067 33.2866 81.0067 34.0647 81.0067 34.9076C81.0067 35.7829 81.0067 36.6582 80.786 37.5984L80.5653 40.4836C80.5653 41.4886 80.5653 42.4612 80.5653 43.4662C80.4656 44.6967 80.8136 45.9231 81.5586 46.9675C81.8447 47.3346 82.2298 47.6334 82.6792 47.8371C83.1287 48.0408 83.6285 48.143 84.1339 48.1346C85.2622 48.0893 86.3555 47.7756 87.2978 47.2268L87.8129 47.9076C87.0516 48.6109 86.1385 49.173 85.1272 49.561C84.1798 49.9414 83.1515 50.1403 82.1104 50.1445C81.3558 50.1483 80.607 50.0274 79.903 49.7879C79.2342 49.547 78.6319 49.1821 78.1371 48.7181C77.6221 48.199 77.2339 47.592 76.9966 46.935C76.718 46.1371 76.5814 45.306 76.5919 44.4712C76.5728 44.1905 76.5728 43.909 76.5919 43.6283C76.5578 43.3265 76.5578 43.0224 76.5919 42.7206C76.056 43.6775 75.4411 44.5984 74.7524 45.4762C74.1129 46.3593 73.3462 47.1657 72.4715 47.8752C71.705 48.5617 70.8242 49.1411 69.8594 49.5934C68.9465 50.0369 67.9218 50.271 66.8794 50.2742C66.085 50.2828 65.2968 50.1505 64.5617 49.8852C63.8928 49.6442 63.2905 49.2794 62.7957 48.8153C62.287 48.3479 61.887 47.7972 61.6185 47.1944C61.3471 46.5401 61.21 45.8486 61.2138 45.152C61.1957 44.2602 61.3965 43.3755 61.8024 42.5585C62.2078 41.7845 62.7686 41.0816 63.4579 40.4836C64.1964 39.8318 65.0547 39.2947 65.9965 38.8951C67.0129 38.4145 68.0862 38.034 69.1972 37.7605C70.4004 37.4527 71.6312 37.2358 72.8762 37.112C74.1806 36.9547 75.4961 36.8789 76.8127 36.8851L77.0334 34.9076C76.7759 34.4213 76.8127 33.7405 76.8127 32.9624ZM65.5182 44.0822C65.4619 44.4913 65.4619 44.9049 65.5182 45.3141C65.6001 45.6738 65.7627 46.0155 65.9965 46.3191C66.2171 46.611 66.5218 46.8459 66.8794 46.9999C67.2636 47.1808 67.6948 47.2702 68.1303 47.2592C68.7165 47.2459 69.293 47.1244 69.8226 46.9026C70.4502 46.669 71.0333 46.352 71.5517 45.9625C72.1657 45.5464 72.7214 45.0676 73.2073 44.536C74.2808 43.3816 75.1039 42.0629 75.6354 40.6458C75.928 39.913 76.1134 39.1504 76.1872 38.3764L73.5016 38.5385C72.6477 38.6256 71.8002 38.7555 70.9631 38.9275C70.1872 39.0758 69.4339 39.3043 68.7189 39.6083C68.0668 39.8618 67.4694 40.2128 66.953 40.6458C66.4356 41.0564 66.0327 41.5667 65.7757 42.137C65.5303 42.7611 65.4424 43.425 65.5182 44.0822Z" fill="white"/>
<path d="M91.2705 50.2746H90.9819C90.9819 49.2273 90.9819 48.1144 91.2344 47.0016C91.487 45.8888 91.2344 44.5469 91.487 43.2704C91.7395 41.9939 91.487 40.7502 91.487 39.5391C91.487 38.3281 91.487 37.1499 91.487 36.0698C91.487 34.9897 91.487 34.0405 91.487 33.1895V31.1602C91.5068 30.8114 91.5068 30.4618 91.487 30.1129C91.4686 29.8578 91.3819 29.6106 91.2344 29.3928C91.1216 29.1853 90.9292 29.0224 90.6933 28.9346C90.3701 28.8946 90.0424 28.8946 89.7193 28.9346H89.0699H88.3484H87.4826L86.3282 29.1964L86.0396 28.0181C87.635 27.482 89.2607 27.0231 90.9098 26.6435C91.7241 26.4422 92.5575 26.3107 93.399 26.2507C93.7212 26.2234 94.0459 26.2655 94.3468 26.3736C94.6477 26.4817 94.9163 26.6526 95.1306 26.8726C95.5008 27.4346 95.6768 28.0845 95.6357 28.7382C95.6357 28.7382 95.6357 29.0328 95.6357 29.4255C95.6357 29.8183 95.6357 30.2765 95.6357 30.8657C95.6357 31.4548 95.6357 32.1421 95.6357 32.9276C95.6357 33.7132 95.6357 34.5642 95.4192 35.4479C95.2028 36.3316 95.4192 37.2808 95.1667 38.2627L94.842 41.1756C95.4192 38.9936 96.0686 36.9971 96.7901 35.186C97.4501 33.5199 98.271 31.9098 99.2432 30.3747C100.024 29.1343 101.038 28.0267 102.237 27.1017C103.255 26.3451 104.529 25.9291 105.845 25.9234C106.288 25.916 106.728 25.9826 107.144 26.1198C107.516 26.2463 107.859 26.435 108.154 26.6762C108.443 26.9027 108.676 27.1814 108.839 27.4945C109.017 27.8313 109.103 28.2015 109.092 28.5746C109.107 29.0849 108.983 29.5908 108.731 30.0475C108.48 30.5041 108.108 30.8975 107.649 31.193C107.224 30.838 106.736 30.5503 106.206 30.342C105.758 30.1812 105.28 30.1033 104.799 30.1129C104.256 30.1016 103.716 30.1906 103.212 30.3747C102.701 30.5649 102.235 30.8428 101.841 31.193C101.077 31.8379 100.432 32.5892 99.9287 33.4186C99.2883 34.41 98.7451 35.4504 98.3053 36.528C97.8002 37.6735 97.3673 38.8518 96.9705 40.0956C96.5736 41.3393 96.249 42.5503 95.9603 43.7286C95.6717 44.9069 95.4553 46.0524 95.2749 47.0016C95.0945 47.9508 94.9863 48.9327 94.9141 49.6527L91.2705 50.2746Z" fill="white"/>
<path d="M124.781 33.4886C124.79 32.733 124.628 31.9835 124.304 31.2841C124.023 30.6901 123.597 30.1586 123.055 29.728C122.537 29.3374 121.938 29.0401 121.291 28.8526C120.665 28.6592 120.007 28.5605 119.344 28.5609C118.601 28.5446 117.859 28.621 117.14 28.7878C116.604 28.9283 116.105 29.1596 115.67 29.4686C115.309 29.7182 115.041 30.0567 114.898 30.4412C114.718 30.8433 114.63 31.2732 114.641 31.7055C114.644 32.2376 114.756 32.7648 114.972 33.2617C115.183 33.8101 115.493 34.3247 115.89 34.7854C115.266 35.194 114.531 35.4511 113.759 35.531C113.357 35.5353 112.957 35.4692 112.584 35.3365C112.236 35.246 111.92 35.0786 111.665 34.8502C111.393 34.6356 111.18 34.3696 111.041 34.0721C110.86 33.7385 110.772 33.3719 110.784 33.0023C110.779 32.3747 110.97 31.758 111.335 31.2192C111.68 30.6336 112.14 30.1067 112.694 29.6631C113.31 29.183 113.988 28.7694 114.715 28.4312C115.463 28.0525 116.25 27.7377 117.066 27.491C117.854 27.2358 118.665 27.0405 119.491 26.9075C120.242 26.783 121.004 26.7179 121.769 26.713C122.882 26.6792 123.991 26.8332 125.039 27.1668C125.892 27.4356 126.66 27.8802 127.28 28.4636C127.86 29.0803 128.286 29.7985 128.529 30.5709C128.793 31.4814 128.917 32.4192 128.896 33.3589C128.896 34.0721 128.896 34.8502 128.896 35.6931C128.896 36.536 128.896 37.4437 128.639 38.3839L128.419 41.2692C128.419 42.2742 128.419 43.2468 128.419 44.2518C128.319 45.4822 128.667 46.7087 129.411 47.7531C129.696 48.1202 130.081 48.419 130.53 48.6227C130.979 48.8264 131.478 48.9286 131.982 48.9201C133.11 48.8798 134.204 48.5657 135.142 48.0124L135.693 48.6932C134.92 49.3826 134.011 49.9428 133.011 50.3466C132.054 50.7315 131.014 50.9305 129.962 50.9301C129.208 50.9339 128.46 50.813 127.757 50.5735C127.106 50.3236 126.518 49.9596 126.031 49.5037C125.503 48.9929 125.114 48.3833 124.892 47.7206C124.595 46.9264 124.458 46.0926 124.488 45.2568V44.4139C124.488 44.1221 124.488 43.8303 124.488 43.5061C123.938 44.4564 123.325 45.3766 122.651 46.2617C121.989 47.13 121.226 47.9342 120.373 48.6608C119.587 49.3409 118.697 49.9194 117.727 50.379C116.829 50.8224 115.818 51.0567 114.788 51.0598C113.995 51.0684 113.208 50.9361 112.474 50.6708C111.795 50.4321 111.182 50.0686 110.676 49.6047C110.169 49.1407 109.78 48.5869 109.534 47.98C109.234 47.3321 109.084 46.6376 109.093 45.9376C109.087 45.0434 109.3 44.1586 109.718 43.344C110.097 42.5573 110.661 41.8502 111.371 41.2692C112.103 40.6253 112.946 40.0889 113.87 39.6807C114.89 39.2111 115.961 38.831 117.066 38.546C118.269 38.2429 119.498 38.026 120.74 37.8976C122.043 37.7392 123.356 37.6634 124.671 37.6707C124.671 36.9899 124.671 36.3415 124.671 35.6931C124.752 34.9605 124.789 34.2246 124.781 33.4886ZM113.759 44.6084C113.703 45.0175 113.703 45.4311 113.759 45.8403C113.854 46.2019 114.029 46.5434 114.274 46.8453C114.49 47.1285 114.78 47.3619 115.119 47.5261C115.504 47.703 115.934 47.7921 116.368 47.7855C116.965 47.7719 117.553 47.6506 118.095 47.4288C118.717 47.1874 119.298 46.871 119.822 46.4887C120.415 46.064 120.957 45.5859 121.438 45.0623C121.978 44.4971 122.457 43.8894 122.871 43.2468C123.273 42.5792 123.617 41.8856 123.9 41.172C124.157 40.4309 124.342 39.6716 124.451 38.9026L121.732 39.0647C120.85 39.0647 120.005 39.1944 119.197 39.4537C118.424 39.6069 117.672 39.8352 116.956 40.1345C116.314 40.4033 115.72 40.7528 115.192 41.172C114.687 41.5917 114.287 42.0995 114.017 42.6632C113.789 43.2908 113.702 43.9514 113.759 44.6084Z" fill="white"/>
<path d="M157.606 17.7181C157.669 17.3317 157.669 16.9395 157.606 16.5531C157.543 16.2537 157.389 15.9745 157.16 15.744C156.91 15.5312 156.603 15.3756 156.267 15.2909C155.773 15.2347 155.273 15.2347 154.779 15.2909C153.732 15.3013 152.688 15.377 151.653 15.5175V14.0935L155.374 13.511L159.467 12.9932C160.881 12.8206 162.294 12.6912 163.708 12.6049C165.122 12.6049 166.499 12.6049 167.838 12.6049C168.892 12.5566 169.947 12.5566 171.001 12.6049C171.996 12.6698 172.98 12.8216 173.94 13.0579C174.836 13.2661 175.698 13.5705 176.507 13.9641C177.265 14.3244 177.955 14.7827 178.554 15.3233C179.132 15.9068 179.585 16.5753 179.893 17.2974C180.219 18.1197 180.383 18.9842 180.377 19.854C180.399 21.1334 180.107 22.4022 179.521 23.5757C178.948 24.633 178.153 25.5879 177.177 26.3912C176.173 27.215 175.031 27.9024 173.791 28.43C172.494 28.9811 171.135 29.4149 169.736 29.7245C171.491 29.8138 173.227 30.0854 174.907 30.5336C176.384 30.9083 177.77 31.5112 179 32.3135C180.138 33.0796 181.055 34.0657 181.679 35.1938C182.38 36.4532 182.725 37.8402 182.684 39.2391C182.7 40.4479 182.486 41.6507 182.051 42.7989C181.663 43.813 181.084 44.7643 180.34 45.6144C179.612 46.4368 178.732 47.1478 177.735 47.718C176.721 48.3049 175.635 48.7932 174.498 49.1743C173.292 49.5522 172.046 49.8232 170.778 49.9834C169.548 50.1678 168.304 50.2652 167.057 50.2746C166.012 50.2711 164.969 50.217 163.931 50.1128L160.732 49.6921L157.011 50.0805H156.676C156.676 48.6565 156.974 47.1031 157.123 45.4526C157.271 43.8021 157.383 42.2164 157.458 40.2747C157.532 38.3329 157.458 36.6501 157.718 34.7407C157.978 32.8313 157.718 30.9219 157.718 29.0126C157.718 27.1032 157.718 25.1615 157.718 23.2844C157.718 21.4074 157.606 19.5304 157.606 17.7181ZM161.067 47.8151C161.934 48.0121 162.817 48.1527 163.708 48.2358C164.564 48.2358 165.42 48.2358 166.276 48.2358C167.723 48.2499 169.166 48.0754 170.554 47.718C171.836 47.4264 173.029 46.8964 174.052 46.1646C175.068 45.4445 175.872 44.5236 176.396 43.4785C176.975 42.2135 177.254 40.8593 177.214 39.498C177.254 38.1963 176.962 36.9031 176.359 35.7116C175.812 34.6512 174.968 33.7275 173.903 33.0255C172.708 32.2404 171.34 31.6785 169.885 31.375C168.106 31.0056 166.281 30.8317 164.452 30.8572H163.225H161.997C161.997 31.5045 161.997 32.2812 161.997 33.155C161.997 34.0288 161.997 34.9996 161.997 35.9705C161.997 36.9413 161.997 38.0093 161.997 39.2067C161.997 40.4041 161.997 41.3426 161.997 42.4429C161.997 43.5433 161.997 44.4494 161.997 45.3879C161.997 46.3264 161.029 47.1031 161.029 47.8151H161.067ZM162.443 14.4171C162.443 15.1291 162.443 15.9705 162.443 17.0061C162.443 18.0417 162.443 19.142 162.443 20.4365C162.443 21.731 162.443 23.0579 162.443 24.5466C162.443 26.0352 162.443 27.7828 162.443 29.2715C163.515 29.2509 164.585 29.1644 165.643 29.0126C166.676 28.8907 167.697 28.6958 168.694 28.43C169.614 28.1531 170.499 27.7952 171.336 27.3621C172.143 26.9317 172.871 26.397 173.494 25.7763C174.102 25.1282 174.58 24.3951 174.907 23.6081C175.254 22.7007 175.417 21.7482 175.391 20.7925C175.44 19.6844 175.211 18.5802 174.721 17.5563C174.303 16.7447 173.649 16.042 172.824 15.5175C171.995 14.9748 171.044 14.589 170.033 14.3848C168.896 14.1743 167.736 14.0658 166.573 14.0612H164.75C163.972 14.1321 163.201 14.251 162.443 14.4171Z" fill="white"/>
<path d="M189.014 50.2746H188.714C188.714 49.2273 188.714 48.1144 188.977 47.0016C189.24 45.8888 188.977 44.5469 189.24 43.2704C189.502 41.9939 189.24 40.7502 189.24 39.5391C189.24 38.3281 189.24 37.1499 189.24 36.0698C189.24 34.9897 189.24 34.0405 189.24 33.1895C189.24 32.3385 189.24 31.6512 189.24 31.1602C189.26 30.8114 189.26 30.4618 189.24 30.1129C189.204 29.8608 189.115 29.6167 188.977 29.3928C188.838 29.2 188.644 29.042 188.414 28.9346C188.078 28.8946 187.737 28.8946 187.401 28.9346H186.726H185.975H185.037L183.874 29.1964L183.574 28.0181C185.23 27.4728 186.921 27.0138 188.639 26.6435C189.486 26.4422 190.353 26.3107 191.228 26.2507C191.558 26.2176 191.893 26.2572 192.201 26.3658C192.509 26.4744 192.781 26.6487 192.992 26.8726C193.396 27.4277 193.58 28.083 193.517 28.7382C193.517 28.7382 193.517 29.0328 193.517 29.4255C193.517 29.8183 193.517 30.2765 193.517 30.8657C193.517 31.4548 193.517 32.1421 193.517 32.9276C193.517 33.7132 193.517 34.5642 193.292 35.4479C193.067 36.3316 193.292 37.2808 193.029 38.2627L192.692 41.1756C193.292 38.9936 193.967 36.9971 194.718 35.186C195.388 33.5142 196.243 31.9029 197.269 30.3747C198.069 29.1267 199.125 28.0173 200.384 27.1017C201.436 26.3355 202.765 25.9182 204.136 25.9234C204.596 25.916 205.054 25.9826 205.487 26.1198C205.874 26.2463 206.23 26.435 206.537 26.6762C206.838 26.9027 207.081 27.1814 207.25 27.4945C207.435 27.8313 207.525 28.2015 207.513 28.5746C207.518 29.063 207.389 29.5455 207.138 29.982C206.88 30.4588 206.494 30.8743 206.012 31.193C205.564 30.8447 205.058 30.5578 204.511 30.342C204.032 30.1843 203.523 30.1066 203.01 30.1129C202.457 30.1014 201.908 30.1905 201.397 30.3747C200.859 30.5724 200.364 30.8492 199.933 31.193C199.151 31.8474 198.481 32.5971 197.945 33.4186C197.306 34.4177 196.754 35.457 196.294 36.528C195.768 37.6735 195.318 38.8518 194.905 40.0956C194.493 41.3393 194.155 42.5503 193.855 43.7286C193.555 44.9069 193.33 46.0524 193.142 47.0016C192.954 47.9508 192.842 48.9327 192.767 49.6527L189.014 50.2746Z" fill="white"/>
<path d="M223.092 32.9624C223.118 32.2055 222.955 31.4529 222.614 30.7579C222.347 30.1577 221.918 29.6237 221.365 29.2018C220.861 28.8115 220.274 28.5139 219.638 28.3265C219.012 28.1354 218.354 28.0368 217.691 28.0347C216.948 28.0144 216.205 28.0908 215.487 28.2616C214.948 28.3946 214.447 28.6266 214.017 28.9424C213.657 29.1996 213.378 29.5347 213.209 29.915C213.046 30.3214 212.959 30.7484 212.952 31.1794C212.954 31.7114 213.067 32.2386 213.282 32.7355C213.522 33.279 213.843 33.7915 214.237 34.2592C213.584 34.575 212.852 34.7422 212.107 34.7455C211.716 34.7472 211.329 34.6811 210.968 34.5509C210.608 34.4616 210.28 34.2945 210.012 34.0647C209.752 33.8411 209.54 33.5774 209.388 33.2866C209.237 32.9458 209.162 32.5826 209.167 32.2168C209.167 31.5938 209.344 30.9808 209.682 30.4337C210.04 29.8466 210.512 29.3199 211.078 28.8776C211.687 28.405 212.352 27.992 213.062 27.6457C213.813 27.2729 214.6 26.9584 215.413 26.7055C216.212 26.4469 217.036 26.2516 217.875 26.122C218.614 25.9977 219.364 25.9326 220.116 25.9275C221.241 25.8935 222.363 26.0475 223.423 26.3813C224.27 26.6416 225.029 27.0879 225.627 27.6781C226.221 28.287 226.648 29.0079 226.876 29.7853C227.171 30.6911 227.308 31.6313 227.28 32.5734C227.28 33.2866 227.28 34.0647 227.28 34.9076C227.28 35.7829 227.28 36.6582 227.06 37.5984L226.839 40.4836C226.839 41.4886 226.839 42.4612 226.839 43.4662C226.74 44.6967 227.087 45.9231 227.832 46.9675C228.117 47.3346 228.502 47.6334 228.951 47.8371C229.4 48.0408 229.899 48.143 230.403 48.1346C231.53 48.0893 232.622 47.7756 233.563 47.2268L234.114 47.9076C233.34 48.597 232.432 49.1572 231.432 49.561C230.475 49.9459 229.435 50.1449 228.383 50.1445C227.629 50.1483 226.881 50.0274 226.178 49.7879C225.515 49.5387 224.916 49.1749 224.415 48.7181C223.914 48.1908 223.527 47.5863 223.276 46.935C222.997 46.1371 222.861 45.306 222.872 44.4712C222.872 44.1794 222.872 43.8877 222.872 43.6283V42.7206C222.335 43.6704 221.734 44.5906 221.071 45.4762C220.41 46.3444 219.646 47.1486 218.793 47.8752C218.008 48.5553 217.117 49.1338 216.148 49.5934C215.248 50.0329 214.237 50.267 213.209 50.2742C212.415 50.2828 211.628 50.1505 210.894 49.8852C210.215 49.6447 209.602 49.2801 209.094 48.8153C208.586 48.3479 208.186 47.7972 207.918 47.1944C207.647 46.5401 207.51 45.8486 207.514 45.152C207.514 44.2617 207.714 43.3803 208.102 42.5585C208.507 41.7845 209.067 41.0816 209.755 40.4836C210.493 39.8318 211.35 39.2947 212.29 38.8951C213.311 38.4255 214.382 38.0455 215.487 37.7605C216.688 37.4527 217.917 37.2358 219.161 37.112C220.463 36.9547 221.777 36.8789 223.092 36.8851C223.092 36.2043 223.276 35.5559 223.312 34.9076C223.349 34.2592 223.092 33.7405 223.092 32.9624ZM211.849 44.0822C211.793 44.4913 211.793 44.9049 211.849 45.3141C211.948 45.6692 212.109 46.0084 212.327 46.3191C212.547 46.611 212.852 46.8459 213.209 46.9999C213.594 47.1768 214.024 47.2659 214.458 47.2592C215.043 47.2459 215.619 47.1244 216.148 46.9026C216.783 46.6639 217.377 46.3474 217.912 45.9625C218.505 45.5377 219.047 45.0597 219.528 44.536C220.597 43.3743 221.43 42.0581 221.99 40.6458C222.253 39.9077 222.425 39.1469 222.504 38.3764L219.822 38.5385C218.97 38.6284 218.124 38.7583 217.287 38.9275C216.514 39.0807 215.762 39.309 215.046 39.6083C214.395 39.8618 213.798 40.2128 213.282 40.6458C212.777 41.0654 212.377 41.5733 212.107 42.137C211.861 42.7611 211.774 43.425 211.849 44.0822Z" fill="white"/>
<path d="M233.228 50C233.484 49.5693 233.924 49.006 234.474 48.2771L236.489 45.9248L238.945 43.1417L241.694 40.1599L244.516 37.178L247.191 34.4612C248.034 33.5998 248.767 32.8377 249.464 32.1751C250.16 31.5125 250.71 30.9824 251.113 30.6179L249.464 30.8499H247.704H245.322L243.27 30.6511H241.584H240.521C240.035 30.6417 239.552 30.709 239.092 30.8499C238.66 30.9866 238.271 31.2136 237.955 31.5125C237.595 31.8858 237.332 32.3273 237.186 32.8046C236.951 33.4473 236.815 34.1163 236.783 34.7925H235.39C235.39 34.1962 235.39 33.5667 235.39 32.9703C235.352 32.3744 235.352 31.7771 235.39 31.1812C235.493 30.642 235.64 30.1105 235.83 29.5908C236.005 29.1141 236.265 28.6664 236.599 28.2656C236.962 27.8927 237.413 27.5983 237.919 27.4042C238.544 27.1646 239.219 27.0515 239.898 27.0728C240.618 27.0278 241.34 27.0278 242.06 27.0728L244.589 27.3048L247.301 27.5698H250.013C250.922 27.5735 251.829 27.507 252.725 27.371C253.495 27.2665 254.239 27.0424 254.924 26.7084L255.951 27.4704C255.612 28.0762 255.233 28.6627 254.814 29.2264C254.338 29.9222 253.715 30.6842 253.055 31.5125C252.396 32.3408 251.626 33.2353 250.783 34.163L248.254 37.0124L245.542 39.8948L242.903 42.6447L240.448 45.0965L238.395 47.0844L239.202 46.8525C239.496 46.7509 239.804 46.684 240.118 46.6537H241.071H242.28C243.049 46.6042 243.82 46.6042 244.589 46.6537L246.788 47.0181L248.84 47.3494C249.457 47.4506 250.083 47.506 250.71 47.5151C251.231 47.5189 251.75 47.4519 252.249 47.3163C252.731 47.1828 253.163 46.9304 253.495 46.5874C253.903 46.198 254.215 45.7351 254.411 45.229C254.69 44.5242 254.863 43.7887 254.924 43.0423H256.28C256.292 44.367 256.144 45.689 255.841 46.985C255.66 47.8607 255.286 48.6946 254.741 49.4368C254.32 49.99 253.736 50.426 253.055 50.6957C252.378 50.9369 251.657 51.0605 250.93 51.0602C250.064 51.0549 249.203 50.9548 248.364 50.762L245.542 50.1657C244.54 49.9448 243.551 49.746 242.573 49.5693C241.598 49.3827 240.602 49.2939 239.605 49.3042C238.712 49.2959 237.822 49.4076 236.966 49.6355C236.066 49.8606 235.229 50.2558 234.51 50.7951L233.228 50Z" fill="white"/>
</svg>
