<svg width="70" height="73" viewBox="0 0 70 73" fill="none" xmlns="http://www.w3.org/2000/svg">
<path d="M19.3308 67.3119L15.0014 65.4118L17.8203 71.5088C16.6309 70.8715 15.6912 70.4025 14.7754 69.8613C6.44941 64.8466 1.81065 57.2464 0.193035 47.698C-0.568195 43.2605 1.0018 39.4484 3.49959 35.9128C5.3432 33.3153 7.21062 30.7178 8.88771 28.012C9.59283 26.8759 10.0619 25.6066 10.2664 24.2814C10.4709 22.9562 10.4065 21.6028 10.0771 20.3035C10.0589 20.0553 10.0589 19.8061 10.0771 19.5579C12.84 21.6813 14.8776 24.6244 15.9053 27.9759C16.2145 26.9657 16.4524 26.2562 16.6546 25.5708C17.9442 20.389 19.9164 15.4059 22.5184 10.7552C24.6611 6.73173 27.9858 3.4796 32.0338 1.44728C34.6411 0.256827 37.5144 -0.212127 40.3598 0.0883814C39.9911 0.641562 39.6461 1.11057 39.3369 1.60362C37.2435 5.06701 37.7669 8.49433 39.8246 11.6571C41.1191 13.7344 42.6967 15.6169 44.5109 17.249C48.5685 20.7019 51.3794 25.4174 52.5038 30.6576C55.2989 27.1341 57.4518 23.2618 61.2817 20.7244C61.2351 21.3496 61.1556 21.9718 61.0438 22.5884C60.7671 24.0264 60.7924 25.5071 61.1182 26.9345C61.444 28.3619 62.063 29.7042 62.9351 30.8741C64.3267 32.9666 65.861 34.9748 67.205 37.1034C68.5846 39.2678 69.4812 41.7101 69.8325 44.2604C70.1837 46.8107 69.9812 49.4078 69.239 51.8709C67.883 56.9457 65.8848 61.6959 61.9716 65.3878C58.7729 68.3569 55.0147 70.6432 50.9218 72.1101C50.1725 72.3987 49.4113 72.6513 48.4479 73C54.1809 66.6264 56.298 59.5553 53.8954 51.1494L47.4607 56.2963C49.5303 49.4537 48.5312 43.5491 43.3215 38.5585C42.9647 41.7092 42.7862 44.9682 39.2774 46.6277C38.1713 39.9294 33.6871 35.071 30.2735 29.443C28.5261 31.5221 27.3019 33.9976 26.7052 36.6584C25.2834 42.6777 25.3079 48.9537 26.7766 54.9615C27.2568 56.3185 27.8455 57.6336 28.5369 58.8939L18.296 53.7108C18.6053 58.3407 18.189 62.7902 19.3308 67.3119Z" fill="#FCE1E6"/>
</svg>
