<svg width="93" height="97" viewBox="0 0 93 97" fill="none" xmlns="http://www.w3.org/2000/svg">
<path d="M55.0928 2.23971C59.1597 2.12702 63.0619 3.86694 65.6817 6.9592C71.95 6.68259 77.2582 11.5148 77.5359 17.7403C77.5702 18.5155 77.5257 19.2992 77.3971 20.0659C71.3791 18.8689 65.2651 21.6589 62.2561 26.9726C61.9783 27.5224 62.2029 28.2037 62.7584 28.4786C63.2797 28.7279 63.9123 28.5555 64.2158 28.074C67.494 22.3983 74.7773 20.4278 80.4918 23.6738C86.2063 26.9282 88.1832 34.1629 84.9153 39.8368C84.9067 39.8454 84.8981 39.8624 84.8895 39.871C90.0829 42.4117 92.2157 48.6475 89.6662 53.7972C89.0421 55.0625 88.1574 56.1826 87.0824 57.1029C91.5316 63.062 90.2732 71.468 84.2723 75.8853C78.2715 80.3025 69.8086 79.0544 65.3594 73.0952C64.797 72.3371 64.3101 71.5192 63.9123 70.6569C63.6346 70.1071 62.9573 69.8834 62.4035 70.1669C61.8737 70.4247 61.6406 71.0445 61.8652 71.5875C65.0302 78.4772 72.7044 82.1364 80.1026 80.2684C79.1922 85.0562 75.2368 88.6897 70.3555 89.2156C65.4125 95.4923 56.2724 96.6039 49.9595 91.6949C49.1005 91.0238 48.3204 90.2657 47.626 89.4222V81.3868C48.5279 77.6149 52.3358 75.274 56.1421 76.1687C56.2295 76.1858 56.3153 76.2114 56.4027 76.2285C57.0096 76.3668 57.608 75.9792 57.7469 75.3764C57.8686 74.8164 57.5463 74.258 57.0011 74.077C53.6183 73.1464 49.9938 74.1795 47.626 76.7544V15.9576C49.1262 14.5626 51.2694 14.0811 53.2291 14.6924C53.8361 14.8461 54.4516 14.4943 54.6162 13.9001C54.7722 13.3401 54.4601 12.7544 53.9132 12.5563C51.8146 11.9024 49.5429 12.1346 47.626 13.2018V4.76337C49.8035 3.1959 52.4044 2.31655 55.0928 2.23971ZM37.9064 2.23971C40.5948 2.31655 43.1957 3.1959 45.3714 4.76337V26.1018C40.221 20.3408 31.3415 19.8149 25.5395 24.9219C24.101 26.1974 22.9471 27.7376 22.1327 29.469C21.8721 30.029 22.1156 30.6915 22.6865 30.9511C23.2506 31.2089 23.909 30.9682 24.1782 30.4166C26.9283 24.5514 33.9424 22.0124 39.8489 24.7495C42.2321 25.8525 44.1833 27.7205 45.3714 30.0461V68.2289C41.9732 63.8372 36.3016 61.8224 30.8734 63.0791C30.2665 63.2174 29.8927 63.8287 30.0401 64.4314C30.179 65.0257 30.7774 65.3962 31.3843 65.2579C37.3166 63.8885 43.3346 67.1617 45.3714 72.863V89.4222C40.317 95.6135 31.1597 96.5527 24.9326 91.5327C24.0924 90.8428 23.3209 90.0676 22.6522 89.2156C16.5742 88.5702 12.1593 83.1779 12.7577 77.1334C5.8996 75.6172 1.58071 68.8658 3.10664 62.0546C4.63257 55.2435 11.4307 50.9543 18.2905 52.4705C21.152 53.1074 23.7101 54.7005 25.5224 56.9919C25.9133 57.4734 26.6248 57.5503 27.11 57.1627C27.5866 56.7853 27.6741 56.087 27.2917 55.6055C25.1057 52.841 22.0024 50.9457 18.5339 50.2405C18.1259 46.7265 20.6668 43.5404 24.2039 43.1357C24.8726 43.0571 25.5567 43.093 26.2167 43.2211C26.8323 43.3423 27.4221 42.9462 27.5438 42.3434C27.6638 41.7321 27.2746 41.1465 26.6677 41.0252C21.9493 40.0776 17.3629 43.1101 16.4097 47.7937C16.2622 48.5006 16.2091 49.2246 16.2433 49.9468C11.6141 49.7232 7.13921 51.6441 4.13021 55.1479C0.82632 50.4386 1.99734 43.9536 6.74829 40.6718C7.18207 40.3713 7.64156 40.1049 8.10963 39.871C4.77145 34.2397 6.66257 26.9812 12.3325 23.6652C13.5292 22.9669 14.8306 22.4854 16.1833 22.2361C13.9544 16.405 16.9034 9.88583 22.774 7.67293C27.3346 5.95178 32.4953 7.32119 35.5901 11.0657C35.9981 11.5318 36.7096 11.5916 37.1777 11.1869C37.6458 10.7993 37.7058 10.1112 37.3337 9.63654C35.3209 7.21703 32.5296 5.56418 29.4246 4.96144C31.8524 3.11736 34.8528 2.15434 37.9064 2.23971ZM37.7229 0.0011962C33.4315 -0.051736 29.3029 1.65404 26.3213 4.71898C18.8014 4.99559 12.9309 11.2638 13.2086 18.7306C13.2258 19.3846 13.2961 20.0402 13.4178 20.6857C6.08992 23.4074 2.36082 31.518 5.10921 38.8038C5.13492 38.8721 5.16236 38.9506 5.18808 39.0189C-0.475005 43.1613 -1.68889 51.067 2.47398 56.6982C2.56828 56.8195 2.65572 56.9305 2.75173 57.0517C-1.56716 64.0524 0.653153 73.2147 7.71186 77.4954C8.57769 78.0299 9.49839 78.4687 10.4602 78.8033C10.7294 85.0135 15.3072 90.2059 21.4641 91.3073C27.5695 98.2397 38.1739 98.938 45.1554 92.8662C45.6235 92.453 46.0744 92.0142 46.4996 91.5583C52.7422 98.3609 63.3654 98.8509 70.2166 92.6511C70.6847 92.2293 71.1271 91.7819 71.5437 91.3073C77.4571 90.2486 81.932 85.4011 82.4961 79.459C90.4909 76.0133 94.1583 66.7912 90.6898 58.8514C90.4738 58.3511 90.2303 57.8696 89.9611 57.3966C94.5235 52.0829 93.872 44.1004 88.5226 39.579C88.2877 39.3809 88.0546 39.1999 87.8111 39.0189C90.6727 31.786 87.091 23.614 79.8077 20.771C79.7288 20.7369 79.6517 20.7113 79.5814 20.6857C80.9427 13.3401 76.0443 6.28645 68.6461 4.93583C67.9963 4.8146 67.3465 4.7463 66.6779 4.71898C61.3457 -0.756927 52.7868 -1.56627 46.4996 2.81684C43.9329 1.01715 40.8708 0.0353459 37.7229 0.0011962Z" fill="#8A5360"/>
<path d="M22.5507 70.6797C20.928 74.9628 23.0129 79.7864 27.2093 81.4369C30.0939 82.581 33.3643 81.9535 35.6437 79.8119C36.0893 79.3908 36.1225 78.6849 35.7119 78.2296C35.2995 77.7744 34.6096 77.7403 34.164 78.1614C31.7416 80.4309 27.9741 80.2672 25.7545 77.7914C24.2249 76.0881 23.771 73.6465 24.5857 71.4793C24.7802 70.8945 24.476 70.2585 23.9057 70.0607C23.367 69.8715 22.7785 70.1375 22.5507 70.6797Z" fill="#8A5360"/>
<path d="M56.1648 51.2763C61.0076 46.2479 68.9706 46.1274 73.9494 51.0077C76.7789 53.7871 78.1563 57.7392 77.6649 61.6982C77.5713 62.3146 77.993 62.8881 78.6035 62.9845C79.2139 63.0878 79.7819 62.6625 79.8754 62.046C79.8839 62.0202 79.8839 62.003 79.8839 61.9771C80.899 53.7784 75.1448 46.3013 67.0271 45.2836C66.6479 45.2319 66.2619 45.1975 65.8827 45.1802C65.8997 40.126 61.8493 36.0172 56.8365 36C56.1733 36 55.5034 36.0689 54.8487 36.217C54.2467 36.3651 53.8863 36.973 54.0325 37.5808C54.1702 38.1715 54.745 38.5452 55.3299 38.4229C59.0198 37.5981 62.6672 39.9435 63.4834 43.6597C63.5956 44.1815 63.6551 44.7119 63.6466 45.2491C60.1982 45.6142 56.981 47.1864 54.5647 49.7058C54.1515 50.1656 54.1957 50.8854 54.6514 51.3021C55.0902 51.6844 55.7431 51.6758 56.1648 51.2763Z" fill="#8A5360"/>
</svg>
