<svg width="119" height="90" viewBox="0 0 119 90" fill="none" xmlns="http://www.w3.org/2000/svg">
<path d="M58.5014 2.6475L64.5859 13.6157H60.5789V26.8448H56.4259V13.6157H52.4169L58.5014 2.6475ZM51.5911 15.7688H54.3565V27.2885C54.3565 28.2288 55.0909 29 55.9998 29H61.0009C61.9099 29 62.6463 28.2288 62.6463 27.2885V15.7688H65.4076C65.9757 15.7688 66.5012 15.4519 66.7852 14.9405C67.0713 14.4313 67.0713 13.7932 66.7872 13.2798L59.881 0.82827C59.597 0.31694 59.0674 0 58.5014 0C57.9333 0 57.4058 0.31694 57.1197 0.832495L50.2095 13.2819C49.9295 13.7932 49.9295 14.4313 50.2135 14.9405C50.4976 15.4519 51.0271 15.7688 51.5911 15.7688Z" fill="#8A5360"/>
<path d="M30.7579 24.0733L27.978 26.7262L36.7996 35.1469L33.9142 37.8967L25.0926 29.4779L22.3127 32.1327L19.2222 21.1219L30.7579 24.0733ZM20.5603 33.3802C20.7057 33.8918 21.1279 34.2968 21.6655 34.4356C22.2052 34.5707 22.7827 34.4242 23.1769 34.0496L25.0926 32.2202L32.7731 39.5512C33.0878 39.8498 33.502 40 33.9142 40C34.3303 40 34.7406 39.8498 35.0552 39.5512L38.5281 36.2346C39.1573 35.6337 39.1573 34.6562 38.5281 34.0591L30.8475 26.7262L32.7632 24.8987C33.1575 24.5221 33.3128 23.9706 33.1694 23.4553C33.026 22.9437 32.6019 22.5368 32.0622 22.3979L18.9673 19.0491C18.4296 18.914 17.8521 19.0624 17.4579 19.437C17.0636 19.8135 16.9103 20.365 17.0516 20.8804L20.5603 33.3802Z" fill="#8A5360"/>
<path d="M25.9219 61.576H13.1435V65.5859L2.55532 59.499L13.1435 53.4161V57.422H25.9219V61.576ZM26.3481 55.353H15.2236V52.5898C15.2236 52.0253 14.9177 51.4954 14.4242 51.2132C13.9307 50.9289 13.3168 50.9289 12.8193 51.2132L0.795377 58.1204C0.305939 58.4046 -0.00403863 58.9325 3.97591e-05 59.499C3.97591e-05 60.0654 0.305939 60.5954 0.799456 60.8796L12.8233 67.7888C13.0701 67.9289 13.3454 68 13.6227 68C13.8981 68 14.1774 67.9289 14.4242 67.7868C14.9177 67.5026 15.2236 66.9767 15.2236 66.4082V63.6429H26.3481C27.2597 63.6429 28 62.9079 28 62.0004V56.9956C28 56.088 27.2597 55.353 26.3481 55.353Z" fill="#8A5360"/>
<path d="M105.857 65.586V61.5762H93.0781V57.4263H105.857V53.4165L116.445 59.5013L105.857 65.586ZM118.205 58.1207L106.177 51.2096C105.683 50.9295 105.069 50.9295 104.576 51.2137C104.082 51.4959 103.776 52.0258 103.776 52.5902V55.3555H92.6519C91.7403 55.3555 91 56.0924 91 57V62.0026C91 62.9101 91.7403 63.6471 92.6519 63.6471H103.776V66.4083C103.776 66.9767 104.082 67.5026 104.576 67.7868C104.823 67.9289 105.098 68 105.377 68C105.655 68 105.93 67.9289 106.181 67.7889L118.205 60.8819C118.694 60.5976 119 60.0697 119 59.5013C119 58.9328 118.694 58.4049 118.205 58.1207Z" fill="#8A5360"/>
<path d="M90.0251 25.0941L87.2415 22.3129L98.7763 19.2229L95.686 30.758L92.9063 27.9769L84.0855 36.7986L81.2042 33.9138L90.0251 25.0941ZM82.9445 38.5278C83.2591 38.8446 83.6733 39 84.0855 39C84.4996 39 84.9118 38.8446 85.2264 38.5278L92.9063 30.8477L94.8219 32.7623C95.2161 33.1567 95.7935 33.3101 96.3312 33.1687C96.8708 33.0232 97.2929 32.5989 97.4383 32.063L100.947 18.9679C101.092 18.432 100.935 17.8542 100.54 17.4598C100.148 17.0653 99.5708 16.9079 99.0312 17.0533L85.9372 20.5577C85.3976 20.7051 84.9735 21.1295 84.8302 21.6654C84.6868 22.2033 84.8421 22.7831 85.2344 23.1775L87.1519 25.0941L79.4719 32.7742C78.8427 33.4038 78.8427 34.4238 79.4719 35.0553L82.9445 38.5278Z" fill="#8A5360"/>
<path d="M86.9179 63.6899C86.9179 64.0139 86.6587 64.2777 86.3423 64.2777H80.9473L80.7595 65.094C80.4799 66.3008 80.0961 67.493 79.6164 68.6416C79.1796 69.6988 78.6591 70.7207 78.0732 71.6824L77.6385 72.3969L81.4556 76.2769C81.5617 76.389 81.623 76.5344 81.623 76.6881C81.623 76.846 81.5617 76.9955 81.4556 77.1035L76.3178 82.3273C76.0953 82.5558 75.7299 82.5558 75.5054 82.3273L71.6903 78.4432L70.9901 78.8857C70.043 79.4839 69.0367 80.0114 67.9977 80.458C66.8709 80.9419 65.6952 81.3366 64.5092 81.6211L63.707 81.8102V87.2977C63.707 87.6197 63.4478 87.8814 63.1314 87.8814H55.8686C55.5522 87.8814 55.293 87.6197 55.293 87.2977V81.8102L54.4908 81.6211C53.3048 81.3366 52.1291 80.9419 51.0023 80.458C49.9633 80.0114 48.957 79.4839 48.0099 78.8857L47.3097 78.4432L43.4946 82.3273C43.3844 82.4374 43.2415 82.4977 43.0864 82.4977C42.9353 82.4977 42.7884 82.4374 42.6822 82.3273L37.5444 77.1035C37.4383 76.9955 37.377 76.846 37.377 76.6881C37.377 76.5344 37.4383 76.389 37.5444 76.2769L41.3615 72.3969L40.9268 71.6824C40.3409 70.7207 39.8204 69.6988 39.3836 68.6416C38.9039 67.493 38.5201 66.2987 38.2425 65.094L38.0527 64.2777H32.6577C32.3413 64.2777 32.0821 64.0139 32.0821 63.6899V56.306C32.0821 55.9819 32.3413 55.7223 32.6577 55.7223H38.0527L38.2425 54.906C38.5201 53.6972 38.9039 52.5029 39.3836 51.3542C39.8204 50.3012 40.3409 49.2793 40.9268 48.3134L41.3615 47.6031L37.5444 43.719C37.4383 43.6089 37.377 43.4635 37.377 43.3077C37.377 43.1519 37.4383 43.0045 37.5444 42.8965L42.6822 37.6706C42.7884 37.5626 42.9353 37.5023 43.0864 37.5023C43.2415 37.5023 43.3844 37.5626 43.4946 37.6706L47.3097 41.5526L48.0099 41.1102C48.957 40.5141 49.9633 39.9844 51.0023 39.5399C52.1291 39.0539 53.3048 38.6634 54.4908 38.3809L55.293 38.1878V32.7002C55.293 32.3803 55.5522 32.1165 55.8686 32.1165H63.1314C63.4478 32.1165 63.707 32.3803 63.707 32.7002V38.1878L64.5092 38.3809C65.6952 38.6634 66.8709 39.0539 67.9977 39.5399C69.0367 39.9844 70.043 40.5141 70.9901 41.1102L71.6903 41.5526L75.5054 37.6706C75.7299 37.4442 76.0953 37.4442 76.3178 37.6706L81.4556 42.8965C81.6781 43.1229 81.6781 43.4905 81.4556 43.719L77.6385 47.6031L78.0732 48.3134C78.6591 49.2793 79.1796 50.3012 79.6164 51.3542C80.0961 52.5029 80.4799 53.6972 80.7595 54.906L80.9473 55.7223H86.3423C86.6587 55.7223 86.9179 55.9819 86.9179 56.306V63.6899ZM86.3423 53.6037H82.5803C82.3007 52.561 81.9496 51.5287 81.5352 50.5317C81.1616 49.6344 80.735 48.7621 80.2655 47.9229L82.9253 45.2186C83.4274 44.7077 83.705 44.0305 83.705 43.3077C83.705 42.5828 83.4274 41.9057 82.9253 41.3989L77.7916 36.1772C76.7566 35.12 75.0685 35.12 74.0336 36.1772L71.3739 38.8815C70.5513 38.4038 69.6919 37.9676 68.8101 37.5896C67.8283 37.1659 66.8138 36.8086 65.7891 36.524V32.7002C65.7891 31.213 64.5949 30 63.1314 30H55.8686C54.4051 30 53.2109 31.213 53.2109 32.7002V36.524C52.1862 36.8086 51.1717 37.1659 50.1899 37.5896C49.3081 37.9676 48.4487 38.4038 47.6261 38.8815L44.9664 36.1772C44.4642 35.6662 43.7967 35.3837 43.0864 35.3837C42.3781 35.3837 41.7126 35.6662 41.2084 36.1772L36.0747 41.3989C35.5726 41.9057 35.295 42.5828 35.295 43.3077C35.295 44.0305 35.5726 44.7077 36.0747 45.2186L38.7345 47.9229C38.265 48.7621 37.8363 49.6344 37.4648 50.5317C37.0504 51.5287 36.6993 52.561 36.4197 53.6037H32.6577C31.1941 53.6037 30 54.8167 30 56.306V63.6899C30 65.1812 31.1941 66.3921 32.6577 66.3921H36.4197C36.6993 67.439 37.0504 68.4671 37.4648 69.4683C37.8384 70.3614 38.265 71.2359 38.7345 72.075L36.0747 74.7793C35.5726 75.2923 35.295 75.9695 35.295 76.6881C35.295 77.413 35.5726 78.0901 36.0747 78.6011L41.2084 83.8228C41.7126 84.3338 42.3781 84.6142 43.0864 84.6142C43.7967 84.6142 44.4642 84.3338 44.9664 83.8228L47.6261 81.1185C48.4487 81.5962 49.3081 82.0282 50.1899 82.4063C51.1717 82.83 52.1862 83.1872 53.2109 83.4718V87.2977C53.2109 88.787 54.4051 90 55.8686 90H63.1314C64.5949 90 65.7891 88.787 65.7891 87.2977V83.4718C66.8138 83.1872 67.8283 82.83 68.8101 82.4063C69.6919 82.0282 70.5513 81.5962 71.3739 81.1185L74.0336 83.8228C75.0685 84.8759 76.7566 84.8759 77.7916 83.8228L82.9253 78.6011C83.4274 78.0901 83.705 77.413 83.705 76.6881C83.705 75.9695 83.4274 75.2923 82.9253 74.7793L80.2655 72.075C80.735 71.2359 81.1616 70.3614 81.5352 69.4683C81.9496 68.4692 82.3007 67.439 82.5803 66.3921H86.3423C87.8059 66.3921 89 65.1812 89 63.6899V56.306C89 54.8167 87.8059 53.6037 86.3423 53.6037Z" fill="#8A5360"/>
<path d="M59.5 76.787C50.4844 76.787 43.1536 69.2543 43.1536 59.9989C43.1536 50.7414 50.4844 43.2108 59.5 43.2108C68.5156 43.2108 75.8464 50.7414 75.8464 59.9989C75.8464 69.2543 68.5156 76.787 59.5 76.787ZM59.5 41C54.5593 41 49.9122 42.9743 46.4178 46.5628C42.9214 50.1534 41 54.9243 41 59.9989C41 65.0735 42.9214 69.8466 46.4178 73.4351C49.9122 77.0214 54.5593 79 59.5 79C64.4407 79 69.0878 77.0214 72.5822 73.4351C76.0786 69.8466 78 65.0735 78 59.9989C78 54.9243 76.0786 50.1534 72.5822 46.5628C69.0878 42.9743 64.4407 41 59.5 41Z" fill="#8A5360"/>
</svg>
