<svg width="93" height="93" viewBox="0 0 93 93" fill="none" xmlns="http://www.w3.org/2000/svg">
<path d="M17.7675 91.7851L3.46404 58.2561C3.04815 57.306 2.96404 56.2234 3.23507 55.2188L11.2412 25.2146C11.6072 23.8377 12.9436 22.9358 14.4763 23.1336C15.3423 23.2489 16.0884 23.6991 16.576 24.4093C17.0635 25.1134 17.2193 25.9607 17.0214 26.7909L16.6009 28.5712C15.0838 29.1912 13.8626 30.4793 13.4249 32.1631L8.01692 53.0475C7.59013 54.7079 7.7272 56.482 8.41411 58.0583L14.2847 71.4958L17.1056 70.2621L11.2412 56.8247C10.8253 55.8808 10.7412 54.8091 10.9997 53.8169L16.4077 32.9325C16.7146 31.7534 17.9171 31.0198 19.2114 31.3267C19.8423 31.4777 20.3719 31.85 20.7021 32.3967C21.0338 32.9263 21.1288 33.5587 20.9855 34.1662C19.8423 38.9838 17.9171 47.1099 17.0339 50.8512C16.6538 52.4634 16.8049 54.1908 17.4731 55.7001L23.8967 70.4195C24.6008 72.0363 26.1288 73.0954 27.8904 73.192C29.5212 73.2465 31.0119 72.53 31.9262 71.2014C32.8467 69.8774 33.0087 68.2045 32.3654 66.7248L28.1318 57.0225C27.8842 56.4633 27.8733 55.8387 28.0945 55.2671C28.3234 54.6954 28.7564 54.2375 29.3219 53.9976C30.4885 53.4867 31.8608 54.0334 32.3717 55.2001L38.7905 69.907C40.0709 72.8369 40.2936 76.1452 39.4338 79.1888L35.5476 91.9409L38.4899 92.8428L42.3871 80.061C43.4509 76.301 43.1752 72.259 41.6176 68.6749L35.1925 53.968C34.0087 51.2484 30.8203 49.9852 28.0945 51.1706C26.7783 51.7422 25.7549 52.7951 25.2316 54.1362C24.702 55.4773 24.7331 56.9384 25.3048 58.2623L29.5384 67.9584C29.8514 68.6687 29.5384 69.2403 29.3951 69.4506C29.2502 69.6609 28.8172 70.1422 28.0477 70.1126C27.4636 70.0815 26.9527 69.7263 26.7175 69.1921L20.294 54.4665C19.8968 53.5584 19.8002 52.5303 20.0354 51.5615C20.9123 47.8201 22.8375 39.6941 23.9808 34.8811C24.3173 33.4684 24.0883 32.012 23.3251 30.7799C22.5618 29.5339 21.3516 28.6678 19.8298 28.3065L20.0167 27.5012C20.4139 25.8345 20.0837 24.0729 19.1086 22.6648C18.1336 21.2458 16.5884 20.3066 14.7598 20.0667C11.8237 19.6991 9.0278 21.5589 8.26302 24.4218L0.256924 54.4244C-0.188552 56.1035 -0.0499248 57.901 0.635422 59.4773L14.9342 93.0001L17.7675 91.7851Z" fill="#8A5360"/>
<path d="M84.1263 24.4218C83.3552 21.5589 80.5765 19.682 77.5158 20.0839C75.8009 20.3066 74.2557 21.2458 73.2806 22.6648C72.3056 24.0729 71.9754 25.8345 72.3726 27.5012L72.5579 28.3127C72.5346 28.3189 72.505 28.3189 72.4738 28.3252C71.0424 28.6616 69.8274 29.5339 69.0642 30.7799C68.2994 32.012 68.072 33.4684 68.4085 34.8811C69.5517 39.6941 71.4754 47.8202 72.3539 51.5615C72.5891 52.5304 72.4925 53.5584 72.0953 54.4665L65.6717 69.1921C65.4365 69.7263 64.9256 70.0815 64.3415 70.1126C63.5783 70.136 63.1391 69.6609 62.9942 69.4506C62.8509 69.2404 62.5378 68.6687 62.8509 67.9584L67.0845 58.2623C67.6561 56.9384 67.6857 55.4773 67.1577 54.1362C66.6343 52.7952 65.611 51.7422 64.2933 51.1706C61.5628 49.9915 58.3806 51.2484 57.1968 53.968L50.7779 68.6749C49.2141 72.259 48.9368 76.301 50.0085 80.0797L53.8043 92.8303L56.7576 91.9534L52.9617 79.2246C52.0956 76.1452 52.3184 72.8369 53.5987 69.907L60.0176 55.2001C60.5285 54.0272 61.8945 53.493 63.0674 53.9976C63.6328 54.2375 64.0658 54.6954 64.2933 55.2671C64.516 55.8387 64.5051 56.4633 64.2574 57.0225L60.0239 66.7248C59.379 68.2045 59.5426 69.8774 60.4615 71.2014C61.3759 72.53 62.9039 73.2403 64.4989 73.192C66.2605 73.0954 67.7885 72.0363 68.4926 70.4241L74.9161 55.7001C75.5843 54.1908 75.7339 52.4634 75.3554 50.8513C74.4722 47.1099 72.547 38.9839 71.4037 34.1662C71.2589 33.5587 71.3554 32.9263 71.6872 32.3967C72.0174 31.85 72.547 31.4777 73.2744 31.3033C74.4598 31.0198 75.6809 31.7534 75.9815 32.9326L81.3895 53.8169C81.6481 54.8091 81.564 55.8808 81.1481 56.8247L75.2837 70.2621L78.1046 71.4958L83.9689 58.0583C84.6605 56.482 84.7991 54.7079 84.3661 53.0475L78.9644 32.1631C78.5251 30.484 77.3164 29.2099 75.7946 28.5962L75.3678 26.7909C75.1685 25.9607 75.3258 25.1134 75.8133 24.4093C76.2993 23.6991 77.0454 23.2489 78.0204 23.1227C79.4457 22.9296 80.7821 23.8377 81.1481 25.2146L89.1542 55.2188C89.4252 56.2234 89.3411 57.306 88.919 58.2686L74.5314 91.7851L77.3585 93.0001L91.7461 59.4897C92.4392 57.901 92.5763 56.1035 92.1324 54.4244L84.1263 24.4218Z" fill="#8A5360"/>
<path d="M29.1957 5.02328C30.6038 3.77097 32.4199 3.07939 34.3093 3.07939H78.4893V0H34.3093C31.6676 0 29.124 0.968831 27.1506 2.72425L17.7068 11.1166C16.1134 12.5356 15.8065 14.9359 16.9919 16.7162C17.6772 17.7443 18.7784 18.4296 20.0043 18.5931C21.2254 18.7614 22.4653 18.3829 23.3967 17.5698L32.4807 9.61822C32.7626 9.37679 33.1177 9.23972 33.4962 9.23972H44.6549C45.5023 9.23972 46.1939 9.9313 46.1939 10.7786C46.1939 11.6275 45.5023 12.3191 44.6549 12.3191H40.0351C37.4853 12.3191 35.4152 14.3876 35.4152 16.939C35.4152 19.4888 37.4853 21.5588 40.0351 21.5588H51.4461C52.9975 21.5588 54.4959 21.0947 55.7825 20.2224L60.8961 16.7334C62.1827 15.8611 63.6811 15.3985 65.2325 15.3985H78.4893V12.3191H65.2325C63.0612 12.3191 60.9615 12.9624 59.1625 14.1898L54.0442 17.6788C53.2747 18.2022 52.3776 18.4779 51.4461 18.4779H40.0351C39.1862 18.4779 38.4946 17.7863 38.4946 16.939C38.4946 16.0901 39.1862 15.3985 40.0351 15.3985H44.6549C47.2047 15.3985 49.2748 13.33 49.2748 10.7786C49.2748 8.22884 47.2047 6.15878 44.6549 6.15878H33.4962C32.3717 6.15878 31.2953 6.56843 30.4527 7.30206L21.3703 15.249C21.0089 15.5667 20.6117 15.5667 20.4077 15.5434C20.2036 15.5122 19.8189 15.411 19.5479 14.9951C19.2114 14.4966 19.3018 13.816 19.7519 13.4141L29.1957 5.02328Z" fill="#8A5360"/>
<path d="M57.9047 39.5613L45.9992 51.3558L34.0953 39.5613C32.0688 37.5465 31.5251 34.5986 32.7203 32.0391C33.6125 30.1108 35.3561 28.7165 37.4919 28.2068C38.0653 28.0657 38.645 28.0019 39.2246 28.0019C40.8042 28.0019 42.3432 28.5056 43.6166 29.4721L45.0462 30.5629C45.6071 30.9847 46.3914 30.9847 46.9538 30.5629L48.3834 29.4721C50.1208 28.1537 52.3535 27.6909 54.5065 28.2068C56.6439 28.7165 58.3875 30.1108 59.2797 32.0391C60.4749 34.5986 59.9312 37.5465 57.9047 39.5613ZM55.244 25.2953C52.166 24.5564 48.9678 25.2195 46.4758 27.1114L45.9992 27.474L45.5227 27.1114C43.0306 25.2195 39.8402 24.5564 36.756 25.2953C33.6906 26.022 31.1939 28.0308 29.9018 30.8026C28.1831 34.4939 28.9612 38.7587 31.8938 41.6595L44.8962 54.5494C45.1852 54.8361 45.5836 55 45.9992 55C46.4164 55 46.8148 54.8361 47.1038 54.5494L60.1062 41.6595C63.0388 38.7587 63.8169 34.4939 62.0982 30.7966C60.8061 28.0308 58.3078 26.022 55.244 25.2953Z" fill="#8A5360"/>
</svg>
