<svg width="60" height="60" viewBox="0 0 60 60" fill="none" xmlns="http://www.w3.org/2000/svg">
<circle cx="30" cy="30" r="30" fill="#D1B166"/>
<path d="M41.9047 21.8861C41.9047 22.9255 41.0285 23.7723 39.9524 23.7723C38.8765 23.7723 38 22.9255 38 21.8861C38 20.8468 38.8765 20 39.9524 20C41.0285 20 41.9047 20.8397 41.9047 21.8861Z" fill="white"/>
<path d="M30.2659 22C25.1463 22 21 26.0072 21 30.9552C21 35.9032 25.1541 39.9183 30.2738 39.9183C35.3934 39.9183 39.5475 35.9111 39.5475 30.9552C39.5397 26.0072 35.3856 22 30.2659 22ZM30.2659 36.7752C26.9426 36.7752 24.2522 34.175 24.2522 30.9631C24.2522 27.7509 26.9426 25.1507 30.2659 25.1507C33.5893 25.1507 36.2797 27.7509 36.2797 30.9631C36.2875 34.1674 33.5893 36.7752 30.2659 36.7752Z" fill="white"/>
<path d="M30.0758 16.9724C34.6349 16.9724 35.1738 16.9867 36.9779 17.0664C38.6397 17.1386 39.5458 17.4062 40.152 17.6377C40.9457 17.9342 41.5145 18.2958 42.1133 18.8743C42.7124 19.4528 43.079 20.0027 43.3937 20.7691C43.6256 21.3476 43.9026 22.2229 43.985 23.8355C44.0672 25.5784 44.0823 26.0993 44.0823 30.5037C44.0823 34.9079 44.0672 35.4288 43.985 37.1717C43.91 38.7771 43.633 39.6521 43.3937 40.2381C43.0867 41.0048 42.7124 41.5543 42.1133 42.1328C41.5145 42.7113 40.9457 43.0658 40.152 43.3695C39.5532 43.5938 38.6474 43.8614 36.9779 43.9408C35.1738 44.0204 34.6349 44.0351 30.0758 44.0351C25.5167 44.0351 24.9779 44.0204 23.1737 43.9408C21.5117 43.8686 20.6059 43.601 19.9994 43.3695C19.206 43.0729 18.6369 42.7113 18.0381 42.1328C17.4393 41.5543 17.0724 41.0048 16.758 40.2381C16.5261 39.6596 16.2491 38.7845 16.1666 37.1717C16.0842 35.4288 16.0694 34.9079 16.0694 30.5037C16.0694 26.0993 16.0842 25.5784 16.1666 23.8355C16.2414 22.2301 16.5184 21.355 16.758 20.7691C17.065 20.0027 17.4393 19.4528 18.0381 18.8743C18.6369 18.2958 19.206 17.9414 19.9994 17.6377C20.5985 17.4133 21.5043 17.1457 23.1737 17.0664C24.9779 16.9867 25.5167 16.9724 30.0758 16.9724ZM30.0758 14C25.4343 14 24.858 14.0215 23.0314 14.1011C21.2121 14.1808 19.9694 14.4627 18.8839 14.8679C17.7611 15.2873 16.8105 15.8512 15.8597 16.7698C14.9165 17.6884 14.3326 18.6067 13.8984 19.6915C13.479 20.7402 13.1871 21.9407 13.1047 23.6982C13.0225 25.4555 13 26.0196 13 30.4963C13 34.9804 13.0225 35.5371 13.1047 37.3018C13.1871 39.0593 13.479 40.2598 13.8984 41.3085C14.3326 42.3933 14.9165 43.3116 15.8671 44.2302C16.8179 45.1488 17.7688 45.7127 18.8916 46.1321C19.9771 46.5373 21.2198 46.8192 23.0388 46.8989C24.858 46.9785 25.442 47 30.0833 47C34.7245 47 35.3011 46.9785 37.1277 46.8989C38.9467 46.8192 40.1894 46.5373 41.2749 46.1321C42.3977 45.7127 43.3486 45.1488 44.2994 44.2302C45.25 43.3116 45.834 42.3933 46.2682 41.3085C46.6875 40.2598 46.9794 39.0593 47.0618 37.3018C47.144 35.5445 47.1665 34.9804 47.1665 30.4963C47.1665 26.0125 47.144 25.4555 47.0618 23.6911C46.9794 21.9335 46.6875 20.733 46.2682 19.6843C45.834 18.5996 45.25 17.681 44.2994 16.7627C43.3486 15.8441 42.3977 15.2799 41.2749 14.8604C40.1894 14.4556 38.9467 14.1733 37.1277 14.094C35.3011 14.0215 34.7171 14 30.0758 14Z" fill="white"/>
</svg>
