<svg width="60" height="60" viewBox="0 0 60 60" fill="none" xmlns="http://www.w3.org/2000/svg">
<circle cx="30" cy="30" r="30" fill="#D1B166"/>
<path d="M45.4128 17H13.7586C13.7009 17 13.6435 17.0029 13.5861 17.0091C13.529 17.015 13.4719 17.0242 13.4154 17.0359C13.3589 17.048 13.3031 17.063 13.2481 17.081C13.1928 17.0986 13.1388 17.1195 13.0857 17.143C13.0322 17.1665 12.9803 17.1929 12.9294 17.222C12.8787 17.251 12.8292 17.2824 12.7816 17.3167C12.7337 17.3509 12.6872 17.3875 12.6427 17.4267C12.5984 17.4658 12.5557 17.507 12.5151 17.5507C12.4741 17.5941 12.4357 17.6398 12.399 17.6872C12.3624 17.7348 12.3282 17.7844 12.2961 17.8357C12.2641 17.8866 12.2348 17.9395 12.2076 17.9937C12.1804 18.0482 12.1557 18.1037 12.1337 18.1605C12.1117 18.2176 12.0922 18.2754 12.0757 18.3345C12.0589 18.3933 12.0449 18.453 12.0336 18.5134C12.0226 18.5738 12.014 18.6348 12.0085 18.6959C12.0027 18.7573 12 18.8186 12 18.8803V41.4442C12 41.5059 12.0027 41.5672 12.0085 41.6286C12.014 41.6896 12.0226 41.7507 12.0336 41.8111C12.0449 41.8715 12.0589 41.9312 12.0757 41.99C12.0922 42.0491 12.1117 42.1068 12.1337 42.1636C12.1557 42.2208 12.1804 42.2763 12.2076 42.3308C12.2348 42.385 12.2641 42.4379 12.2961 42.4888C12.3282 42.54 12.3624 42.5897 12.399 42.637C12.4357 42.6846 12.4741 42.7304 12.5151 42.7738C12.5557 42.8175 12.5984 42.8586 12.6427 42.8978C12.6872 42.937 12.7337 42.9736 12.7816 43.0078C12.8292 43.0421 12.8787 43.0734 12.9294 43.1025C12.9803 43.1315 13.0322 43.158 13.0857 43.1815C13.1388 43.205 13.1928 43.2259 13.2481 43.2435C13.3031 43.2615 13.3589 43.2765 13.4154 43.2886C13.4719 43.3003 13.529 43.3095 13.5861 43.3153C13.6435 43.3215 13.7009 43.3245 13.7586 43.3245H45.4128C45.4705 43.3245 45.5279 43.3215 45.5853 43.3153C45.6424 43.3095 45.6995 43.3003 45.756 43.2886C45.8125 43.2765 45.8684 43.2615 45.9233 43.2435C45.9786 43.2259 46.0326 43.205 46.0857 43.1815C46.1392 43.158 46.1911 43.1315 46.242 43.1025C46.2927 43.0734 46.3422 43.0421 46.3898 43.0078C46.4377 42.9736 46.4842 42.937 46.5287 42.8978C46.573 42.8586 46.6157 42.8175 46.6563 42.7738C46.6973 42.7304 46.7357 42.6846 46.7724 42.637C46.809 42.5897 46.8432 42.54 46.8753 42.4888C46.9073 42.4379 46.9366 42.385 46.9638 42.3308C46.991 42.2763 47.0157 42.2208 47.0377 42.1636C47.0597 42.1068 47.0792 42.0491 47.0957 41.99C47.1125 41.9312 47.1265 41.8715 47.1378 41.8111C47.1488 41.7507 47.1574 41.6896 47.1629 41.6286C47.1687 41.5672 47.1714 41.5059 47.1714 41.4442V18.8803C47.1714 18.8186 47.1687 18.7573 47.1629 18.6959C47.1574 18.6348 47.1488 18.5738 47.1378 18.5134C47.1265 18.453 47.1125 18.3933 47.0957 18.3345C47.0792 18.2754 47.0597 18.2176 47.0377 18.1605C47.0157 18.1037 46.991 18.0482 46.9638 17.9937C46.9366 17.9395 46.9073 17.8866 46.8753 17.8357C46.8432 17.7844 46.809 17.7348 46.7724 17.6872C46.7357 17.6398 46.6973 17.5941 46.6563 17.5507C46.6157 17.507 46.573 17.4658 46.5287 17.4267C46.4842 17.3875 46.4377 17.3509 46.3898 17.3167C46.3422 17.2824 46.2927 17.251 46.242 17.222C46.1911 17.1929 46.1392 17.1665 46.0857 17.143C46.0326 17.1195 45.9786 17.0986 45.9233 17.081C45.8684 17.063 45.8125 17.048 45.756 17.0359C45.6995 17.0242 45.6424 17.015 45.5853 17.0091C45.5279 17.0029 45.4705 17 45.4128 17ZM39.6044 20.7606L29.5857 27.9019L19.567 20.7606H39.6044ZM15.5171 39.5638V22.3935L28.6102 31.7266C28.682 31.7778 28.7571 31.8232 28.8349 31.8627C28.9131 31.9019 28.9934 31.9352 29.0761 31.9619C29.1586 31.9887 29.2428 32.0086 29.328 32.0223C29.4135 32.0357 29.4993 32.0426 29.5857 32.0426C29.6721 32.0426 29.7579 32.0357 29.8434 32.0223C29.9286 32.0086 30.0128 31.9887 30.0953 31.9619C30.178 31.9352 30.2583 31.9019 30.3365 31.8627C30.4143 31.8232 30.4894 31.7778 30.5612 31.7266L43.6543 22.3935V39.5638H15.5171Z" fill="white"/>
</svg>
