<svg width="60" height="60" viewBox="0 0 60 60" fill="none" xmlns="http://www.w3.org/2000/svg">
<circle cx="30" cy="30" r="30" fill="#D1B166"/>
<path d="M30.0986 14C21.2452 14 14.0377 21.166 14.0346 29.9765C14.0329 32.7929 14.7741 35.5421 16.1794 37.9648L14 46.0031L22.4137 44.0248C24.7598 45.2985 27.4007 45.9669 30.0894 45.9686H30.0955C38.9476 45.9686 46.1517 38.801 46.1567 29.9921C46.1598 25.7214 44.4909 21.706 41.4584 18.6849C38.4255 15.6654 34.3952 14.0017 30.0986 14ZM30.0955 17.2003C33.5304 17.202 36.7581 18.5346 39.1846 20.9476C41.6111 23.3637 42.9438 26.5743 42.9407 29.989C42.9374 37.0361 37.1774 42.7683 30.0924 42.7683C27.949 42.7666 25.8257 42.2313 23.9556 41.2151L22.8721 40.6275L21.6756 40.9087L18.5099 41.6526L19.2824 38.796L19.631 37.5147L18.9652 36.3646C17.843 34.4317 17.2489 32.2215 17.2506 29.9765C17.2537 22.9325 23.0156 17.2003 30.0955 17.2003ZM24.4142 22.6008C24.1457 22.6008 23.7116 22.7008 23.3434 23.1009C22.9751 23.4992 21.9364 24.4643 21.9364 26.4292C21.9364 28.3944 23.3746 30.2938 23.5756 30.561C23.775 30.8266 26.3522 34.9864 30.4316 36.5866C33.8213 37.9162 34.5097 37.6539 35.2461 37.5867C35.9825 37.5211 37.6221 36.6224 37.9565 35.6896C38.291 34.7567 38.2918 33.9541 38.1921 33.7894C38.0925 33.623 37.8245 33.5238 37.4225 33.3238C37.0222 33.1238 35.049 32.1595 34.6808 32.0267C34.3126 31.8939 34.0432 31.8267 33.7763 32.2267C33.5094 32.6268 32.7423 33.5238 32.5075 33.7894C32.2727 34.0566 32.0396 34.0925 31.6376 33.8925C31.2356 33.6908 29.9431 33.268 28.4091 31.9078C27.2159 30.8502 26.4108 29.5451 26.176 29.1451C25.9429 28.7467 26.154 28.5278 26.355 28.3294C26.5353 28.1502 26.7539 27.863 26.9549 27.6294C27.1542 27.3957 27.2235 27.2293 27.3569 26.9637C27.4904 26.6982 27.4222 26.4637 27.3223 26.2637C27.2226 26.0637 26.4421 24.0912 26.085 23.3009C25.7844 22.6369 25.4667 22.6214 25.1805 22.6103C24.9474 22.6005 24.6811 22.6008 24.4142 22.6008Z" fill="white"/>
</svg>
