<svg width="100" height="79" viewBox="0 0 100 79" fill="none" xmlns="http://www.w3.org/2000/svg">
<path d="M65 48.5C65 49.0578 65.0589 49.6114 65.1721 50.1585C65.2875 50.7057 65.4596 51.2379 65.686 51.753C65.9123 52.268 66.1885 52.7575 66.5168 53.2234C66.8451 53.6872 67.2186 54.1168 67.6351 54.5101C68.054 54.9055 68.509 55.2581 69.0003 55.568C69.4915 55.8779 70.0099 56.1408 70.5555 56.3524C71.1011 56.5661 71.6648 56.7286 72.2444 56.8376C72.8239 56.9466 73.408 57 73.9989 57C74.5897 57 75.1761 56.9466 75.7556 56.8376C76.3352 56.7286 76.8989 56.5661 77.4445 56.3524C77.9901 56.1408 78.5085 55.8779 78.9997 55.568C79.491 55.2581 79.946 54.9055 80.3626 54.5101C80.7814 54.1168 81.1549 53.6872 81.4832 53.2234C81.8115 52.7575 82.0877 52.268 82.314 51.753C82.5404 51.2379 82.7102 50.7057 82.8257 50.1585C82.9411 49.6114 83 49.0578 83 48.5C83 47.9422 82.9411 47.3886 82.8257 46.8415C82.7102 46.2943 82.5404 45.7621 82.314 45.247C82.0877 44.732 81.8115 44.2425 81.4832 43.7766C81.1549 43.3128 80.7814 42.8832 80.3626 42.4899C79.946 42.0945 79.491 41.7419 78.9997 41.432C78.5085 41.1221 77.9901 40.8613 77.4445 40.6476C76.8989 40.4339 76.3352 40.2714 75.7556 40.1624C75.1761 40.0534 74.5897 40 73.9989 40C73.4103 40 72.8239 40.0556 72.2444 40.1667C71.6671 40.2757 71.1034 40.4381 70.5578 40.6519C70.0122 40.8656 69.496 41.1285 69.0048 41.4384C68.5135 41.7483 68.0585 42.101 67.6419 42.4942C67.2231 42.8896 66.8518 43.3171 66.5236 43.7809C66.1931 44.2447 65.9169 44.7341 65.6905 45.2492C65.4641 45.7643 65.292 46.2965 65.1766 46.8436C65.0611 47.3907 65.0023 47.9422 65 48.5ZM73.9989 43.253C74.3656 43.253 74.7256 43.2872 75.0833 43.3534C75.441 43.4218 75.7896 43.5201 76.1246 43.6526C76.462 43.7851 76.7834 43.9454 77.0868 44.1378C77.3901 44.328 77.6709 44.546 77.9289 44.7897C78.1848 45.0333 78.4157 45.2983 78.6194 45.5847C78.8209 45.8711 78.993 46.1746 79.1311 46.4931C79.2714 46.8094 79.3778 47.1385 79.448 47.4762C79.5204 47.8139 79.5544 48.1559 79.5544 48.5C79.5544 48.8441 79.5204 49.1861 79.448 49.5238C79.3778 49.8615 79.2714 50.1906 79.1311 50.5091C78.993 50.8254 78.8209 51.1289 78.6194 51.4153C78.4157 51.7017 78.1848 51.9667 77.9289 52.2103C77.6709 52.454 77.3901 52.672 77.0868 52.8622C76.7834 53.0546 76.462 53.217 76.1246 53.3474C75.7896 53.4799 75.441 53.5782 75.0833 53.6466C74.7256 53.7128 74.3656 53.747 73.9989 53.747C73.6344 53.747 73.2744 53.7128 72.9167 53.6466C72.559 53.5782 72.2104 53.4799 71.8731 53.3474C71.5358 53.217 71.2166 53.0546 70.9132 52.8622C70.6099 52.672 70.3291 52.454 70.0711 52.2103C69.813 51.9667 69.5843 51.7017 69.3806 51.4153C69.1791 51.1289 69.007 50.8254 68.8667 50.5091C68.7286 50.1906 68.6222 49.8615 68.552 49.5238C68.4796 49.1861 68.4433 48.8441 68.4433 48.5C68.4433 48.1559 68.4796 47.8139 68.552 47.4762C68.6222 47.1385 68.7286 46.8094 68.8667 46.4931C69.007 46.1746 69.1791 45.8711 69.3806 45.5847C69.5843 45.2983 69.813 45.0333 70.0711 44.7897C70.3291 44.546 70.6099 44.328 70.9132 44.1378C71.2166 43.9454 71.5358 43.7851 71.8731 43.6526C72.2104 43.5201 72.559 43.4218 72.9167 43.3534C73.2744 43.2872 73.6344 43.253 73.9989 43.253Z" fill="#8A5360"/>
<path d="M28 60.5C28 60.7947 28.0286 61.0872 28.0858 61.3776C28.1431 61.6679 28.2289 61.9494 28.3412 62.2221C28.4556 62.4949 28.5943 62.7544 28.7572 62.9985C28.9222 63.2449 29.1093 63.4714 29.3184 63.6804C29.5275 63.8893 29.7542 64.0762 29.9985 64.2412C30.245 64.404 30.5048 64.5447 30.7777 64.6569C31.0506 64.7691 31.3324 64.8548 31.6229 64.912C31.9112 64.9714 32.204 65 32.5011 65C32.796 65 33.0888 64.9714 33.3793 64.912C33.6676 64.8548 33.9494 64.7691 34.2223 64.6569C34.4952 64.5447 34.755 64.404 35.0015 64.2412C35.2458 64.0762 35.4747 63.8893 35.6838 63.6804C35.8907 63.4714 36.0778 63.2449 36.2428 62.9985C36.4057 62.7544 36.5444 62.4949 36.6588 62.2221C36.7711 61.9494 36.8569 61.6679 36.9142 61.3776C36.9714 61.0872 37 60.7947 37 60.5C37 60.2031 36.9714 59.9106 36.9142 59.6224C36.8569 59.3321 36.7711 59.0506 36.6588 58.7779C36.5444 58.5051 36.4057 58.2456 36.2428 57.9993C36.0778 57.7529 35.8907 57.5264 35.6838 57.3174C35.4747 57.1085 35.2458 56.9216 35.0015 56.7588C34.755 56.5938 34.4952 56.4553 34.2223 56.3431C33.9494 56.2287 33.6676 56.143 33.3793 56.0858C33.0888 56.0286 32.796 56 32.5011 56C32.204 56 31.9112 56.0286 31.6229 56.0858C31.3324 56.143 31.0506 56.2287 30.7777 56.3431C30.5048 56.4553 30.245 56.5938 29.9985 56.7588C29.7542 56.9216 29.5275 57.1085 29.3184 57.3174C29.1093 57.5264 28.9222 57.7529 28.7572 57.9993C28.5943 58.2456 28.4556 58.5051 28.3412 58.7779C28.2289 59.0506 28.1431 59.3321 28.0858 59.6224C28.0286 59.9106 28 60.2031 28 60.5ZM32.5011 59.3475C32.653 59.3475 32.8004 59.3761 32.9413 59.4355C33.0822 59.4949 33.2076 59.5762 33.3155 59.684C33.4233 59.794 33.507 59.9172 33.5642 60.0579C33.6236 60.2009 33.6522 60.346 33.6522 60.5C33.6522 60.6518 33.6236 60.7991 33.5642 60.9399C33.507 61.0806 33.4233 61.206 33.3155 61.3138C33.2076 61.4216 33.0822 61.5051 32.9413 61.5645C32.8004 61.6217 32.653 61.6525 32.5011 61.6525C32.347 61.6525 32.1996 61.6217 32.0587 61.5645C31.9178 61.5051 31.7924 61.4216 31.6845 61.3138C31.5767 61.206 31.493 61.0806 31.4358 60.9399C31.3764 60.7991 31.3478 60.6518 31.3478 60.5C31.3412 60.3416 31.3654 60.1899 31.4204 60.0425C31.4754 59.8952 31.5569 59.7632 31.6647 59.6488C31.7748 59.5367 31.9024 59.4487 32.0455 59.3871C32.1908 59.3233 32.3426 59.2925 32.5011 59.2947V59.3475Z" fill="#8A5360"/>
<path d="M71.5 16C71.7971 16 72.0897 15.9714 72.378 15.9142C72.6685 15.857 72.9501 15.7712 73.223 15.659C73.4958 15.5446 73.7555 15.406 73.9998 15.2432C74.2462 15.0782 74.4729 14.8912 74.6819 14.6822C74.891 14.4732 75.078 14.2466 75.243 14.0002C75.4059 13.7538 75.5445 13.4965 75.6589 13.2215C75.7711 12.9487 75.857 12.6671 75.9142 12.3789C75.9714 12.0885 76 11.7959 76 11.5011C76 11.2041 75.9714 10.9115 75.9142 10.6211C75.857 10.3329 75.7711 10.0513 75.6589 9.77854C75.5445 9.50354 75.4059 9.24615 75.243 8.99976C75.078 8.75336 74.891 8.52677 74.6819 8.31777C74.4729 8.10878 74.2462 7.92178 73.9998 7.75678C73.7555 7.59399 73.4958 7.45539 73.223 7.34099C72.9501 7.22879 72.6685 7.143 72.378 7.0858C72.0897 7.0286 71.7971 7 71.5 7C71.2051 7 70.9125 7.0286 70.622 7.0858C70.3337 7.143 70.0521 7.22879 69.7792 7.34099C69.5064 7.45539 69.2467 7.59399 69.0002 7.75678C68.756 7.92178 68.5271 8.10878 68.3181 8.31777C68.109 8.52677 67.9242 8.75336 67.7592 8.99976C67.5941 9.24615 67.4555 9.50354 67.3433 9.77854C67.2311 10.0513 67.1452 10.3329 67.088 10.6211C67.0286 10.9115 67 11.2041 67 11.5011C67 11.7959 67.0286 12.0885 67.088 12.3789C67.1452 12.6671 67.2311 12.9487 67.3433 13.2215C67.4555 13.4965 67.5941 13.7538 67.7592 14.0002C67.9242 14.2466 68.109 14.4732 68.3181 14.6822C68.5271 14.8912 68.756 15.0782 69.0002 15.2432C69.2467 15.406 69.5064 15.5446 69.7792 15.659C70.0521 15.7712 70.3337 15.857 70.622 15.9142C70.9125 15.9714 71.2051 16 71.5 16ZM72.6531 11.5011C72.6553 11.6529 72.6289 11.8003 72.5716 11.9433C72.5144 12.0863 72.433 12.2117 72.3252 12.3217C72.2196 12.4317 72.0941 12.5175 71.9533 12.5769C71.8125 12.6385 71.6672 12.6693 71.5132 12.6693C71.3592 12.6715 71.2117 12.6429 71.0687 12.5857C70.9279 12.5285 70.8024 12.4471 70.6924 12.3393C70.5824 12.2315 70.4988 12.1083 70.4394 11.9653C70.38 11.8245 70.3491 11.6771 70.3491 11.5231C70.3491 11.3713 70.3778 11.2239 70.435 11.0809C70.4922 10.9401 70.5758 10.8147 70.6836 10.7047C70.7914 10.5969 70.9169 10.5133 71.0577 10.4539C71.2007 10.3945 71.3482 10.3659 71.5 10.3659C71.6518 10.3659 71.7971 10.3945 71.9379 10.4517C72.0765 10.5089 72.202 10.5903 72.3098 10.6959C72.4176 10.8037 72.5012 10.9247 72.5606 11.0655C72.62 11.2041 72.6509 11.3493 72.6531 11.5011Z" fill="#8A5360"/>
<path d="M48.2731 37C47.8134 37 47.4222 37.1809 47.0973 37.5452C46.6177 38.083 46.0652 38.4994 45.4375 38.7893C44.8121 39.0818 44.1601 39.228 43.4816 39.2305C42.803 39.233 42.151 39.0892 41.5234 38.7968C40.8957 38.5043 40.3431 38.088 39.8658 37.5452C39.5298 37.1933 39.1342 37.0099 38.6723 37C38.3363 37 38.0269 37.1066 37.7462 37.3172C37.4655 37.5279 37.2622 37.8079 37.1318 38.1574C37.0014 38.5068 36.9683 38.8686 37.0301 39.2404C37.0942 39.6121 37.2445 39.9318 37.481 40.2045C37.8744 40.6456 38.3054 41.0421 38.7695 41.3916C39.2359 41.7385 39.7265 42.0335 40.2415 42.2739C40.7587 42.5143 41.2913 42.6952 41.8394 42.8166C42.3875 42.938 42.9423 43 43.4992 43C44.0584 43 44.6131 42.938 45.1613 42.8166C45.7094 42.6952 46.242 42.5143 46.7592 42.2739C47.2742 42.0335 47.7648 41.7385 48.2289 41.3916C48.6953 41.0421 49.124 40.6456 49.5197 40.2045C49.7561 39.9318 49.9064 39.6121 49.9683 39.2404C50.0324 38.8686 49.9993 38.5068 49.8689 38.1574C49.7385 37.8079 49.5329 37.5279 49.2544 37.3172C48.9738 37.1066 48.6643 37 48.3262 37H48.2731Z" fill="#8A5360"/>
<path d="M38.5934 30C39.0174 29.9897 39.3843 29.8372 39.6942 29.5447C40.1325 29.0915 40.6421 28.7433 41.221 28.4981C41.7979 28.2509 42.4013 28.1294 43.0292 28.1273C43.655 28.1314 44.2564 28.2571 44.8353 28.5023C45.4122 28.7474 45.9218 29.0956 46.3642 29.5447C46.5089 29.6889 46.6761 29.8022 46.8657 29.8805C47.0532 29.9588 47.251 29.9979 47.4548 29.9979C47.6607 29.9979 47.8564 29.9588 48.046 29.8805C48.2356 29.8022 48.4027 29.6889 48.5475 29.5447C48.6922 29.3964 48.8043 29.2254 48.8818 29.0317C48.9592 28.8401 49 28.6403 49 28.4302C49 28.2221 48.9592 28.0222 48.8818 27.8307C48.8043 27.637 48.6922 27.466 48.5475 27.3177C48.1826 26.951 47.785 26.6234 47.357 26.335C46.9268 26.0445 46.4743 25.8014 45.9993 25.6036C45.5223 25.4038 45.031 25.2534 44.5255 25.1525C44.0199 25.0515 43.5103 25 42.9945 25C42.4808 25 41.9692 25.0515 41.4636 25.1525C40.9581 25.2534 40.4688 25.4038 39.9918 25.6036C39.5148 25.8014 39.0622 26.0445 38.6342 26.335C38.204 26.6234 37.8086 26.951 37.4437 27.3177C37.2255 27.5443 37.0869 27.8101 37.0278 28.1191C36.9707 28.4281 37.0013 28.7289 37.1216 29.0194C37.2398 29.3098 37.4294 29.5426 37.6883 29.7178C37.9472 29.8929 38.2326 29.9794 38.5424 29.9815L38.5934 30Z" fill="#8A5360"/>
<path d="M50 65.9834C50 66.2474 50.0235 66.5074 50.0743 66.7656C50.1252 67.0237 50.1995 67.274 50.2993 67.5165C50.399 67.7609 50.5222 67.9916 50.667 68.2106C50.8117 68.4297 50.978 68.633 51.1619 68.8188C51.3477 69.0065 51.5491 69.1727 51.7682 69.3194C51.9853 69.4661 52.2161 69.5892 52.4587 69.6909C52.7012 69.7926 52.9516 69.8689 53.2078 69.9217C53.466 69.9725 53.7262 69.9999 53.9902 69.9999C54.2523 70.0019 54.5125 69.9764 54.7707 69.9256C55.0289 69.8747 55.2792 69.8004 55.5218 69.6988C55.7643 69.599 55.9971 69.4758 56.2142 69.3311C56.4333 69.1845 56.6367 69.0202 56.8225 68.8344C57.0083 68.6487 57.1746 68.4473 57.3213 68.2282C57.468 68.0092 57.5912 67.7804 57.6929 67.536C57.7946 67.2935 57.8709 67.0432 57.9218 66.7871C57.9726 66.529 58 66.2689 58 66.0049C58 65.7429 57.9746 65.4828 57.9237 65.2247C57.8729 64.9665 57.7966 64.7162 57.6968 64.4718C57.5971 64.2293 57.4738 63.9986 57.3271 63.7796C57.1824 63.5606 57.0161 63.3592 56.8303 63.1734C56.6445 62.9876 56.443 62.8214 56.224 62.6747C56.0049 62.5281 55.7741 62.4049 55.5315 62.3052C55.289 62.2035 55.0386 62.1272 54.7804 62.0764C54.5242 62.0255 54.2621 62.0001 54 62.0001C53.7379 61.9981 53.4778 62.0236 53.2215 62.0725C52.9633 62.1233 52.713 62.1976 52.4704 62.2973C52.2279 62.3971 51.9971 62.5203 51.78 62.665C51.5609 62.8097 51.3594 62.9759 51.1736 63.1597C50.9878 63.3455 50.8215 63.5469 50.6748 63.7659C50.5281 63.9829 50.4049 64.2137 50.3051 64.4562C50.2054 64.6967 50.1291 64.947 50.0763 65.2051C50.0254 65.4613 50 65.7213 50 65.9834ZM52.977 65.9834C52.977 65.8485 53.0024 65.7174 53.0533 65.5923C53.1061 65.4671 53.1804 65.3557 53.2763 65.2599C53.3721 65.164 53.4836 65.0897 53.6088 65.0369C53.734 64.9861 53.865 64.9587 54 64.9587C54.135 64.9587 54.266 64.9861 54.3912 65.0369C54.5183 65.0897 54.6279 65.164 54.7237 65.2599C54.8196 65.3557 54.8939 65.4671 54.9467 65.5923C54.9976 65.7174 55.0249 65.8485 55.0249 65.9834C55.0249 66.1203 54.9976 66.2493 54.9467 66.3764C54.8939 66.5016 54.8196 66.6111 54.7237 66.7089C54.6279 66.8047 54.5183 66.879 54.3912 66.9298C54.266 66.9826 54.135 67.008 54 67.008C53.865 67.008 53.734 66.9826 53.6088 66.9298C53.4836 66.879 53.3721 66.8047 53.2763 66.7089C53.1804 66.6111 53.1061 66.5016 53.0533 66.3764C53.0024 66.2493 52.977 66.1203 52.977 65.9834Z" fill="#8A5360"/>
<path d="M99.678 20.0371C99.6583 19.8334 99.6014 19.6407 99.5116 19.4567C99.4196 19.2749 99.2992 19.1129 99.148 18.9749C98.9991 18.8347 98.8283 18.7274 98.6378 18.6508C98.4494 18.5763 98.2523 18.5347 98.0464 18.5325H97.8493C97.6347 18.5544 97.4288 18.6179 97.2383 18.7208C97.0456 18.8238 96.8813 18.9574 96.7411 19.126C96.6032 19.2925 96.5002 19.4808 96.4345 19.6889C96.3688 19.8947 96.3447 20.1072 96.3623 20.324C96.5856 22.4155 96.6995 24.5114 96.7039 26.6161C96.7017 27.4089 96.682 28.2039 96.6426 28.9967C96.6032 29.7917 96.544 30.5823 96.4652 31.373C96.3863 32.1636 96.2878 32.952 96.1717 33.7383C96.0535 34.5245 95.9177 35.3064 95.7622 36.086C95.6067 36.8657 95.4315 37.6388 95.2387 38.4097C95.0438 39.1806 94.8314 39.9472 94.6014 40.7071C94.3693 41.4671 94.1196 42.2205 93.8524 42.9673C93.583 43.7163 93.2983 44.4565 92.9939 45.1902C92.6895 45.9239 92.3675 46.651 92.0259 47.3694C91.6864 48.0877 91.3294 48.7951 90.9549 49.4959C90.5804 50.1968 90.1884 50.8888 89.7789 51.5699C89.3715 52.2511 88.9466 52.9212 88.5042 53.5826C88.064 54.2418 87.6063 54.8923 87.1332 55.5296C86.658 56.1669 86.1696 56.7933 85.6659 57.4087C85.1622 58.0219 84.6431 58.622 84.1109 59.2111C83.5765 59.8003 83.029 60.3763 82.4684 60.9369C81.9055 61.4998 81.3317 62.0473 80.7426 62.5795C80.1534 63.1139 79.5534 63.6329 78.9379 64.1366C78.3247 64.6404 77.6983 65.1288 77.061 65.6018C76.4237 66.0749 75.7733 66.5326 75.1141 66.975C74.4526 67.4152 73.7825 67.8401 73.1014 68.2496C72.4202 68.657 71.7304 69.049 71.0295 69.4235C70.3287 69.798 69.6191 70.155 68.9008 70.4967C68.1846 70.8361 67.4575 71.1581 66.7238 71.4625C65.9902 71.7669 65.2499 72.0516 64.5031 72.321C63.7541 72.5882 63.0007 72.8379 62.2407 73.0678C61.4808 73.3 60.7164 73.5124 59.9455 73.7051C59.1768 73.8979 58.4015 74.0731 57.6218 74.2286C56.8444 74.384 56.0625 74.5198 55.2763 74.6359C54.49 74.7542 53.7016 74.8505 52.9132 74.9294C52.1225 75.0082 51.3297 75.0674 50.5369 75.1068C49.7441 75.1462 48.9491 75.1659 48.1563 75.1659C47.2189 75.1637 46.2838 75.1243 45.3486 75.052C44.4156 74.9798 43.4848 74.8746 42.5584 74.7345C41.632 74.5943 40.71 74.4213 39.7967 74.2154C38.8835 74.0095 37.9768 73.7708 37.081 73.4971C36.1853 73.2255 35.2983 72.9211 34.4245 72.5838C33.5506 72.2487 32.6877 71.8808 31.8402 71.48C30.9926 71.0814 30.1604 70.6521 29.3435 70.1922C28.5266 69.7345 27.7272 69.2439 26.9475 68.7271C26.1657 68.2102 25.4035 67.6649 24.6611 67.0911C23.9208 66.5195 23.2003 65.9194 22.5016 65.2952C21.803 64.6688 21.1285 64.0206 20.478 63.346C19.8275 62.6715 19.2012 61.975 18.6011 61.2545C17.9988 60.5361 17.425 59.7959 16.8797 59.0337C16.3322 58.2738 15.8131 57.4919 15.3225 56.6947C14.832 55.8954 14.372 55.0806 13.9406 54.2462C13.5091 53.414 13.1084 52.5686 12.7404 51.7057C13.1412 51.4911 13.5223 51.248 13.8837 50.972C14.2472 50.6983 14.5845 50.396 14.8999 50.0675C15.213 49.7368 15.4999 49.3864 15.7584 49.0119C16.0168 48.6374 16.2446 48.2454 16.4417 47.8358C16.6388 47.4241 16.8008 47.0014 16.9301 46.5656C17.0593 46.1298 17.1535 45.6852 17.2126 45.234C17.2717 44.7829 17.2936 44.3295 17.2805 43.8762C17.2673 43.4206 17.2192 42.9695 17.1359 42.5227C17.0505 42.0759 16.9323 41.6379 16.7789 41.2108C16.6234 40.7816 16.4373 40.3698 16.2183 39.9712C15.9993 39.5726 15.7496 39.1938 15.4693 38.8346C15.1911 38.4754 14.8845 38.1403 14.5516 37.8293C14.2209 37.5205 13.8639 37.238 13.4872 36.984C13.1106 36.7299 12.7163 36.5065 12.3024 36.316C11.8907 36.1233 11.4658 35.9656 11.0278 35.8429C10.5898 35.7181 10.1452 35.6305 9.69402 35.5757C9.74001 34.3011 9.86485 33.0352 10.0685 31.7759C10.2722 30.5166 10.5547 29.2749 10.9161 28.0506C11.2753 26.8264 11.7111 25.6306 12.2214 24.4611C12.7317 23.2916 13.3142 22.1593 13.9669 21.0642C14.6195 19.967 15.3379 18.9158 16.1219 17.9105C16.906 16.9053 17.7513 15.9526 18.6537 15.0525C19.5582 14.1545 20.5152 13.3135 21.5249 12.5339C22.5345 11.7564 23.5901 11.0424 24.6873 10.3963C24.891 10.6679 25.1144 10.922 25.3553 11.1585C25.5984 11.3972 25.859 11.614 26.135 11.8089C26.4109 12.006 26.7022 12.1791 27.0045 12.3302C27.3089 12.4813 27.6221 12.6083 27.9462 12.7113C28.2681 12.812 28.5988 12.8887 28.9339 12.939C29.269 12.9894 29.6063 13.0135 29.9457 13.0113C30.2852 13.0091 30.6203 12.9806 30.9554 12.9259C31.2904 12.8711 31.619 12.7901 31.9409 12.685C32.2628 12.5777 32.5738 12.4463 32.8761 12.2908C33.1783 12.1375 33.4652 11.9579 33.739 11.7586C34.0127 11.5593 34.269 11.3381 34.5099 11.0972C34.7486 10.8563 34.9676 10.6 35.1669 10.3241C35.3662 10.0503 35.5414 9.76121 35.6969 9.45898C35.8502 9.15675 35.9794 8.84356 36.0845 8.52162C36.1897 8.19968 36.2685 7.87117 36.3233 7.53608C36.3758 7.201 36.4043 6.86373 36.4043 6.52426V6.43447C37.6417 6.27897 38.8835 6.19575 40.1296 6.18261C40.9181 6.1848 41.7021 6.22422 42.4862 6.30306C43.268 6.38191 44.0455 6.49798 44.8164 6.65129C45.5873 6.80678 46.3495 6.99732 47.1029 7.22728C47.8563 7.45724 48.5965 7.72224 49.3214 8.02447C50.0485 8.3267 50.7581 8.66398 51.4524 9.0341C52.1466 9.40642 52.819 9.81158 53.4738 10.2496C54.1287 10.6876 54.7594 11.1563 55.3661 11.6556C55.9749 12.155 56.5575 12.6828 57.1137 13.2391C57.67 13.7975 58.1978 14.3801 58.695 14.9889C59.1943 15.5978 59.663 16.2285 60.101 16.8834C60.5368 17.5382 60.942 18.2127 61.3121 18.907C61.6823 19.6013 62.0195 20.3109 62.3196 21.038C62.6218 21.7651 62.8868 22.5053 63.1146 23.2587C63.3445 24.0121 63.5351 24.7742 63.6884 25.5473C63.8439 26.3183 63.9578 27.0957 64.0366 27.8798C64.1133 28.6638 64.1527 29.4479 64.1527 30.2363C64.1527 30.8539 64.122 31.4715 64.0607 32.0869C63.9994 32.7024 63.9096 33.3134 63.7869 33.92C63.6665 34.5267 63.5154 35.1268 63.3358 35.7181C63.1562 36.3116 62.9481 36.892 62.7116 37.4636C62.4751 38.0352 62.2101 38.5937 61.9188 39.1412C61.6275 39.6865 61.3099 40.2165 60.9661 40.7312C60.6223 41.2459 60.2543 41.7408 59.8623 42.2205C59.4703 42.6979 59.0564 43.1556 58.6183 43.5936C58.1825 44.0317 57.7248 44.4478 57.2473 44.8398C56.7677 45.2318 56.2728 45.602 55.7581 45.9458C55.2456 46.2896 54.7156 46.6072 54.1703 46.9007C53.6249 47.192 53.0665 47.457 52.497 47.6935C51.9254 47.9322 51.3429 48.1403 50.7515 48.322C50.1602 48.5016 49.5623 48.6527 48.9557 48.7754C48.349 48.8958 47.738 48.9878 47.1226 49.0491C46.5072 49.1105 45.8896 49.1433 45.272 49.1433C45.272 49.1433 44.7704 49.1433 44.1068 49.1433C42.9067 49.2441 41.7831 48.9944 40.7385 48.3899C41.3342 48.4819 41.9299 48.5257 42.53 48.517C46.3823 48.517 55.2325 47.0649 57.1313 33.9091C58.2767 26.0248 50.6639 19.4633 42.692 19.4633C42.1839 19.4677 41.6758 19.4961 41.1699 19.5531C40.7034 19.5794 40.2369 19.6275 39.7748 19.6976C39.3127 19.7677 38.855 19.8597 38.4017 19.9736C37.9461 20.0875 37.4993 20.2211 37.0591 20.3766C36.6167 20.532 36.1853 20.7094 35.7604 20.9066C35.3355 21.1037 34.9216 21.3205 34.5186 21.5548C34.1157 21.7913 33.7236 22.0476 33.3426 22.3192C32.9637 22.5929 32.5979 22.8842 32.2453 23.1908C31.8927 23.4996 31.5555 23.8237 31.2357 24.1632C30.9138 24.5027 30.6093 24.8575 30.3202 25.2254C30.0333 25.5955 29.7618 25.9766 29.5099 26.3708C29.2581 26.765 29.0259 27.1702 28.8135 27.5863C28.5988 28.0024 28.4061 28.4273 28.2331 28.8631C28.0601 29.2968 27.9068 29.7392 27.7754 30.1881C27.644 30.6371 27.5345 31.0926 27.4447 31.5504C27.3571 32.0103 27.2914 32.4724 27.2454 32.9389C27.2016 33.4054 27.1797 33.8719 27.1775 34.3405C27.1775 34.934 27.2081 35.5254 27.2651 36.1145C27.3242 36.7058 27.4096 37.2928 27.5257 37.8731C27.6418 38.4557 27.7863 39.0295 27.9571 39.5989C28.1302 40.1662 28.3295 40.7246 28.555 41.2722C28.7828 41.8197 29.0347 42.3562 29.3128 42.8797C29.5931 43.4031 29.8976 43.9112 30.2261 44.4062C30.5546 44.8989 30.9072 45.3742 31.2839 45.8341C31.6584 46.2918 32.057 46.732 32.4753 47.1525C32.8936 47.573 33.3338 47.9716 33.7915 48.3483C34.2493 48.725 34.7245 49.0776 35.2173 49.4083C35.71 49.739 36.2181 50.0434 36.7394 50.3238C37.2628 50.6041 37.7972 50.8582 38.3447 51.0859C38.8922 51.3137 39.4507 51.5152 40.0179 51.6882C40.5852 51.8612 41.159 52.0058 41.7393 52.1218C42.3219 52.2401 42.9067 52.3277 43.498 52.3868C44.0871 52.446 44.6784 52.4766 45.272 52.4766C45.9991 52.4766 46.7262 52.4394 47.4489 52.3671C48.1738 52.2949 48.8922 52.1875 49.6061 52.043C50.3179 51.9006 51.0231 51.7232 51.7196 51.5108C52.416 51.2984 53.0993 51.0531 53.7717 50.7749C54.444 50.4946 55.0989 50.1836 55.7406 49.8398C56.3823 49.4959 57.0064 49.1214 57.6109 48.7163C58.2154 48.3133 58.7979 47.8796 59.3608 47.4175C59.9236 46.9554 60.4602 46.467 60.9749 45.9502C61.4895 45.4355 61.9779 44.8967 62.4378 44.3339C62.9 43.771 63.3336 43.1885 63.7366 42.5818C64.1417 41.9774 64.514 41.3532 64.8579 40.7115C65.2017 40.0698 65.5105 39.4128 65.7909 38.7404C66.069 38.0681 66.3143 37.3826 66.5245 36.6861C66.737 35.9897 66.9144 35.2845 67.0567 34.5705C67.1991 33.8565 67.3042 33.1382 67.3765 32.4133C67.4488 31.6905 67.4838 30.9634 67.486 30.2363C67.4838 29.3406 67.44 28.4448 67.3502 27.5535C67.2626 26.6621 67.129 25.7773 66.9538 24.8991C66.7786 24.0209 66.5596 23.1514 66.299 22.2951C66.0383 21.4387 65.7361 20.5956 65.3945 19.7677C65.0506 18.9399 64.6674 18.1317 64.2447 17.3411C63.822 16.5527 63.3621 15.7839 62.8649 15.0393C62.3656 14.2947 61.8334 13.5763 61.2661 12.8843C60.6967 12.19 60.0966 11.5286 59.4637 10.8935C58.8286 10.2605 58.1672 9.66047 57.4751 9.09104C56.783 8.52162 56.0647 7.98943 55.3201 7.49228C54.5754 6.99294 53.8089 6.53302 53.0183 6.11034C52.2299 5.68765 51.4195 5.30439 50.5939 4.96054C49.766 4.6167 48.925 4.31447 48.0665 4.05385C47.2102 3.79323 46.3429 3.57641 45.4647 3.39901C44.5865 3.22381 43.7017 3.0924 42.8103 3.00261C41.9189 2.915 41.0254 2.86901 40.1296 2.86901C38.5703 2.87339 37.0175 2.98728 35.4735 3.20847C35.1888 2.72009 34.8471 2.27769 34.4486 1.87909C34.0478 1.48269 33.6032 1.14103 33.1148 0.860703C32.6264 0.578183 32.1095 0.365744 31.5642 0.219009C31.0189 0.0744632 30.4648 0 29.9019 0C29.4727 0 29.05 0.0416119 28.6295 0.124835C28.209 0.210248 27.8016 0.332893 27.4052 0.497149C27.011 0.661405 26.6343 0.862894 26.2795 1.09942C25.9226 1.33814 25.594 1.60752 25.2896 1.91194C24.9874 2.21418 24.718 2.54269 24.4793 2.89967C24.2428 3.25666 24.0413 3.63116 23.877 4.02757C23.7128 4.42397 23.5901 4.83133 23.5069 5.25182C23.4215 5.67232 23.3799 6.09501 23.3799 6.52426C23.3799 6.77612 23.3799 7.02579 23.3799 7.27765C22.1206 7.996 20.9116 8.791 19.7531 9.66485C18.5967 10.5409 17.4995 11.4848 16.4636 12.501C15.4277 13.5172 14.4618 14.5947 13.5661 15.7358C12.6703 16.8768 11.8491 18.0704 11.1066 19.3166C10.3642 20.5627 9.70497 21.8527 9.12898 23.1842C8.55299 24.5158 8.0646 25.878 7.66381 27.2731C7.26303 28.6682 6.95422 30.083 6.73741 31.5175C6.5184 32.952 6.39356 34.3953 6.3629 35.8451C5.86137 35.9809 5.37736 36.1627 4.91087 36.3861C4.4422 36.6095 3.9998 36.8723 3.5793 37.1767C3.15881 37.4789 2.76897 37.8184 2.4098 38.1929C2.05062 38.5674 1.72868 38.9682 1.44178 39.4018C1.15488 39.8333 0.90959 40.2866 0.703721 40.7641C0.500044 41.2393 0.337977 41.7299 0.221903 42.2358C0.105828 42.7417 0.0357454 43.252 0.00946438 43.771C-0.0146267 44.2879 0.00727415 44.8048 0.0751669 45.3194C0.14525 45.8319 0.256944 46.3356 0.41682 46.8306C0.576696 47.3234 0.778184 47.7986 1.02347 48.2563C1.26657 48.7119 1.55128 49.1455 1.87323 49.5507C2.19517 49.9558 2.54996 50.3303 2.9398 50.672C3.32963 51.0137 3.74794 51.3181 4.19034 51.5853C4.63492 51.8525 5.10141 52.078 5.58542 52.262C6.06943 52.4438 6.56658 52.5818 7.07687 52.6759C7.58716 52.7701 8.10183 52.8161 8.61869 52.8183C8.93187 52.8073 9.24286 52.7767 9.55167 52.7285C9.94807 53.6724 10.3795 54.601 10.846 55.5143C11.3103 56.4275 11.8096 57.3233 12.3396 58.1993C12.8696 59.0775 13.4325 59.9339 14.026 60.7683C14.6195 61.6049 15.2415 62.4174 15.8942 63.208C16.5468 63.9987 17.2279 64.763 17.9353 65.5033C18.6427 66.2435 19.3786 66.9575 20.1385 67.6452C20.8985 68.3307 21.6825 68.9899 22.4929 69.6206C23.301 70.2492 24.1311 70.8493 24.983 71.4165C25.8349 71.9859 26.7066 72.5225 27.598 73.0284C28.4893 73.5343 29.3982 74.0052 30.3246 74.4454C31.251 74.8834 32.1906 75.2886 33.1455 75.6587C34.1025 76.0288 35.0683 76.3639 36.0495 76.6639C37.0285 76.9618 38.0184 77.2268 39.0171 77.4524C40.0158 77.6801 41.0232 77.8707 42.035 78.024C43.049 78.1773 44.0652 78.2955 45.088 78.3744C46.1086 78.4532 47.1313 78.4948 48.1563 78.5014C49.0039 78.4992 49.8514 78.4773 50.699 78.4335C51.5466 78.3897 52.3919 78.3262 53.2351 78.2408C54.0783 78.1554 54.9215 78.0503 55.7603 77.9254C56.5991 77.7984 57.4335 77.6517 58.2657 77.4852C59.0958 77.3188 59.9236 77.1326 60.7471 76.9246C61.5684 76.7165 62.3853 76.4887 63.1956 76.2412C64.0081 75.9938 64.8119 75.7266 65.6113 75.4397C66.4085 75.1528 67.1991 74.8484 67.9831 74.522C68.7672 74.1957 69.5403 73.8519 70.3068 73.4883C71.0733 73.1248 71.8311 72.7415 72.5779 72.3429C73.3269 71.9421 74.0628 71.5216 74.7899 71.0858C75.517 70.65 76.2332 70.1944 76.9384 69.7235C77.6436 69.2505 78.3379 68.7621 79.019 68.2562C79.6979 67.7503 80.3681 67.229 81.0229 66.6903C81.6777 66.1515 82.3194 65.5974 82.948 65.0258C83.5765 64.4564 84.1898 63.8716 84.7898 63.2716C85.3899 62.6715 85.9747 62.0561 86.5441 61.4275C87.1135 60.799 87.6676 60.1573 88.2064 59.5002C88.743 58.8454 89.2642 58.1752 89.7701 57.4941C90.276 56.813 90.7644 56.1209 91.2353 55.4135C91.7061 54.7083 92.1617 53.9922 92.5975 53.2651C93.0333 52.538 93.4516 51.7999 93.8524 51.0509C94.2532 50.3041 94.6343 49.5463 94.9978 48.7798C95.3614 48.011 95.7052 47.2358 96.0294 46.4539C96.3557 45.6698 96.6601 44.877 96.947 44.0798C97.2339 43.2805 97.5011 42.4745 97.7486 41.6642C97.9939 40.8517 98.2216 40.0348 98.4275 39.2113C98.6356 38.3878 98.8217 37.5621 98.9882 36.7299C99.1546 35.8977 99.3014 35.0611 99.4262 34.2223C99.5532 33.3835 99.6583 32.5403 99.7416 31.6971C99.827 30.8517 99.8905 30.0064 99.9321 29.1588C99.9759 28.3112 99.9978 27.4637 100 26.6161C100 24.4282 99.8927 22.2053 99.678 20.0371ZM8.61869 49.485C8.26609 49.485 7.91786 49.4499 7.57183 49.3798C7.2258 49.312 6.88852 49.209 6.5622 49.0754C6.23588 48.9396 5.92707 48.7732 5.6336 48.5783C5.34013 48.3812 5.06856 48.16 4.81889 47.9103C4.56922 47.6606 4.34583 47.3891 4.15092 47.0956C3.95381 46.8021 3.78955 46.4911 3.65377 46.1648C3.52017 45.8385 3.41724 45.5034 3.34934 45.1574C3.27926 44.8091 3.24422 44.4609 3.24422 44.1083C3.24422 43.7535 3.27926 43.4053 3.34934 43.0593C3.41724 42.7132 3.52017 42.376 3.65377 42.0496C3.78955 41.7233 3.95381 41.4145 4.15092 41.121C4.34583 40.8276 4.56922 40.556 4.81889 40.3063C5.06856 40.0567 5.34013 39.8333 5.6336 39.6362C5.92707 39.4412 6.23588 39.2748 6.5622 39.139C6.88852 39.0054 7.2258 38.9025 7.57183 38.8346C7.91786 38.7645 8.26609 38.7317 8.61869 38.7317C8.97129 38.7317 9.32171 38.7645 9.66774 38.8346C10.0138 38.9025 10.351 39.0054 10.6752 39.139C11.0015 39.2748 11.3125 39.4412 11.606 39.6362C11.8994 39.8333 12.171 40.0567 12.4185 40.3063C12.6682 40.556 12.8915 40.8276 13.0887 41.121C13.2836 41.4145 13.45 41.7233 13.5836 42.0496C13.7194 42.376 13.8223 42.7132 13.8902 43.0593C13.9603 43.4053 13.9932 43.7535 13.9932 44.1083C13.9932 44.4609 13.9603 44.8091 13.8902 45.1574C13.8223 45.5034 13.7194 45.8385 13.5836 46.1648C13.45 46.4911 13.2836 46.8021 13.0887 47.0956C12.8915 47.3891 12.6682 47.6606 12.4185 47.9103C12.171 48.16 11.8994 48.3812 11.606 48.5783C11.3125 48.7732 11.0015 48.9396 10.6752 49.0754C10.351 49.209 10.0138 49.312 9.66774 49.3798C9.32171 49.4499 8.97129 49.485 8.61869 49.485ZM29.9019 3.33331C30.11 3.33331 30.3181 3.35521 30.5239 3.39463C30.7298 3.43624 30.9291 3.49757 31.1218 3.57641C31.3145 3.65744 31.4985 3.756 31.6737 3.87207C31.8467 3.98814 32.0088 4.11955 32.1555 4.26848C32.3045 4.4174 32.4359 4.57728 32.5519 4.75248C32.668 4.9255 32.7666 5.10947 32.8476 5.30439C32.9286 5.49711 32.9878 5.69641 33.0294 5.90228C33.0688 6.10815 33.0907 6.31402 33.0907 6.52426C33.0907 6.73451 33.0688 6.94038 33.0294 7.14625C32.9878 7.35212 32.9286 7.55141 32.8476 7.74414C32.7666 7.93906 32.668 8.12303 32.5519 8.29604C32.4359 8.47125 32.3045 8.63113 32.1555 8.78005C32.0088 8.92898 31.8467 9.06038 31.6737 9.17646C31.4985 9.29253 31.3145 9.39109 31.1218 9.47212C30.9291 9.55096 30.7298 9.61228 30.5239 9.6539C30.3181 9.69332 30.11 9.71522 29.9019 9.71522C29.6917 9.71522 29.4836 9.69332 29.28 9.6539C29.0741 9.61228 28.8748 9.55096 28.6821 9.47212C28.4871 9.39109 28.3032 9.29253 28.1302 9.17646C27.955 9.06038 27.7951 8.92898 27.6461 8.78005C27.4994 8.63113 27.3658 8.47125 27.2497 8.29604C27.1337 8.12303 27.0351 7.93906 26.9563 7.74414C26.8752 7.55141 26.8139 7.35212 26.7745 7.14625C26.7329 6.94038 26.7132 6.73451 26.7132 6.52426C26.7132 6.31402 26.7329 6.10815 26.7745 5.90228C26.8139 5.69641 26.8752 5.49711 26.9563 5.30439C27.0351 5.10947 27.1337 4.9255 27.2497 4.75248C27.3658 4.57728 27.4994 4.4174 27.6461 4.26848C27.7951 4.11955 27.955 3.98814 28.1302 3.87207C28.3032 3.756 28.4871 3.65744 28.6821 3.57641C28.8748 3.49757 29.0741 3.43624 29.28 3.39463C29.4836 3.35521 29.6917 3.33331 29.9019 3.33331ZM41.4919 22.8689H42.6745C42.911 22.882 43.1454 22.9017 43.3797 22.9302C43.6141 22.9587 43.8484 22.9937 44.0805 23.0353C44.3127 23.0791 44.5448 23.1295 44.7726 23.1864C45.0026 23.2456 45.2303 23.3091 45.4537 23.3813C45.6793 23.4536 45.9027 23.5347 46.1217 23.6201C46.3407 23.7077 46.5597 23.8018 46.7722 23.9026C46.9868 24.0033 47.197 24.1106 47.4029 24.2245C47.611 24.3384 47.8146 24.4589 48.0139 24.5859C48.211 24.7129 48.406 24.8465 48.5965 24.9867C48.7892 25.1268 48.9732 25.2736 49.155 25.4247C49.3368 25.5758 49.512 25.7335 49.6828 25.8956C49.8558 26.0598 50.0201 26.2285 50.1799 26.4015C50.342 26.5767 50.4953 26.7541 50.6442 26.938C50.7932 27.122 50.9355 27.3104 51.0713 27.5031C51.2093 27.6958 51.3385 27.8929 51.4633 28.0944C51.5882 28.2959 51.7042 28.5018 51.8159 28.7098C51.9254 28.9179 52.0306 29.1303 52.1269 29.3471C52.2233 29.5618 52.3153 29.7808 52.3985 30.002C52.4795 30.2232 52.5562 30.4466 52.6241 30.6721C52.6942 30.8999 52.7555 31.1277 52.808 31.3576C52.8628 31.5876 52.9088 31.8197 52.9482 32.0519C52.9876 32.2862 53.0183 32.5206 53.0424 32.7549C53.0665 32.9914 53.084 33.2258 53.0928 33.4623C53.1015 33.6988 53.1037 33.9354 53.0971 34.1719C53.0906 34.4084 53.0752 34.645 53.0555 34.8793C53.0336 35.1158 53.003 35.3502 52.9679 35.5823C52.9307 35.8167 52.8869 36.0488 52.8343 36.2788C52.7839 36.5109 52.7248 36.7387 52.6591 36.9664C52.5912 37.192 52.5189 37.4176 52.4379 37.6388C52.3569 37.8622 52.2693 38.0812 52.1751 38.298C52.0809 38.5148 51.978 38.7273 51.8707 38.9375C51.7612 39.1478 51.6451 39.3536 51.5246 39.5573C51.402 39.7588 51.275 39.9581 51.1392 40.153C51.0056 40.3457 50.8654 40.5363 50.7165 40.7224C50.5698 40.9064 50.4187 41.0882 50.2588 41.2634C50.1011 41.4386 49.9368 41.6094 49.7682 41.7737C49.5996 41.9379 49.4244 42.0978 49.2448 42.2511C49.0652 42.4044 48.8812 42.5534 48.6929 42.6957C48.5023 42.8359 48.3096 42.9717 48.1125 43.1009C47.9132 43.2301 47.7117 43.3549 47.5058 43.471C47.3 43.5871 47.0919 43.6966 46.8795 43.7995C46.6648 43.9024 46.4502 43.9988 46.2312 44.0864C46.0122 44.1762 45.791 44.2572 45.5654 44.3339C45.342 44.4084 45.1165 44.4741 44.8865 44.5354C44.6587 44.5945 44.4288 44.6471 44.1966 44.6931C43.9645 44.7391 43.7301 44.7763 43.4958 44.807C43.2615 44.8376 43.0271 44.8595 42.7906 44.8748C42.5563 44.8902 42.3197 44.8989 42.0832 44.8989C41.8467 44.8989 41.6101 44.8902 41.3758 44.8748C41.1393 44.8595 40.9049 44.8376 40.6706 44.807C40.4341 44.7763 40.2019 44.7391 39.9698 44.6931C39.7376 44.6471 39.5077 44.5945 39.2799 44.5354C39.0499 44.4741 38.8243 44.4084 38.601 44.3339C38.3754 44.2572 38.1542 44.1762 37.9352 44.0864C37.7162 43.9988 37.5015 43.9024 37.2869 43.7995C37.0745 43.6966 36.8664 43.5871 36.6605 43.471C36.4547 43.3549 36.2532 43.2301 36.0539 43.1009C35.8568 42.9717 35.6641 42.8359 35.4735 42.6957C35.2852 42.5534 35.1012 42.4044 34.9216 42.2511C34.742 42.0978 34.5668 41.9379 34.3982 41.7737C34.2295 41.6094 34.0653 41.4386 33.9054 41.2634C33.7477 41.0882 33.5944 40.9064 33.4477 40.7224C33.3009 40.5363 33.1608 40.3457 33.0272 40.153C32.8914 39.9581 32.7644 39.7588 32.6417 39.5573C32.5213 39.3536 32.4052 39.1478 32.2957 38.9375C32.1884 38.7273 32.0854 38.5148 31.9913 38.298C31.8971 38.0812 31.8095 37.8622 31.7285 37.6388C31.6474 37.4176 31.573 37.192 31.5073 36.9664C31.4416 36.7387 31.3824 36.5109 31.3321 36.2788C31.2795 36.0488 31.2357 35.8167 31.1985 35.5823C31.1612 35.3502 31.1328 35.1158 31.1109 34.8793C31.0912 34.645 31.0758 34.4084 31.0693 34.1719C31.0627 33.9354 31.0649 33.6988 31.0736 33.4623C31.0824 33.2258 31.0999 32.9914 31.124 32.7549C31.1459 32.5206 31.1788 32.2862 31.2182 32.0519C31.2576 31.8197 31.3036 31.5876 31.3562 31.3576C31.4109 31.1277 31.4722 30.8999 31.5401 30.6721C31.6102 30.4466 31.6847 30.2232 31.7679 30.002C31.8511 29.7808 31.9409 29.5618 32.0395 29.3471C32.1358 29.1303 32.2409 28.9179 32.3505 28.7098C32.4621 28.5018 32.5782 28.2959 32.7031 28.0944C32.8279 27.8929 32.9571 27.6958 33.0929 27.5031C33.2309 27.3104 33.3732 27.122 33.5221 26.938C33.6711 26.7541 33.8244 26.5767 33.9864 26.4015C34.1463 26.2285 34.3106 26.0598 34.4814 25.8956C34.6544 25.7335 34.8296 25.5758 35.0114 25.4247C35.1932 25.2714 35.3771 25.1268 35.5677 24.9867C35.7582 24.8465 35.9531 24.7129 36.1524 24.5859C36.3517 24.4589 36.5554 24.3384 36.7635 24.2245C36.9693 24.1106 37.1796 24.0033 37.3942 23.9026C37.6067 23.8018 37.8235 23.7077 38.0447 23.6201C38.2637 23.5347 38.4871 23.4536 38.7127 23.3813C38.936 23.3091 39.1638 23.2456 39.3938 23.1864C39.6215 23.1295 39.8537 23.0791 40.0858 23.0353C40.318 22.9937 40.5523 22.9587 40.7867 22.9302C41.021 22.9017 41.2553 22.882 41.4919 22.8689Z" fill="#8A5360"/>
</svg>
