<svg width="104" height="104" viewBox="0 0 104 104" fill="none" xmlns="http://www.w3.org/2000/svg">
<path d="M102 51.9992C102 24.3848 79.6144 2 52.0009 2C24.3866 2 2 24.3848 2 51.9992C2 79.6126 24.3866 101.998 52.0009 101.998C79.6144 101.998 102 79.6126 102 51.9992Z" stroke="#8A5360" stroke-width="3" stroke-miterlimit="10" stroke-linecap="round" stroke-linejoin="round"/>
<path d="M65 38.5005C65 45.9549 59.1802 52 52.0013 52C44.8207 52 39 45.9549 39 38.5005C39 31.046 44.8207 25 52.0013 25C59.1802 25 65 31.046 65 38.5005Z" stroke="#8A5360" stroke-width="3" stroke-miterlimit="10" stroke-linecap="round" stroke-linejoin="round"/>
<path d="M66.2445 57.2242H37.7554C32.6597 57.2242 28.5293 61.3565 28.5293 66.4503V96.1539C35.5269 99.8824 43.5164 101.998 52.0008 101.998C60.4826 101.998 68.472 99.8824 75.4705 96.1539V66.4503C75.4705 61.3565 71.3401 57.2242 66.2445 57.2242Z" stroke="#8A5360" stroke-width="3" stroke-miterlimit="10" stroke-linecap="round" stroke-linejoin="round"/>
<path d="M37 71V100" stroke="#8A5360" stroke-width="3" stroke-miterlimit="10" stroke-linecap="round" stroke-linejoin="round"/>
<path d="M67 71V100" stroke="#8A5360" stroke-width="3" stroke-miterlimit="10" stroke-linecap="round" stroke-linejoin="round"/>
</svg>
