<svg width="100" height="96" viewBox="0 0 100 96" fill="none" xmlns="http://www.w3.org/2000/svg">
<path d="M95.4797 79.1762H50.4577C48.3176 79.1762 46.5762 77.4356 46.5762 75.2956V3.88063C46.5762 1.74054 48.3176 0 50.4577 0H95.4797C97.6206 0 99.3612 1.74054 99.3612 3.88063V75.2956C99.3612 77.4365 97.6189 79.1762 95.4797 79.1762ZM50.4577 1.55242C49.1736 1.55242 48.1286 2.59744 48.1286 3.88149V75.2956C48.1286 76.5787 49.1736 77.6246 50.4577 77.6246H95.4797C96.7637 77.6246 97.8087 76.5787 97.8087 75.2956V3.88149C97.8087 2.59744 96.7637 1.55242 95.4797 1.55242H50.4577Z" fill="#8A5360"/>
<path d="M49.3671 85C48.6948 85 48.0285 84.825 47.4287 84.4784C46.5285 83.9627 45.8856 83.1313 45.6189 82.1387L27.1324 13.5588C26.5792 11.5031 27.8107 9.38305 29.8786 8.83138L44.1767 5.02286C44.5919 4.92334 45.0173 5.1567 45.1278 5.56853C45.2383 5.98121 44.9923 6.40333 44.578 6.51487L30.2799 10.3242C29.0397 10.6537 28.3001 11.9261 28.6315 13.159L47.118 81.7397C47.2785 82.3369 47.6643 82.8336 48.2046 83.1442C48.7466 83.4548 49.3723 83.5423 49.9704 83.3767L63.0223 79.9002C63.4374 79.8007 63.8637 80.0367 63.9742 80.4493C64.083 80.8595 63.8378 81.2816 63.4253 81.3931L50.3726 84.8687C50.042 84.9554 49.7063 85 49.3706 85H49.3671Z" fill="#8A5360"/>
<path d="M51.0891 91C49.7619 91 48.4696 90.3088 47.7617 89.0715L12.5126 27.5311C12.0023 26.6424 11.8677 25.6035 12.1326 24.6048C12.3984 23.6045 13.0314 22.7716 13.9148 22.2573L26.2083 15.1056C26.5729 14.8884 27.0414 15.018 27.2552 15.3872C27.4665 15.7573 27.3413 16.2287 26.9741 16.4417L14.6806 23.5951C14.1516 23.9033 13.7725 24.4022 13.6132 25.0041C13.4539 25.6035 13.534 26.226 13.8398 26.7575L49.088 88.3004C49.721 89.4046 51.1309 89.7841 52.2332 89.1479L63.8503 82.3869C64.2157 82.1722 64.6843 82.2993 64.8964 82.6702C65.1093 83.0377 64.9833 83.5117 64.617 83.7229L52.9982 90.4848C52.3967 90.8343 51.7391 91 51.0891 91Z" fill="#8A5360"/>
<path d="M54.378 96C53.3813 96 52.3889 95.622 51.6338 94.8661L1.1339 44.3688C0.402991 43.6396 0.000862882 42.6653 0 41.6263C0 40.5865 0.402129 39.6131 1.13304 38.8822L11.3027 28.7125C11.6056 28.4087 12.0975 28.4087 12.4004 28.7125C12.7033 29.0154 12.7033 29.5073 12.4004 29.8102L2.22983 39.9799C1.79318 40.4165 1.55242 41.0016 1.55242 41.6255C1.55242 42.2494 1.79318 42.8345 2.23155 43.2711L52.7315 93.7667C53.6376 94.6763 55.1141 94.6737 56.0253 93.7667L65.6531 84.1398C65.956 83.836 66.447 83.836 66.7508 84.1398C67.0536 84.4427 67.0536 84.9346 66.7508 85.2374L57.1212 94.8678C56.3644 95.6229 55.3703 96 54.378 96Z" fill="#8A5360"/>
<path d="M87.0323 43.8561C87.591 43.0381 92.5992 35.4771 90.4802 29.1028C90.3693 28.8249 87.6413 22.2637 83.2621 19.8946C82.6433 19.4723 77.5544 16.3495 66.3854 19.1622C66.048 19.237 58.2008 21.2531 56.9074 32.7709C56.8821 32.9583 56.9173 33.1454 57.0029 33.3167L57.9948 35.2949C57.0938 37.1187 55.1558 40.8777 54.2348 41.9096C54.0636 42.1023 53.9829 42.3536 54.003 42.6158C54.0182 42.8724 54.139 43.1077 54.3253 43.2625C54.3253 43.2625 55.9159 44.5941 56.8571 45.3803L56.1576 47.2089C55.9962 47.6529 56.1723 48.1608 56.5802 48.3748L57.1843 48.7009L56.8772 49.225C56.6458 49.642 56.7465 50.1769 57.1237 50.4604L58.528 51.5245L58.6742 53.3427C58.6689 53.5562 58.684 55.4066 59.882 56.2781C60.3754 56.6259 61.226 56.936 62.5095 56.3959L68.1821 54.3372C68.3684 55.7862 68.5797 58.5241 67.9253 60.8076C67.845 61.1016 67.9003 61.4277 68.0813 61.663C68.2525 61.8822 68.5044 62 68.7611 62C68.7911 62 68.8164 62 68.8467 62L86.8812 60.0801C87.1834 60.0483 87.4501 59.8504 87.586 59.5561C87.7118 59.2621 87.6917 58.9146 87.5205 58.6472C87.4853 58.5776 83.2371 51.6315 87.0323 43.8561ZM69.8886 60.0266C70.3063 57.5561 70.0393 55.0056 69.8583 53.7275L71.741 53.0483C72.9741 52.6208 75.254 51.054 74.9972 48.2143C74.9472 47.7064 74.5394 47.332 74.0512 47.3802C73.5728 47.4281 73.2206 47.8829 73.2661 48.3909C73.4471 50.4656 71.2827 51.2571 71.1922 51.2945L68.6051 52.2303C68.5949 52.2355 68.585 52.2355 68.5646 52.2516L61.9055 54.6634C61.6336 54.7808 61.1355 54.9469 60.8685 54.7543C60.5265 54.5081 60.4156 53.6954 60.4156 53.2836L60.2345 50.9414C60.2092 50.6687 60.0785 50.423 59.8672 50.2678L58.7897 49.455L59.1673 48.8027C59.293 48.5887 59.3283 48.3213 59.2578 48.0647C59.1874 47.8238 59.0313 47.6103 58.8151 47.4924L58.08 47.1076L58.7246 45.4338C58.8655 45.0485 58.7598 44.6102 58.4477 44.3536C58.0247 44.0061 56.8571 43.0273 56.0921 42.3963C57.5062 40.3324 59.4994 36.2364 59.7513 35.7123C59.882 35.4449 59.877 35.124 59.7464 34.8565L58.664 32.707C59.8971 22.7821 66.4911 21.0335 66.7728 20.9587C77.635 18.2208 82.2907 21.424 82.3362 21.4561C82.3665 21.4775 82.4017 21.504 82.4467 21.5201C86.2673 23.5631 88.8593 29.7821 88.8593 29.7821C90.7268 35.3858 85.6432 42.7385 85.5977 42.8189C85.5674 42.8511 85.5424 42.8937 85.5224 42.9364C82.1801 49.6955 84.2086 55.8023 85.4016 58.385L69.8886 60.0266Z" fill="#8A5360"/>
</svg>
