<svg width="100" height="100" viewBox="0 0 100 100" fill="none" xmlns="http://www.w3.org/2000/svg">
<path d="M47.5453 0.204287C44.8889 0.655943 42.3575 2.53576 41.1293 4.94579C39.6012 7.90565 39.4262 13.8272 40.7026 17.6404C41.606 20.2735 42.6324 22.0302 44.1874 23.5869L45.4406 24.8401L45.1389 26.7467C44.8639 28.6783 44.0374 30.7616 43.1841 31.7149C42.1576 32.8699 40.3028 34.0482 38.4479 34.6998C33.4601 36.4814 29.4255 38.9646 26.4174 42.1512C22.1812 46.5928 18.2966 54.9458 17.0433 62.3472C16.4685 65.6838 16.4167 67.1655 16.8434 67.7671C17.52 68.6454 23.961 68.5437 28.7971 67.5404C32.5068 66.7638 36.2914 64.9322 38.2962 62.9506L39.0977 62.1223V62.8756C39.0977 63.9289 38.4229 67.7171 37.8195 70.0504C36.5163 75.1436 33.86 79.2567 30.6769 81.1401L29.6487 81.7417L27.6189 80.8883C24.9625 79.7333 21.4046 78.6301 18.8232 78.1034C15.9151 77.5018 10.979 77.6768 9.04741 78.4301C7.21758 79.1567 6.76592 79.6084 6.76592 80.7884C6.76592 84.5498 11.1272 90.4463 17.2683 95.0129L19.348 96.5428H10.1757C1.32819 96.5428 0.978292 96.5678 0.501642 97.0444C0.224936 97.3211 0 97.721 0 97.9228C0 98.1227 0.224936 98.5244 0.501642 98.8011C1.0015 99.3027 1.32819 99.3027 49.6233 99.3027C97.9184 99.3027 98.2451 99.3027 98.7467 98.8011C99.3734 98.1745 99.3734 97.671 98.7467 97.0444C98.2701 96.5678 97.9184 96.5428 89.0477 96.5428H79.8754L81.9801 94.9879C84.6115 93.0295 87.8945 89.8947 89.3994 87.8863C91.0275 85.7298 92.2557 83.0699 92.4057 81.2882C92.5324 79.9083 92.5075 79.7833 91.8541 79.2817C89.8993 77.7517 84.8614 77.2251 80.3502 78.0784C77.8188 78.5801 73.8842 79.8333 71.3278 80.9883L69.5979 81.7417L68.5714 81.1401C65.3884 79.2567 62.757 75.2185 61.4039 70.0754C60.8272 67.8689 60.1489 63.9539 60.1489 62.8506V62.1223L60.9772 62.9506C62.932 64.934 66.3899 66.6139 70.1746 67.4672C72.9577 68.0688 78.7203 68.5704 80.5252 68.3437C82.6067 68.0688 82.8067 67.7921 82.6067 65.2339C82.2568 60.7173 80.7769 55.5242 78.4454 50.7077C76.4906 46.6178 75.0874 44.5345 72.681 42.0013C69.573 38.7665 66.8416 37.0098 61.8555 35.0782C58.6975 33.8482 57.4693 33.1199 56.291 31.7917C55.0378 30.4367 54.4612 29.0567 54.0845 26.6985L53.7846 24.7919L54.7861 23.8636C57.7692 21.0537 59.3991 16.6389 59.3991 11.4189C59.3741 5.14751 56.8427 1.35931 51.9798 0.329251C50.0767 -0.0724203 49.3484 -0.0974127 47.5453 0.204287ZM53.008 3.38909C55.0378 4.44414 56.2161 6.35074 56.6677 9.26062C57.4943 14.6805 55.1378 21.0019 51.5799 22.8085C48.8985 24.1885 45.8405 22.5068 43.9856 18.6437C42.8324 16.2104 42.4825 14.5555 42.4825 11.4939C42.4825 6.70243 44.0106 4.04426 47.3686 2.93922C48.5218 2.56254 51.9048 2.83746 53.008 3.38909ZM51.5549 27.6C52.2815 32.3165 55.5395 35.8298 60.6523 37.4597C64.262 38.6147 68.0466 40.998 70.703 43.7579C74.6876 47.9478 78.0223 54.7958 79.4255 61.8474C79.7254 63.2273 79.9521 64.6823 79.9521 65.034C79.9521 65.6606 79.9004 65.6855 78.3222 65.6855C71.3814 65.6855 65.4652 63.779 62.5089 60.5942C58.8474 56.7024 55.8662 50.7309 54.6379 44.8362C54.3112 43.4062 53.9613 42.0762 53.8346 41.9013C53.5097 41.5246 52.3315 41.4996 51.9316 41.9013C51.4799 42.3529 51.5549 43.4562 52.2315 46.2411C53.0848 49.7044 53.9364 52.0377 55.6412 55.3992C57.0194 58.1091 57.1194 58.4341 57.2693 60.5424C58.0709 71.5071 60.879 78.7318 65.8919 82.545L66.7184 83.1716L65.0153 84.1267C60.0025 86.9116 54.6129 90.5731 51.4049 93.3848C50.5034 94.1613 49.7251 94.7879 49.6501 94.7879C49.5769 94.7879 48.4986 93.9346 47.2436 92.8831C44.5622 90.6248 38.7228 86.6599 35.1132 84.6533L32.5068 83.1734L33.3583 82.5468C38.4212 78.6836 41.1543 71.6571 42.0058 60.2924C42.1576 58.2359 42.2808 57.8592 43.284 56.0526C45.1656 52.741 46.9437 48.0995 47.8702 44.1596C48.1469 42.9813 48.1219 42.7796 47.7453 42.3547C47.2704 41.8281 46.4671 41.7013 45.9422 42.053C45.7655 42.153 45.3406 43.358 44.9889 44.713C43.3858 50.8844 40.0011 57.4076 36.5931 60.8691C33.735 63.779 27.6457 65.6855 21.2296 65.6855H19.2481L19.4248 64.1056C19.6747 61.9723 20.853 57.4058 21.7795 55.0725C25.4891 45.7395 30.0253 40.8462 37.8213 37.8114C39.2745 37.2348 41.0293 36.4814 41.7059 36.1547C43.409 35.2764 45.6405 33.0949 46.4421 31.5132C47.1437 30.0832 47.8702 27.6 47.8702 26.5467C47.8702 25.9451 47.922 25.9184 49.5751 25.9184H51.2782L51.5549 27.6ZM20.0514 81.0883C25.0125 82.3683 31.1536 85.2282 37.2429 89.0432C40.6027 91.1247 45.5388 94.7629 46.592 95.8912L47.1936 96.5446H24.2359L21.8045 94.9379C16.7416 91.5514 12.5321 87.5882 10.7273 84.4766C9.80077 82.9467 9.29912 81.365 9.59904 81.0651C9.69901 80.9901 10.3524 80.7634 11.079 80.5866C13.0088 80.085 17.0933 80.3099 20.0514 81.0883ZM88.0462 80.5866C88.8478 80.7616 89.5744 80.9883 89.6493 81.0651C89.951 81.365 89.4244 82.9467 88.5211 84.4766C86.6931 87.6132 82.4318 91.6263 77.3939 94.9379L74.9643 96.5446H52.0565L52.6581 95.8912C53.7114 94.7629 58.6475 91.1247 62.0322 89.0164C65.9418 86.5332 72.9095 83.0716 76.1675 81.9934C80.9036 80.3867 85.1149 79.8851 88.0462 80.5866Z" fill="#8A5360"/>
</svg>
